<?xml version="1.0" encoding="utf-8" standalone="no"?>
<!DOCTYPE svg PUBLIC "-//W3C//DTD SVG 1.1//EN"
  "http://www.w3.org/Graphics/SVG/1.1/DTD/svg11.dtd">
<svg xmlns:xlink="http://www.w3.org/1999/xlink" width="203.43873pt" height="133.078504pt" viewBox="0 0 203.43873 133.078504" xmlns="http://www.w3.org/2000/svg" version="1.1">
 <metadata>
  <rdf:RDF xmlns:dc="http://purl.org/dc/elements/1.1/" xmlns:cc="http://creativecommons.org/ns#" xmlns:rdf="http://www.w3.org/1999/02/22-rdf-syntax-ns#">
   <cc:Work>
    <dc:type rdf:resource="http://purl.org/dc/dcmitype/StillImage"/>
    <dc:date>2025-07-29T15:47:34.232278</dc:date>
    <dc:format>image/svg+xml</dc:format>
    <dc:creator>
     <cc:Agent>
      <dc:title>Matplotlib v3.5.0, https://matplotlib.org/</dc:title>
     </cc:Agent>
    </dc:creator>
   </cc:Work>
  </rdf:RDF>
 </metadata>
 <defs>
  <style type="text/css">*{stroke-linejoin: round; stroke-linecap: butt}</style>
 </defs>
 <g id="figure_1">
  <g id="patch_1">
   <path d="M 0 133.078504 
L 203.43873 133.078504 
L 203.43873 0 
L 0 0 
z
" style="fill: #ffffff"/>
  </g>
  <g id="axes_1">
   <g id="patch_2">
    <path d="M 28.28125 107.546004 
L 197.43873 107.546004 
L 197.43873 2.7775 
L 28.28125 2.7775 
z
" style="fill: #ffffff"/>
   </g>
   <g id="matplotlib.axis_1">
    <g id="xtick_1">
     <g id="line2d_1">
      <defs>
       <path id="m729084702c" d="M 0 0 
L 0 3.5 
" style="stroke: #000000; stroke-width: 0.8"/>
      </defs>
      <g>
       <use xlink:href="#m729084702c" x="28.28125" y="107.546004" style="stroke: #000000; stroke-width: 0.8"/>
      </g>
     </g>
     <g id="text_1">
      <!-- 0 -->
      <g transform="translate(26.28125 120.101004)scale(0.08 -0.08)">
       <defs>
        <path id="TimesNewRomanPSMT-30" d="M 231 2094 
Q 231 2819 450 3342 
Q 669 3866 1031 4122 
Q 1313 4325 1613 4325 
Q 2100 4325 2488 3828 
Q 2972 3213 2972 2159 
Q 2972 1422 2759 906 
Q 2547 391 2217 158 
Q 1888 -75 1581 -75 
Q 975 -75 572 641 
Q 231 1244 231 2094 
z
M 844 2016 
Q 844 1141 1059 588 
Q 1238 122 1591 122 
Q 1759 122 1940 273 
Q 2122 425 2216 781 
Q 2359 1319 2359 2297 
Q 2359 3022 2209 3506 
Q 2097 3866 1919 4016 
Q 1791 4119 1609 4119 
Q 1397 4119 1231 3928 
Q 1006 3669 925 3112 
Q 844 2556 844 2016 
z
" transform="scale(0.015625)"/>
       </defs>
       <use xlink:href="#TimesNewRomanPSMT-30"/>
      </g>
     </g>
    </g>
    <g id="xtick_2">
     <g id="line2d_2">
      <g>
       <use xlink:href="#m729084702c" x="49.425935" y="107.546004" style="stroke: #000000; stroke-width: 0.8"/>
      </g>
     </g>
     <g id="text_2">
      <!-- 50 -->
      <g transform="translate(45.425935 120.101004)scale(0.08 -0.08)">
       <defs>
        <path id="TimesNewRomanPSMT-35" d="M 2778 4238 
L 2534 3706 
L 1259 3706 
L 981 3138 
Q 1809 3016 2294 2522 
Q 2709 2097 2709 1522 
Q 2709 1188 2573 903 
Q 2438 619 2231 419 
Q 2025 219 1772 97 
Q 1413 -75 1034 -75 
Q 653 -75 479 54 
Q 306 184 306 341 
Q 306 428 378 495 
Q 450 563 559 563 
Q 641 563 702 538 
Q 763 513 909 409 
Q 1144 247 1384 247 
Q 1750 247 2026 523 
Q 2303 800 2303 1197 
Q 2303 1581 2056 1914 
Q 1809 2247 1375 2428 
Q 1034 2569 447 2591 
L 1259 4238 
L 2778 4238 
z
" transform="scale(0.015625)"/>
       </defs>
       <use xlink:href="#TimesNewRomanPSMT-35"/>
       <use xlink:href="#TimesNewRomanPSMT-30" x="50"/>
      </g>
     </g>
    </g>
    <g id="xtick_3">
     <g id="line2d_3">
      <g>
       <use xlink:href="#m729084702c" x="70.57062" y="107.546004" style="stroke: #000000; stroke-width: 0.8"/>
      </g>
     </g>
     <g id="text_3">
      <!-- 100 -->
      <g transform="translate(64.57062 120.101004)scale(0.08 -0.08)">
       <defs>
        <path id="TimesNewRomanPSMT-31" d="M 750 3822 
L 1781 4325 
L 1884 4325 
L 1884 747 
Q 1884 391 1914 303 
Q 1944 216 2037 169 
Q 2131 122 2419 116 
L 2419 0 
L 825 0 
L 825 116 
Q 1125 122 1212 167 
Q 1300 213 1334 289 
Q 1369 366 1369 747 
L 1369 3034 
Q 1369 3497 1338 3628 
Q 1316 3728 1258 3775 
Q 1200 3822 1119 3822 
Q 1003 3822 797 3725 
L 750 3822 
z
" transform="scale(0.015625)"/>
       </defs>
       <use xlink:href="#TimesNewRomanPSMT-31"/>
       <use xlink:href="#TimesNewRomanPSMT-30" x="50"/>
       <use xlink:href="#TimesNewRomanPSMT-30" x="100"/>
      </g>
     </g>
    </g>
    <g id="xtick_4">
     <g id="line2d_4">
      <g>
       <use xlink:href="#m729084702c" x="91.715305" y="107.546004" style="stroke: #000000; stroke-width: 0.8"/>
      </g>
     </g>
     <g id="text_4">
      <!-- 150 -->
      <g transform="translate(85.715305 120.101004)scale(0.08 -0.08)">
       <use xlink:href="#TimesNewRomanPSMT-31"/>
       <use xlink:href="#TimesNewRomanPSMT-35" x="50"/>
       <use xlink:href="#TimesNewRomanPSMT-30" x="100"/>
      </g>
     </g>
    </g>
    <g id="xtick_5">
     <g id="line2d_5">
      <g>
       <use xlink:href="#m729084702c" x="112.85999" y="107.546004" style="stroke: #000000; stroke-width: 0.8"/>
      </g>
     </g>
     <g id="text_5">
      <!-- 200 -->
      <g transform="translate(106.85999 120.101004)scale(0.08 -0.08)">
       <defs>
        <path id="TimesNewRomanPSMT-32" d="M 2934 816 
L 2638 0 
L 138 0 
L 138 116 
Q 1241 1122 1691 1759 
Q 2141 2397 2141 2925 
Q 2141 3328 1894 3587 
Q 1647 3847 1303 3847 
Q 991 3847 742 3664 
Q 494 3481 375 3128 
L 259 3128 
Q 338 3706 661 4015 
Q 984 4325 1469 4325 
Q 1984 4325 2329 3994 
Q 2675 3663 2675 3213 
Q 2675 2891 2525 2569 
Q 2294 2063 1775 1497 
Q 997 647 803 472 
L 1909 472 
Q 2247 472 2383 497 
Q 2519 522 2628 598 
Q 2738 675 2819 816 
L 2934 816 
z
" transform="scale(0.015625)"/>
       </defs>
       <use xlink:href="#TimesNewRomanPSMT-32"/>
       <use xlink:href="#TimesNewRomanPSMT-30" x="50"/>
       <use xlink:href="#TimesNewRomanPSMT-30" x="100"/>
      </g>
     </g>
    </g>
    <g id="xtick_6">
     <g id="line2d_6">
      <g>
       <use xlink:href="#m729084702c" x="134.004675" y="107.546004" style="stroke: #000000; stroke-width: 0.8"/>
      </g>
     </g>
     <g id="text_6">
      <!-- 250 -->
      <g transform="translate(128.004675 120.101004)scale(0.08 -0.08)">
       <use xlink:href="#TimesNewRomanPSMT-32"/>
       <use xlink:href="#TimesNewRomanPSMT-35" x="50"/>
       <use xlink:href="#TimesNewRomanPSMT-30" x="100"/>
      </g>
     </g>
    </g>
    <g id="xtick_7">
     <g id="line2d_7">
      <g>
       <use xlink:href="#m729084702c" x="155.14936" y="107.546004" style="stroke: #000000; stroke-width: 0.8"/>
      </g>
     </g>
     <g id="text_7">
      <!-- 300 -->
      <g transform="translate(149.14936 120.101004)scale(0.08 -0.08)">
       <defs>
        <path id="TimesNewRomanPSMT-33" d="M 325 3431 
Q 506 3859 782 4092 
Q 1059 4325 1472 4325 
Q 1981 4325 2253 3994 
Q 2459 3747 2459 3466 
Q 2459 3003 1878 2509 
Q 2269 2356 2469 2072 
Q 2669 1788 2669 1403 
Q 2669 853 2319 450 
Q 1863 -75 997 -75 
Q 569 -75 414 31 
Q 259 138 259 259 
Q 259 350 332 419 
Q 406 488 509 488 
Q 588 488 669 463 
Q 722 447 909 348 
Q 1097 250 1169 231 
Q 1284 197 1416 197 
Q 1734 197 1970 444 
Q 2206 691 2206 1028 
Q 2206 1275 2097 1509 
Q 2016 1684 1919 1775 
Q 1784 1900 1550 2001 
Q 1316 2103 1072 2103 
L 972 2103 
L 972 2197 
Q 1219 2228 1467 2375 
Q 1716 2522 1828 2728 
Q 1941 2934 1941 3181 
Q 1941 3503 1739 3701 
Q 1538 3900 1238 3900 
Q 753 3900 428 3381 
L 325 3431 
z
" transform="scale(0.015625)"/>
       </defs>
       <use xlink:href="#TimesNewRomanPSMT-33"/>
       <use xlink:href="#TimesNewRomanPSMT-30" x="50"/>
       <use xlink:href="#TimesNewRomanPSMT-30" x="100"/>
      </g>
     </g>
    </g>
    <g id="xtick_8">
     <g id="line2d_8">
      <g>
       <use xlink:href="#m729084702c" x="176.294045" y="107.546004" style="stroke: #000000; stroke-width: 0.8"/>
      </g>
     </g>
     <g id="text_8">
      <!-- 350 -->
      <g transform="translate(170.294045 120.101004)scale(0.08 -0.08)">
       <use xlink:href="#TimesNewRomanPSMT-33"/>
       <use xlink:href="#TimesNewRomanPSMT-35" x="50"/>
       <use xlink:href="#TimesNewRomanPSMT-30" x="100"/>
      </g>
     </g>
    </g>
    <g id="xtick_9">
     <g id="line2d_9">
      <g>
       <use xlink:href="#m729084702c" x="197.43873" y="107.546004" style="stroke: #000000; stroke-width: 0.8"/>
      </g>
     </g>
     <g id="text_9">
      <!-- 400 -->
      <g transform="translate(191.43873 120.101004)scale(0.08 -0.08)">
       <defs>
        <path id="TimesNewRomanPSMT-34" d="M 2978 1563 
L 2978 1119 
L 2409 1119 
L 2409 0 
L 1894 0 
L 1894 1119 
L 100 1119 
L 100 1519 
L 2066 4325 
L 2409 4325 
L 2409 1563 
L 2978 1563 
z
M 1894 1563 
L 1894 3666 
L 406 1563 
L 1894 1563 
z
" transform="scale(0.015625)"/>
       </defs>
       <use xlink:href="#TimesNewRomanPSMT-34"/>
       <use xlink:href="#TimesNewRomanPSMT-30" x="50"/>
       <use xlink:href="#TimesNewRomanPSMT-30" x="100"/>
      </g>
     </g>
    </g>
    <g id="text_10">
     <!-- Epoch -->
     <g transform="translate(102.64124 131.367254)scale(0.08 -0.08)">
      <defs>
       <path id="TimesNewRomanPSMT-45" d="M 1338 4006 
L 1338 2331 
L 2269 2331 
Q 2631 2331 2753 2441 
Q 2916 2584 2934 2947 
L 3050 2947 
L 3050 1472 
L 2934 1472 
Q 2891 1781 2847 1869 
Q 2791 1978 2662 2040 
Q 2534 2103 2269 2103 
L 1338 2103 
L 1338 706 
Q 1338 425 1363 364 
Q 1388 303 1450 267 
Q 1513 231 1688 231 
L 2406 231 
Q 2766 231 2928 281 
Q 3091 331 3241 478 
Q 3434 672 3638 1063 
L 3763 1063 
L 3397 0 
L 131 0 
L 131 116 
L 281 116 
Q 431 116 566 188 
Q 666 238 702 338 
Q 738 438 738 747 
L 738 3500 
Q 738 3903 656 3997 
Q 544 4122 281 4122 
L 131 4122 
L 131 4238 
L 3397 4238 
L 3444 3309 
L 3322 3309 
Q 3256 3644 3176 3769 
Q 3097 3894 2941 3959 
Q 2816 4006 2500 4006 
L 1338 4006 
z
" transform="scale(0.015625)"/>
       <path id="TimesNewRomanPSMT-70" d="M -6 2578 
L 875 2934 
L 994 2934 
L 994 2266 
Q 1216 2644 1439 2795 
Q 1663 2947 1909 2947 
Q 2341 2947 2628 2609 
Q 2981 2197 2981 1534 
Q 2981 794 2556 309 
Q 2206 -88 1675 -88 
Q 1444 -88 1275 -22 
Q 1150 25 994 166 
L 994 -706 
Q 994 -1000 1030 -1079 
Q 1066 -1159 1155 -1206 
Q 1244 -1253 1478 -1253 
L 1478 -1369 
L -22 -1369 
L -22 -1253 
L 56 -1253 
Q 228 -1256 350 -1188 
Q 409 -1153 442 -1076 
Q 475 -1000 475 -688 
L 475 2019 
Q 475 2297 450 2372 
Q 425 2447 370 2484 
Q 316 2522 222 2522 
Q 147 2522 31 2478 
L -6 2578 
z
M 994 2081 
L 994 1013 
Q 994 666 1022 556 
Q 1066 375 1236 237 
Q 1406 100 1666 100 
Q 1978 100 2172 344 
Q 2425 663 2425 1241 
Q 2425 1897 2138 2250 
Q 1938 2494 1663 2494 
Q 1513 2494 1366 2419 
Q 1253 2363 994 2081 
z
" transform="scale(0.015625)"/>
       <path id="TimesNewRomanPSMT-6f" d="M 1600 2947 
Q 2250 2947 2644 2453 
Q 2978 2031 2978 1484 
Q 2978 1100 2793 706 
Q 2609 313 2286 112 
Q 1963 -88 1566 -88 
Q 919 -88 538 428 
Q 216 863 216 1403 
Q 216 1797 411 2186 
Q 606 2575 925 2761 
Q 1244 2947 1600 2947 
z
M 1503 2744 
Q 1338 2744 1170 2645 
Q 1003 2547 900 2300 
Q 797 2053 797 1666 
Q 797 1041 1045 587 
Q 1294 134 1700 134 
Q 2003 134 2200 384 
Q 2397 634 2397 1244 
Q 2397 2006 2069 2444 
Q 1847 2744 1503 2744 
z
" transform="scale(0.015625)"/>
       <path id="TimesNewRomanPSMT-63" d="M 2631 1088 
Q 2516 522 2178 217 
Q 1841 -88 1431 -88 
Q 944 -88 581 321 
Q 219 731 219 1428 
Q 219 2103 620 2525 
Q 1022 2947 1584 2947 
Q 2006 2947 2278 2723 
Q 2550 2500 2550 2259 
Q 2550 2141 2473 2067 
Q 2397 1994 2259 1994 
Q 2075 1994 1981 2113 
Q 1928 2178 1911 2362 
Q 1894 2547 1784 2644 
Q 1675 2738 1481 2738 
Q 1169 2738 978 2506 
Q 725 2200 725 1697 
Q 725 1184 976 792 
Q 1228 400 1656 400 
Q 1963 400 2206 609 
Q 2378 753 2541 1131 
L 2631 1088 
z
" transform="scale(0.015625)"/>
       <path id="TimesNewRomanPSMT-68" d="M 1041 4444 
L 1041 2350 
Q 1388 2731 1591 2839 
Q 1794 2947 1997 2947 
Q 2241 2947 2416 2812 
Q 2591 2678 2675 2391 
Q 2734 2191 2734 1659 
L 2734 647 
Q 2734 375 2778 275 
Q 2809 200 2884 156 
Q 2959 113 3159 113 
L 3159 0 
L 1753 0 
L 1753 113 
L 1819 113 
Q 2019 113 2097 173 
Q 2175 234 2206 353 
Q 2216 403 2216 647 
L 2216 1659 
Q 2216 2128 2167 2275 
Q 2119 2422 2012 2495 
Q 1906 2569 1756 2569 
Q 1603 2569 1437 2487 
Q 1272 2406 1041 2159 
L 1041 647 
Q 1041 353 1073 281 
Q 1106 209 1195 161 
Q 1284 113 1503 113 
L 1503 0 
L 84 0 
L 84 113 
Q 275 113 384 172 
Q 447 203 484 290 
Q 522 378 522 647 
L 522 3238 
Q 522 3728 498 3840 
Q 475 3953 426 3993 
Q 378 4034 297 4034 
Q 231 4034 84 3984 
L 41 4094 
L 897 4444 
L 1041 4444 
z
" transform="scale(0.015625)"/>
      </defs>
      <use xlink:href="#TimesNewRomanPSMT-45"/>
      <use xlink:href="#TimesNewRomanPSMT-70" x="61.083984"/>
      <use xlink:href="#TimesNewRomanPSMT-6f" x="111.083984"/>
      <use xlink:href="#TimesNewRomanPSMT-63" x="161.083984"/>
      <use xlink:href="#TimesNewRomanPSMT-68" x="205.46875"/>
     </g>
    </g>
   </g>
   <g id="matplotlib.axis_2">
    <g id="ytick_1">
     <g id="line2d_10">
      <defs>
       <path id="mc7806323bf" d="M 0 0 
L -3.5 0 
" style="stroke: #000000; stroke-width: 0.8"/>
      </defs>
      <g>
       <use xlink:href="#mc7806323bf" x="28.28125" y="107.546004" style="stroke: #000000; stroke-width: 0.8"/>
      </g>
     </g>
     <g id="text_11">
      <!-- 0.0 -->
      <g transform="translate(11.28125 110.323504)scale(0.08 -0.08)">
       <defs>
        <path id="TimesNewRomanPSMT-2e" d="M 800 606 
Q 947 606 1047 504 
Q 1147 403 1147 259 
Q 1147 116 1045 14 
Q 944 -88 800 -88 
Q 656 -88 554 14 
Q 453 116 453 259 
Q 453 406 554 506 
Q 656 606 800 606 
z
" transform="scale(0.015625)"/>
       </defs>
       <use xlink:href="#TimesNewRomanPSMT-30"/>
       <use xlink:href="#TimesNewRomanPSMT-2e" x="50"/>
       <use xlink:href="#TimesNewRomanPSMT-30" x="75"/>
      </g>
     </g>
    </g>
    <g id="ytick_2">
     <g id="line2d_11">
      <g>
       <use xlink:href="#mc7806323bf" x="28.28125" y="86.592303" style="stroke: #000000; stroke-width: 0.8"/>
      </g>
     </g>
     <g id="text_12">
      <!-- 0.2 -->
      <g transform="translate(11.28125 89.369803)scale(0.08 -0.08)">
       <use xlink:href="#TimesNewRomanPSMT-30"/>
       <use xlink:href="#TimesNewRomanPSMT-2e" x="50"/>
       <use xlink:href="#TimesNewRomanPSMT-32" x="75"/>
      </g>
     </g>
    </g>
    <g id="ytick_3">
     <g id="line2d_12">
      <g>
       <use xlink:href="#mc7806323bf" x="28.28125" y="65.638602" style="stroke: #000000; stroke-width: 0.8"/>
      </g>
     </g>
     <g id="text_13">
      <!-- 0.4 -->
      <g transform="translate(11.28125 68.416102)scale(0.08 -0.08)">
       <use xlink:href="#TimesNewRomanPSMT-30"/>
       <use xlink:href="#TimesNewRomanPSMT-2e" x="50"/>
       <use xlink:href="#TimesNewRomanPSMT-34" x="75"/>
      </g>
     </g>
    </g>
    <g id="ytick_4">
     <g id="line2d_13">
      <g>
       <use xlink:href="#mc7806323bf" x="28.28125" y="44.684902" style="stroke: #000000; stroke-width: 0.8"/>
      </g>
     </g>
     <g id="text_14">
      <!-- 0.6 -->
      <g transform="translate(11.28125 47.462402)scale(0.08 -0.08)">
       <defs>
        <path id="TimesNewRomanPSMT-36" d="M 2869 4325 
L 2869 4209 
Q 2456 4169 2195 4045 
Q 1934 3922 1679 3669 
Q 1425 3416 1258 3105 
Q 1091 2794 978 2366 
Q 1428 2675 1881 2675 
Q 2316 2675 2634 2325 
Q 2953 1975 2953 1425 
Q 2953 894 2631 456 
Q 2244 -75 1606 -75 
Q 1172 -75 869 213 
Q 275 772 275 1663 
Q 275 2231 503 2743 
Q 731 3256 1154 3653 
Q 1578 4050 1965 4187 
Q 2353 4325 2688 4325 
L 2869 4325 
z
M 925 2138 
Q 869 1716 869 1456 
Q 869 1156 980 804 
Q 1091 453 1309 247 
Q 1469 100 1697 100 
Q 1969 100 2183 356 
Q 2397 613 2397 1088 
Q 2397 1622 2184 2012 
Q 1972 2403 1581 2403 
Q 1463 2403 1327 2353 
Q 1191 2303 925 2138 
z
" transform="scale(0.015625)"/>
       </defs>
       <use xlink:href="#TimesNewRomanPSMT-30"/>
       <use xlink:href="#TimesNewRomanPSMT-2e" x="50"/>
       <use xlink:href="#TimesNewRomanPSMT-36" x="75"/>
      </g>
     </g>
    </g>
    <g id="ytick_5">
     <g id="line2d_14">
      <g>
       <use xlink:href="#mc7806323bf" x="28.28125" y="23.731201" style="stroke: #000000; stroke-width: 0.8"/>
      </g>
     </g>
     <g id="text_15">
      <!-- 0.8 -->
      <g transform="translate(11.28125 26.508701)scale(0.08 -0.08)">
       <defs>
        <path id="TimesNewRomanPSMT-38" d="M 1228 2134 
Q 725 2547 579 2797 
Q 434 3047 434 3316 
Q 434 3728 753 4026 
Q 1072 4325 1600 4325 
Q 2113 4325 2425 4047 
Q 2738 3769 2738 3413 
Q 2738 3175 2569 2928 
Q 2400 2681 1866 2347 
Q 2416 1922 2594 1678 
Q 2831 1359 2831 1006 
Q 2831 559 2490 242 
Q 2150 -75 1597 -75 
Q 994 -75 656 303 
Q 388 606 388 966 
Q 388 1247 577 1523 
Q 766 1800 1228 2134 
z
M 1719 2469 
Q 2094 2806 2194 3001 
Q 2294 3197 2294 3444 
Q 2294 3772 2109 3958 
Q 1925 4144 1606 4144 
Q 1288 4144 1088 3959 
Q 888 3775 888 3528 
Q 888 3366 970 3203 
Q 1053 3041 1206 2894 
L 1719 2469 
z
M 1375 2016 
Q 1116 1797 991 1539 
Q 866 1281 866 981 
Q 866 578 1086 336 
Q 1306 94 1647 94 
Q 1984 94 2187 284 
Q 2391 475 2391 747 
Q 2391 972 2272 1150 
Q 2050 1481 1375 2016 
z
" transform="scale(0.015625)"/>
       </defs>
       <use xlink:href="#TimesNewRomanPSMT-30"/>
       <use xlink:href="#TimesNewRomanPSMT-2e" x="50"/>
       <use xlink:href="#TimesNewRomanPSMT-38" x="75"/>
      </g>
     </g>
    </g>
    <g id="ytick_6">
     <g id="line2d_15">
      <g>
       <use xlink:href="#mc7806323bf" x="28.28125" y="2.7775" style="stroke: #000000; stroke-width: 0.8"/>
      </g>
     </g>
     <g id="text_16">
      <!-- 1.0 -->
      <g transform="translate(11.28125 5.555)scale(0.08 -0.08)">
       <use xlink:href="#TimesNewRomanPSMT-31"/>
       <use xlink:href="#TimesNewRomanPSMT-2e" x="50"/>
       <use xlink:href="#TimesNewRomanPSMT-30" x="75"/>
      </g>
     </g>
    </g>
    <g id="text_17">
     <!-- Average of qed values -->
     <g transform="translate(5.555 90.741127)rotate(-90)scale(0.08 -0.08)">
      <defs>
       <path id="TimesNewRomanPSMT-41" d="M 2928 1419 
L 1288 1419 
L 1000 750 
Q 894 503 894 381 
Q 894 284 986 211 
Q 1078 138 1384 116 
L 1384 0 
L 50 0 
L 50 116 
Q 316 163 394 238 
Q 553 388 747 847 
L 2238 4334 
L 2347 4334 
L 3822 809 
Q 4000 384 4145 257 
Q 4291 131 4550 116 
L 4550 0 
L 2878 0 
L 2878 116 
Q 3131 128 3220 200 
Q 3309 272 3309 375 
Q 3309 513 3184 809 
L 2928 1419 
z
M 2841 1650 
L 2122 3363 
L 1384 1650 
L 2841 1650 
z
" transform="scale(0.015625)"/>
       <path id="TimesNewRomanPSMT-76" d="M 53 2863 
L 1400 2863 
L 1400 2747 
L 1313 2747 
Q 1191 2747 1127 2687 
Q 1063 2628 1063 2528 
Q 1063 2419 1128 2269 
L 1794 688 
L 2463 2328 
Q 2534 2503 2534 2594 
Q 2534 2638 2509 2666 
Q 2475 2713 2422 2730 
Q 2369 2747 2206 2747 
L 2206 2863 
L 3141 2863 
L 3141 2747 
Q 2978 2734 2916 2681 
Q 2806 2588 2719 2369 
L 1703 -88 
L 1575 -88 
L 553 2328 
Q 484 2497 421 2570 
Q 359 2644 263 2694 
Q 209 2722 53 2747 
L 53 2863 
z
" transform="scale(0.015625)"/>
       <path id="TimesNewRomanPSMT-65" d="M 681 1784 
Q 678 1147 991 784 
Q 1303 422 1725 422 
Q 2006 422 2214 576 
Q 2422 731 2563 1106 
L 2659 1044 
Q 2594 616 2278 264 
Q 1963 -88 1488 -88 
Q 972 -88 605 314 
Q 238 716 238 1394 
Q 238 2128 614 2539 
Q 991 2950 1559 2950 
Q 2041 2950 2350 2633 
Q 2659 2316 2659 1784 
L 681 1784 
z
M 681 1966 
L 2006 1966 
Q 1991 2241 1941 2353 
Q 1863 2528 1708 2628 
Q 1553 2728 1384 2728 
Q 1125 2728 920 2526 
Q 716 2325 681 1966 
z
" transform="scale(0.015625)"/>
       <path id="TimesNewRomanPSMT-72" d="M 1038 2947 
L 1038 2303 
Q 1397 2947 1775 2947 
Q 1947 2947 2059 2842 
Q 2172 2738 2172 2600 
Q 2172 2478 2090 2393 
Q 2009 2309 1897 2309 
Q 1788 2309 1652 2417 
Q 1516 2525 1450 2525 
Q 1394 2525 1328 2463 
Q 1188 2334 1038 2041 
L 1038 669 
Q 1038 431 1097 309 
Q 1138 225 1241 169 
Q 1344 113 1538 113 
L 1538 0 
L 72 0 
L 72 113 
Q 291 113 397 181 
Q 475 231 506 341 
Q 522 394 522 644 
L 522 1753 
Q 522 2253 501 2348 
Q 481 2444 426 2487 
Q 372 2531 291 2531 
Q 194 2531 72 2484 
L 41 2597 
L 906 2947 
L 1038 2947 
z
" transform="scale(0.015625)"/>
       <path id="TimesNewRomanPSMT-61" d="M 1822 413 
Q 1381 72 1269 19 
Q 1100 -59 909 -59 
Q 613 -59 420 144 
Q 228 347 228 678 
Q 228 888 322 1041 
Q 450 1253 767 1440 
Q 1084 1628 1822 1897 
L 1822 2009 
Q 1822 2438 1686 2597 
Q 1550 2756 1291 2756 
Q 1094 2756 978 2650 
Q 859 2544 859 2406 
L 866 2225 
Q 866 2081 792 2003 
Q 719 1925 600 1925 
Q 484 1925 411 2006 
Q 338 2088 338 2228 
Q 338 2497 613 2722 
Q 888 2947 1384 2947 
Q 1766 2947 2009 2819 
Q 2194 2722 2281 2516 
Q 2338 2381 2338 1966 
L 2338 994 
Q 2338 584 2353 492 
Q 2369 400 2405 369 
Q 2441 338 2488 338 
Q 2538 338 2575 359 
Q 2641 400 2828 588 
L 2828 413 
Q 2478 -56 2159 -56 
Q 2006 -56 1915 50 
Q 1825 156 1822 413 
z
M 1822 616 
L 1822 1706 
Q 1350 1519 1213 1441 
Q 966 1303 859 1153 
Q 753 1003 753 825 
Q 753 600 887 451 
Q 1022 303 1197 303 
Q 1434 303 1822 616 
z
" transform="scale(0.015625)"/>
       <path id="TimesNewRomanPSMT-67" d="M 966 1044 
Q 703 1172 562 1401 
Q 422 1631 422 1909 
Q 422 2334 742 2640 
Q 1063 2947 1563 2947 
Q 1972 2947 2272 2747 
L 2878 2747 
Q 3013 2747 3034 2739 
Q 3056 2731 3066 2713 
Q 3084 2684 3084 2613 
Q 3084 2531 3069 2500 
Q 3059 2484 3036 2475 
Q 3013 2466 2878 2466 
L 2506 2466 
Q 2681 2241 2681 1891 
Q 2681 1491 2375 1206 
Q 2069 922 1553 922 
Q 1341 922 1119 984 
Q 981 866 932 777 
Q 884 688 884 625 
Q 884 572 936 522 
Q 988 472 1138 450 
Q 1225 438 1575 428 
Q 2219 413 2409 384 
Q 2700 344 2873 169 
Q 3047 -6 3047 -263 
Q 3047 -616 2716 -925 
Q 2228 -1381 1444 -1381 
Q 841 -1381 425 -1109 
Q 191 -953 191 -784 
Q 191 -709 225 -634 
Q 278 -519 444 -313 
Q 466 -284 763 25 
Q 600 122 533 198 
Q 466 275 466 372 
Q 466 481 555 628 
Q 644 775 966 1044 
z
M 1509 2797 
Q 1278 2797 1122 2612 
Q 966 2428 966 2047 
Q 966 1553 1178 1281 
Q 1341 1075 1591 1075 
Q 1828 1075 1981 1253 
Q 2134 1431 2134 1813 
Q 2134 2309 1919 2591 
Q 1759 2797 1509 2797 
z
M 934 0 
Q 788 -159 713 -296 
Q 638 -434 638 -550 
Q 638 -700 819 -813 
Q 1131 -1006 1722 -1006 
Q 2284 -1006 2551 -807 
Q 2819 -609 2819 -384 
Q 2819 -222 2659 -153 
Q 2497 -84 2016 -72 
Q 1313 -53 934 0 
z
" transform="scale(0.015625)"/>
       <path id="TimesNewRomanPSMT-20" transform="scale(0.015625)"/>
       <path id="TimesNewRomanPSMT-66" d="M 1319 2638 
L 1319 756 
Q 1319 356 1406 250 
Q 1522 113 1716 113 
L 1975 113 
L 1975 0 
L 266 0 
L 266 113 
L 394 113 
Q 519 113 622 175 
Q 725 238 764 344 
Q 803 450 803 756 
L 803 2638 
L 247 2638 
L 247 2863 
L 803 2863 
L 803 3050 
Q 803 3478 940 3775 
Q 1078 4072 1361 4255 
Q 1644 4438 1997 4438 
Q 2325 4438 2600 4225 
Q 2781 4084 2781 3909 
Q 2781 3816 2700 3733 
Q 2619 3650 2525 3650 
Q 2453 3650 2373 3701 
Q 2294 3753 2178 3923 
Q 2063 4094 1966 4153 
Q 1869 4213 1750 4213 
Q 1606 4213 1506 4136 
Q 1406 4059 1362 3898 
Q 1319 3738 1319 3069 
L 1319 2863 
L 2056 2863 
L 2056 2638 
L 1319 2638 
z
" transform="scale(0.015625)"/>
       <path id="TimesNewRomanPSMT-71" d="M 2734 2947 
L 2734 -734 
Q 2734 -1009 2771 -1087 
Q 2809 -1166 2889 -1209 
Q 2969 -1253 3200 -1253 
L 3200 -1369 
L 1756 -1369 
L 1756 -1253 
L 1816 -1253 
Q 1991 -1253 2081 -1203 
Q 2144 -1169 2181 -1080 
Q 2219 -991 2219 -734 
L 2219 497 
Q 1934 159 1721 35 
Q 1509 -88 1281 -88 
Q 866 -88 539 290 
Q 213 669 213 1303 
Q 213 2031 644 2489 
Q 1075 2947 1684 2947 
Q 1863 2947 2013 2897 
Q 2163 2847 2281 2747 
Q 2463 2834 2628 2947 
L 2734 2947 
z
M 2219 694 
L 2219 2038 
Q 2219 2272 2158 2406 
Q 2097 2541 1940 2634 
Q 1784 2728 1588 2728 
Q 1238 2728 988 2431 
Q 738 2134 738 1531 
Q 738 953 992 653 
Q 1247 353 1606 353 
Q 1791 353 1934 433 
Q 2078 513 2219 694 
z
" transform="scale(0.015625)"/>
       <path id="TimesNewRomanPSMT-64" d="M 2222 322 
Q 2013 103 1813 7 
Q 1613 -88 1381 -88 
Q 913 -88 563 304 
Q 213 697 213 1313 
Q 213 1928 600 2439 
Q 988 2950 1597 2950 
Q 1975 2950 2222 2709 
L 2222 3238 
Q 2222 3728 2198 3840 
Q 2175 3953 2125 3993 
Q 2075 4034 2000 4034 
Q 1919 4034 1784 3984 
L 1744 4094 
L 2597 4444 
L 2738 4444 
L 2738 1134 
Q 2738 631 2761 520 
Q 2784 409 2836 365 
Q 2888 322 2956 322 
Q 3041 322 3181 375 
L 3216 266 
L 2366 -88 
L 2222 -88 
L 2222 322 
z
M 2222 541 
L 2222 2016 
Q 2203 2228 2109 2403 
Q 2016 2578 1861 2667 
Q 1706 2756 1559 2756 
Q 1284 2756 1069 2509 
Q 784 2184 784 1559 
Q 784 928 1059 592 
Q 1334 256 1672 256 
Q 1956 256 2222 541 
z
" transform="scale(0.015625)"/>
       <path id="TimesNewRomanPSMT-6c" d="M 1184 4444 
L 1184 647 
Q 1184 378 1223 290 
Q 1263 203 1344 158 
Q 1425 113 1647 113 
L 1647 0 
L 244 0 
L 244 113 
Q 441 113 512 153 
Q 584 194 625 287 
Q 666 381 666 647 
L 666 3247 
Q 666 3731 644 3842 
Q 622 3953 573 3993 
Q 525 4034 450 4034 
Q 369 4034 244 3984 
L 191 4094 
L 1044 4444 
L 1184 4444 
z
" transform="scale(0.015625)"/>
       <path id="TimesNewRomanPSMT-75" d="M 2709 2863 
L 2709 1128 
Q 2709 631 2732 520 
Q 2756 409 2807 365 
Q 2859 322 2928 322 
Q 3025 322 3147 375 
L 3191 266 
L 2334 -88 
L 2194 -88 
L 2194 519 
Q 1825 119 1631 15 
Q 1438 -88 1222 -88 
Q 981 -88 804 51 
Q 628 191 559 409 
Q 491 628 491 1028 
L 491 2306 
Q 491 2509 447 2587 
Q 403 2666 317 2708 
Q 231 2750 6 2747 
L 6 2863 
L 1009 2863 
L 1009 947 
Q 1009 547 1148 422 
Q 1288 297 1484 297 
Q 1619 297 1789 381 
Q 1959 466 2194 703 
L 2194 2325 
Q 2194 2569 2105 2655 
Q 2016 2741 1734 2747 
L 1734 2863 
L 2709 2863 
z
" transform="scale(0.015625)"/>
       <path id="TimesNewRomanPSMT-73" d="M 2050 2947 
L 2050 1972 
L 1947 1972 
Q 1828 2431 1642 2597 
Q 1456 2763 1169 2763 
Q 950 2763 815 2647 
Q 681 2531 681 2391 
Q 681 2216 781 2091 
Q 878 1963 1175 1819 
L 1631 1597 
Q 2266 1288 2266 781 
Q 2266 391 1970 151 
Q 1675 -88 1309 -88 
Q 1047 -88 709 6 
Q 606 38 541 38 
Q 469 38 428 -44 
L 325 -44 
L 325 978 
L 428 978 
Q 516 541 762 319 
Q 1009 97 1316 97 
Q 1531 97 1667 223 
Q 1803 350 1803 528 
Q 1803 744 1651 891 
Q 1500 1038 1047 1263 
Q 594 1488 453 1669 
Q 313 1847 313 2119 
Q 313 2472 555 2709 
Q 797 2947 1181 2947 
Q 1350 2947 1591 2875 
Q 1750 2828 1803 2828 
Q 1853 2828 1881 2850 
Q 1909 2872 1947 2947 
L 2050 2947 
z
" transform="scale(0.015625)"/>
      </defs>
      <use xlink:href="#TimesNewRomanPSMT-41"/>
      <use xlink:href="#TimesNewRomanPSMT-76" x="64.841797"/>
      <use xlink:href="#TimesNewRomanPSMT-65" x="114.841797"/>
      <use xlink:href="#TimesNewRomanPSMT-72" x="159.226562"/>
      <use xlink:href="#TimesNewRomanPSMT-61" x="192.527344"/>
      <use xlink:href="#TimesNewRomanPSMT-67" x="236.912109"/>
      <use xlink:href="#TimesNewRomanPSMT-65" x="286.912109"/>
      <use xlink:href="#TimesNewRomanPSMT-20" x="331.296875"/>
      <use xlink:href="#TimesNewRomanPSMT-6f" x="356.296875"/>
      <use xlink:href="#TimesNewRomanPSMT-66" x="406.296875"/>
      <use xlink:href="#TimesNewRomanPSMT-20" x="439.597656"/>
      <use xlink:href="#TimesNewRomanPSMT-71" x="464.597656"/>
      <use xlink:href="#TimesNewRomanPSMT-65" x="514.597656"/>
      <use xlink:href="#TimesNewRomanPSMT-64" x="558.982422"/>
      <use xlink:href="#TimesNewRomanPSMT-20" x="608.982422"/>
      <use xlink:href="#TimesNewRomanPSMT-76" x="633.982422"/>
      <use xlink:href="#TimesNewRomanPSMT-61" x="683.982422"/>
      <use xlink:href="#TimesNewRomanPSMT-6c" x="728.367188"/>
      <use xlink:href="#TimesNewRomanPSMT-75" x="756.150391"/>
      <use xlink:href="#TimesNewRomanPSMT-65" x="806.150391"/>
      <use xlink:href="#TimesNewRomanPSMT-73" x="850.535156"/>
     </g>
    </g>
   </g>
   <g id="line2d_16">
    <path d="M 28.28125 73.495895 
L 28.704144 70.720169 
L 29.127037 68.778753 
L 29.549931 77.204047 
L 29.972825 72.92029 
L 30.395719 73.833807 
L 30.818612 76.432196 
L 31.241506 73.569261 
L 31.6644 79.220749 
L 32.087293 76.784101 
L 32.510187 72.867656 
L 32.933081 79.1076 
L 33.355974 71.85829 
L 33.778868 81.19543 
L 34.201762 74.921195 
L 34.624656 74.299519 
L 35.047549 80.658023 
L 35.470443 70.584154 
L 36.31623 77.564771 
L 36.739124 79.283659 
L 37.162018 72.07695 
L 37.584911 78.802024 
L 38.007805 76.307984 
L 38.430699 69.746388 
L 38.853593 74.810101 
L 39.276486 84.512924 
L 39.69938 78.733995 
L 40.545167 72.131598 
L 40.968061 80.173234 
L 41.390955 73.958591 
L 41.813848 77.383323 
L 42.236742 74.980167 
L 42.659636 76.739424 
L 43.08253 74.787829 
L 43.928317 72.970708 
L 44.351211 71.058913 
L 44.774104 87.328125 
L 45.196998 79.764544 
L 46.042785 74.432808 
L 46.465679 77.402137 
L 46.888573 73.49761 
L 47.311467 79.318829 
L 47.73436 77.324105 
L 48.157254 72.358734 
L 48.580148 69.303151 
L 49.003041 71.409687 
L 49.425935 80.811551 
L 49.848829 67.332015 
L 50.271722 71.169575 
L 50.694616 81.924721 
L 51.11751 75.685244 
L 51.540404 74.503343 
L 51.963297 78.138627 
L 52.386191 74.248784 
L 52.809085 76.832482 
L 53.231978 75.25517 
L 54.077766 73.694649 
L 54.500659 74.33105 
L 54.923553 71.02339 
L 55.346447 75.912592 
L 55.769341 65.681599 
L 56.192234 69.522651 
L 56.615128 70.683351 
L 57.038022 75.022697 
L 57.460915 68.565128 
L 57.883809 70.615775 
L 58.306703 85.18395 
L 58.729596 78.147198 
L 59.15249 77.916615 
L 59.575384 77.55423 
L 59.998278 79.56728 
L 60.421171 76.1528 
L 60.844065 75.008598 
L 61.266959 76.282912 
L 61.689852 76.37393 
L 62.112746 74.710723 
L 62.53564 74.009087 
L 62.958533 71.470835 
L 63.804321 77.65416 
L 64.227215 78.446732 
L 64.650108 77.722511 
L 65.073002 66.45015 
L 65.918789 74.008396 
L 66.341683 74.036468 
L 66.764577 70.781913 
L 67.18747 69.734453 
L 67.610364 65.589159 
L 68.033258 71.764944 
L 68.456152 75.281702 
L 68.879045 71.054477 
L 69.301939 73.954515 
L 69.724833 67.486649 
L 70.147726 67.428562 
L 70.57062 66.480058 
L 70.993514 66.084335 
L 71.416407 67.952245 
L 71.839301 71.768559 
L 72.262195 70.555269 
L 72.685089 66.692364 
L 73.107982 71.373884 
L 73.530876 66.969208 
L 73.95377 64.565193 
L 74.376663 69.19966 
L 74.799557 79.486558 
L 75.222451 69.75528 
L 75.645344 68.276507 
L 76.068238 72.016938 
L 76.491132 70.253699 
L 76.914026 66.816954 
L 77.336919 71.248596 
L 77.759813 66.613933 
L 78.182707 63.891395 
L 78.6056 70.379024 
L 79.028494 68.804026 
L 79.451388 69.357701 
L 79.874281 67.618643 
L 80.720069 73.372002 
L 81.142963 65.408642 
L 81.565856 66.764496 
L 81.98875 58.407313 
L 82.411644 61.123825 
L 82.834537 73.719887 
L 83.257431 71.385959 
L 83.680325 72.833439 
L 84.103219 70.575647 
L 84.526112 74.881326 
L 84.949006 63.521259 
L 85.3719 66.091874 
L 85.794793 67.912905 
L 86.217687 70.249044 
L 86.640581 64.956326 
L 87.063474 66.664676 
L 87.486368 60.566009 
L 87.909262 63.410598 
L 88.332156 67.393217 
L 88.755049 57.994207 
L 89.177943 67.850358 
L 89.600837 71.562064 
L 90.02373 62.380049 
L 90.446624 67.603883 
L 90.869518 69.073266 
L 91.715305 61.240874 
L 92.138199 66.624835 
L 92.561093 63.357961 
L 92.983986 63.435996 
L 93.40688 67.35882 
L 93.829774 62.725174 
L 94.252667 60.877202 
L 94.675561 65.247446 
L 95.098455 57.455481 
L 95.521348 68.894209 
L 95.944242 63.786051 
L 96.367136 63.542736 
L 96.79003 70.252623 
L 97.212923 60.645574 
L 97.635817 67.93075 
L 98.058711 63.463014 
L 98.481604 65.931542 
L 98.904498 64.951743 
L 99.327392 60.665927 
L 99.750285 60.694097 
L 100.173179 64.902812 
L 100.596073 65.87169 
L 101.018967 60.773357 
L 101.44186 61.807931 
L 101.864754 65.329858 
L 102.287648 66.340692 
L 102.710541 61.317107 
L 103.133435 63.51549 
L 103.556329 62.76822 
L 103.979222 55.154263 
L 104.82501 62.118518 
L 105.247904 57.570337 
L 105.670797 58.716463 
L 106.093691 62.240127 
L 106.516585 59.90143 
L 106.939478 64.089286 
L 107.362372 59.487391 
L 108.208159 66.670813 
L 108.631053 54.97507 
L 109.053947 63.664145 
L 109.476841 63.111563 
L 109.899734 64.328322 
L 110.322628 60.820964 
L 110.745522 54.79019 
L 111.168415 67.746472 
L 111.591309 58.536672 
L 112.014203 63.197634 
L 112.437096 60.332755 
L 112.85999 58.812992 
L 113.282884 60.978913 
L 113.705778 57.116766 
L 114.128671 54.58318 
L 114.551565 67.621297 
L 115.397352 55.836303 
L 115.820246 58.056706 
L 116.24314 57.744888 
L 116.666033 55.635752 
L 117.088927 59.727022 
L 117.511821 57.14709 
L 117.934715 59.503582 
L 118.357608 64.102258 
L 118.780502 57.22889 
L 119.203396 59.307978 
L 119.626289 58.771055 
L 120.049183 58.892967 
L 120.472077 57.950843 
L 120.89497 59.787258 
L 121.317864 58.414396 
L 122.163652 53.090875 
L 122.586545 60.460508 
L 123.009439 60.195428 
L 123.432333 55.416097 
L 124.27812 61.781752 
L 124.701014 55.849234 
L 125.123907 57.957441 
L 125.546801 58.927079 
L 125.969695 57.850357 
L 126.392589 57.265379 
L 126.815482 54.981316 
L 127.238376 54.98912 
L 127.66127 60.365558 
L 128.084163 48.690119 
L 128.507057 55.66326 
L 128.929951 58.577151 
L 129.352844 58.714286 
L 130.198632 52.771299 
L 130.621526 53.082951 
L 131.044419 54.773547 
L 131.467313 57.660019 
L 131.890207 55.286136 
L 132.3131 57.885517 
L 132.735994 56.089489 
L 133.158888 61.67701 
L 133.581781 52.579207 
L 134.004675 53.938884 
L 134.427569 59.251502 
L 134.850463 52.190125 
L 135.273356 54.358935 
L 135.69625 57.573571 
L 136.119144 53.521555 
L 136.542037 52.001774 
L 136.964931 55.666476 
L 137.387825 53.371413 
L 137.810719 54.052643 
L 138.656506 60.588859 
L 139.0794 55.010509 
L 139.502293 57.984185 
L 139.925187 50.813356 
L 140.348081 55.110381 
L 140.770974 56.020247 
L 141.193868 57.807423 
L 142.039656 51.956788 
L 142.462549 61.639197 
L 143.308337 51.10747 
L 143.73123 55.255378 
L 144.154124 55.292295 
L 144.577018 59.44336 
L 145.422805 50.620182 
L 145.845699 53.742973 
L 146.268593 52.455416 
L 146.691486 52.664909 
L 147.11438 56.747569 
L 147.960167 52.921576 
L 148.383061 59.201402 
L 148.805955 60.031832 
L 149.228848 52.359739 
L 149.651742 47.844296 
L 150.074636 48.616209 
L 150.49753 50.2704 
L 150.920423 54.927575 
L 151.343317 58.132127 
L 151.766211 57.445986 
L 152.189104 50.314319 
L 152.611998 47.895472 
L 153.034892 51.068935 
L 153.457785 51.717947 
L 153.880679 53.050699 
L 154.303573 49.058679 
L 155.14936 51.626593 
L 155.572254 48.998267 
L 155.995148 49.007847 
L 156.418041 50.922943 
L 156.840935 49.701538 
L 157.263829 56.994992 
L 157.686722 56.12572 
L 158.109616 55.998709 
L 158.53251 54.877637 
L 158.955404 48.037718 
L 159.801191 55.968938 
L 160.224085 51.812087 
L 160.646978 51.21488 
L 161.069872 51.638364 
L 161.492766 51.43572 
L 161.915659 47.821397 
L 162.338553 54.775101 
L 162.761447 53.974897 
L 163.184341 50.721687 
L 163.607234 49.781825 
L 164.030128 56.413803 
L 164.453022 51.770678 
L 164.875915 54.339605 
L 165.298809 49.059078 
L 165.721703 50.974356 
L 166.144596 47.631692 
L 166.56749 53.648305 
L 166.990384 49.293964 
L 167.413278 48.434006 
L 167.836171 53.789689 
L 168.259065 47.906629 
L 168.681959 50.337292 
L 169.104852 51.659398 
L 169.527746 49.426604 
L 169.95064 45.584644 
L 170.373533 48.109601 
L 170.796427 48.444236 
L 171.219321 50.688333 
L 171.642215 49.706166 
L 172.065108 51.765694 
L 172.488002 49.016443 
L 172.910896 52.738853 
L 173.756683 47.596013 
L 174.179577 50.855591 
L 174.60247 50.465493 
L 175.025364 51.064898 
L 175.448258 49.847039 
L 175.871152 49.361111 
L 176.294045 48.079232 
L 176.716939 51.427791 
L 177.139833 48.576326 
L 177.562726 51.542735 
L 177.98562 46.853915 
L 178.408514 50.898699 
L 178.831407 47.330661 
L 179.254301 46.940152 
L 179.677195 49.736547 
L 180.100089 47.319547 
L 180.522982 47.248822 
L 180.945876 49.087737 
L 181.36877 47.953011 
L 181.791663 52.868855 
L 182.214557 51.15983 
L 182.637451 48.050816 
L 183.060344 46.882114 
L 183.483238 47.622613 
L 183.906132 51.17916 
L 184.329026 49.545784 
L 185.174813 48.742996 
L 185.597707 50.095256 
L 186.0206 46.25886 
L 186.443494 49.268278 
L 186.866388 48.857158 
L 187.289281 50.998561 
L 187.712175 47.262193 
L 188.135069 46.739871 
L 188.557963 52.078082 
L 188.980856 47.790537 
L 189.40375 48.748877 
L 189.826644 48.724292 
L 190.672431 46.708099 
L 191.095325 45.578765 
L 191.518219 49.218196 
L 191.941112 46.072112 
L 192.364006 45.404808 
L 192.7869 47.808226 
L 193.209793 49.32419 
L 193.632687 46.535228 
L 194.055581 47.471034 
L 194.478474 47.966381 
L 194.901368 44.600848 
L 195.324262 48.435509 
L 195.747156 47.415212 
L 196.170049 48.241886 
L 196.592943 47.612371 
L 197.015837 48.839898 
L 197.015837 48.839898 
" clip-path="url(#p83870976b8)" style="fill: none; stroke: #0000ff; stroke-width: 0.5; stroke-linecap: square"/>
   </g>
   <g id="line2d_17">
    <path d="M 28.28125 69.787326 
L 28.704144 80.641647 
L 29.127037 81.168072 
L 29.972825 69.109181 
L 30.395719 72.618093 
L 30.818612 71.216034 
L 31.241506 69.340152 
L 31.6644 73.588767 
L 32.510187 64.728107 
L 32.933081 73.094663 
L 33.355974 71.3464 
L 33.778868 70.898898 
L 34.201762 64.729446 
L 34.624656 67.000416 
L 35.047549 60.288893 
L 35.470443 68.915693 
L 35.893337 67.050549 
L 36.31623 61.6585 
L 36.739124 59.322035 
L 37.162018 58.343647 
L 37.584911 59.823695 
L 38.007805 64.748382 
L 38.430699 56.618537 
L 38.853593 64.565102 
L 39.276486 66.54404 
L 39.69938 66.423809 
L 40.122274 64.58451 
L 40.545167 63.908367 
L 40.968061 69.535052 
L 41.390955 58.26115 
L 41.813848 62.752877 
L 42.236742 63.164776 
L 42.659636 62.647641 
L 43.08253 58.207361 
L 43.505423 61.513582 
L 43.928317 57.79325 
L 44.351211 60.657606 
L 44.774104 60.656619 
L 45.196998 62.86536 
L 45.619892 56.579821 
L 46.042785 52.70416 
L 46.465679 61.433025 
L 46.888573 62.666374 
L 47.311467 60.348651 
L 47.73436 61.820596 
L 48.157254 55.386993 
L 48.580148 56.218774 
L 49.003041 62.626156 
L 49.425935 60.172148 
L 49.848829 51.572986 
L 50.271722 58.83933 
L 51.11751 56.406561 
L 51.540404 53.25328 
L 51.963297 62.053296 
L 52.386191 57.210517 
L 52.809085 60.691885 
L 53.231978 59.115172 
L 53.654872 64.145674 
L 54.077766 56.489921 
L 54.500659 53.536711 
L 54.923553 53.885072 
L 55.346447 62.62294 
L 55.769341 53.156603 
L 56.192234 56.01582 
L 56.615128 56.636536 
L 57.038022 53.300349 
L 57.460915 52.318415 
L 57.883809 54.750119 
L 58.729596 57.808269 
L 59.15249 58.323523 
L 59.575384 62.043397 
L 59.998278 52.669284 
L 60.421171 54.115097 
L 60.844065 54.256895 
L 61.266959 56.302206 
L 61.689852 50.295094 
L 62.112746 53.186668 
L 62.53564 61.618504 
L 62.958533 54.561024 
L 63.381427 58.492592 
L 63.804321 48.561774 
L 64.227215 58.066845 
L 64.650108 50.900235 
L 65.073002 53.656408 
L 65.495896 58.840883 
L 65.918789 51.917644 
L 66.341683 51.130744 
L 66.764577 51.474876 
L 67.610364 54.090864 
L 68.033258 58.322196 
L 68.456152 54.970276 
L 68.879045 56.294537 
L 69.301939 55.420461 
L 69.724833 49.459257 
L 70.147726 57.265263 
L 70.57062 53.270954 
L 70.993514 51.261697 
L 71.416407 52.963228 
L 71.839301 46.443549 
L 72.262195 53.264666 
L 72.685089 53.437065 
L 73.107982 54.998401 
L 73.530876 49.857423 
L 73.95377 50.573695 
L 74.376663 55.517394 
L 74.799557 45.112826 
L 75.222451 58.758632 
L 76.068238 49.853215 
L 76.491132 51.563019 
L 76.914026 50.479311 
L 77.336919 50.028005 
L 77.759813 47.766707 
L 78.182707 50.164317 
L 78.6056 53.25843 
L 79.028494 51.391855 
L 79.451388 54.655497 
L 79.874281 50.53584 
L 80.297175 44.537394 
L 80.720069 54.387556 
L 81.142963 53.348096 
L 81.565856 46.437016 
L 81.98875 46.768129 
L 82.834537 51.268403 
L 83.257431 52.37151 
L 83.680325 49.083137 
L 84.103219 49.639043 
L 84.526112 48.186668 
L 84.949006 50.467311 
L 85.3719 45.39339 
L 85.794793 57.671117 
L 86.217687 46.773843 
L 86.640581 49.605859 
L 87.063474 50.798412 
L 87.909262 49.18672 
L 88.332156 46.530781 
L 88.755049 48.600383 
L 89.177943 53.686538 
L 89.600837 49.164648 
L 90.02373 46.790716 
L 90.446624 43.379217 
L 90.869518 46.715495 
L 91.292411 44.703508 
L 91.715305 47.748064 
L 92.138199 44.391349 
L 92.561093 50.951016 
L 93.40688 48.263961 
L 93.829774 42.389021 
L 94.252667 45.219659 
L 94.675561 43.717416 
L 95.098455 45.782526 
L 95.521348 42.921317 
L 95.944242 47.856962 
L 96.367136 42.486564 
L 96.79003 50.68358 
L 97.212923 45.071406 
L 97.635817 46.312507 
L 98.058711 49.287217 
L 98.481604 40.734143 
L 98.904498 44.412632 
L 99.327392 44.986824 
L 99.750285 42.032327 
L 100.173179 45.625364 
L 100.596073 51.904702 
L 101.018967 43.607394 
L 101.44186 42.35671 
L 101.864754 45.277109 
L 102.287648 44.908981 
L 102.710541 46.04448 
L 103.133435 41.203019 
L 103.556329 49.812968 
L 103.979222 39.4739 
L 104.402116 46.891207 
L 104.82501 47.94666 
L 105.247904 39.838174 
L 106.093691 45.112996 
L 106.516585 39.636675 
L 106.939478 43.339503 
L 107.362372 42.383232 
L 107.785266 41.861842 
L 108.208159 41.980349 
L 108.631053 42.411928 
L 109.053947 44.450161 
L 109.476841 43.452221 
L 109.899734 45.309083 
L 110.322628 50.176545 
L 110.745522 38.85344 
L 111.168415 41.782668 
L 111.591309 40.363864 
L 112.437096 44.734412 
L 112.85999 38.838429 
L 113.282884 34.692687 
L 113.705778 42.286013 
L 114.128671 36.71883 
L 114.551565 44.422316 
L 114.974459 42.369725 
L 115.397352 41.155569 
L 115.820246 38.104943 
L 116.24314 41.452007 
L 117.088927 37.949007 
L 117.934715 42.925012 
L 118.357608 42.63601 
L 118.780502 35.208188 
L 119.203396 38.478298 
L 119.626289 40.484052 
L 120.049183 41.671351 
L 120.472077 37.85856 
L 120.89497 38.707915 
L 121.317864 40.126285 
L 121.740758 36.329941 
L 122.163652 36.036129 
L 122.586545 40.89686 
L 123.009439 38.629797 
L 123.432333 41.679781 
L 123.855226 35.383832 
L 124.27812 36.983401 
L 124.701014 33.183094 
L 125.123907 35.343151 
L 125.546801 41.826398 
L 125.969695 33.882621 
L 126.392589 35.31174 
L 126.815482 39.77815 
L 127.238376 38.970028 
L 127.66127 34.208083 
L 128.084163 35.207754 
L 128.507057 31.452836 
L 128.929951 34.565688 
L 129.352844 38.762503 
L 129.775738 38.971261 
L 130.198632 38.162493 
L 130.621526 36.660167 
L 131.467313 38.108598 
L 131.890207 34.021634 
L 132.3131 39.590946 
L 132.735994 31.393486 
L 133.158888 34.781583 
L 133.581781 32.187088 
L 134.004675 35.411815 
L 134.427569 36.164997 
L 134.850463 35.676644 
L 135.273356 33.980125 
L 136.119144 32.617373 
L 136.964931 37.401774 
L 137.810719 34.318783 
L 138.233612 31.606838 
L 138.656506 37.509004 
L 139.0794 37.503356 
L 139.502293 31.693664 
L 139.925187 30.114082 
L 140.770974 39.983113 
L 141.193868 33.216899 
L 141.616762 35.298752 
L 142.039656 32.219974 
L 142.462549 31.534944 
L 142.885443 34.219007 
L 143.308337 33.667467 
L 143.73123 32.048576 
L 144.154124 33.975509 
L 144.577018 34.020944 
L 144.999911 32.970741 
L 145.422805 30.111173 
L 145.845699 32.880164 
L 146.268593 34.50711 
L 146.691486 28.358387 
L 147.11438 35.431531 
L 147.537274 30.139221 
L 147.960167 31.725498 
L 148.805955 33.380089 
L 149.228848 31.131621 
L 150.074636 28.085002 
L 150.49753 34.698466 
L 150.920423 31.605773 
L 151.343317 31.079976 
L 151.766211 31.756632 
L 152.189104 29.682038 
L 152.611998 29.694434 
L 153.034892 30.270946 
L 153.457785 32.874112 
L 153.880679 26.892761 
L 154.303573 28.979017 
L 154.726467 32.90992 
L 155.572254 27.874228 
L 155.995148 31.372044 
L 156.418041 28.466942 
L 156.840935 30.290404 
L 157.263829 32.753134 
L 157.686722 29.411972 
L 158.109616 30.376373 
L 158.53251 28.176361 
L 158.955404 30.70116 
L 159.378297 32.324807 
L 160.224085 28.891735 
L 160.646978 32.397224 
L 161.069872 27.421134 
L 161.492766 27.990626 
L 161.915659 29.259603 
L 162.338553 31.961915 
L 162.761447 31.034903 
L 163.184341 27.939445 
L 163.607234 30.385407 
L 164.030128 28.978221 
L 164.453022 31.479573 
L 164.875915 30.159359 
L 165.298809 29.738071 
L 165.721703 27.950558 
L 166.144596 31.951721 
L 166.56749 28.34825 
L 166.990384 28.89629 
L 167.413278 27.77299 
L 167.836171 29.48975 
L 168.681959 29.717085 
L 169.104852 27.81111 
L 169.527746 27.467798 
L 169.95064 27.851514 
L 170.373533 27.29206 
L 170.796427 27.662961 
L 171.219321 29.380335 
L 171.642215 27.717137 
L 172.065108 27.014682 
L 172.488002 30.460468 
L 172.910896 28.550438 
L 173.756683 27.008501 
L 174.179577 26.684773 
L 174.60247 29.145794 
L 175.025364 28.327174 
L 175.448258 30.178346 
L 175.871152 26.958403 
L 176.716939 30.337396 
L 177.139833 26.318196 
L 177.562726 29.506846 
L 177.98562 27.739364 
L 178.408514 26.724424 
L 178.831407 27.645038 
L 179.254301 26.738461 
L 179.677195 27.357177 
L 180.100089 27.733517 
L 180.522982 27.542017 
L 180.945876 26.535743 
L 181.36877 27.755443 
L 181.791663 30.704229 
L 182.214557 26.658774 
L 182.637451 27.503334 
L 183.060344 27.694572 
L 183.483238 27.006091 
L 184.329026 27.215723 
L 184.751919 26.64482 
L 185.174813 28.78417 
L 185.597707 27.654748 
L 186.0206 27.759978 
L 186.866388 26.622817 
L 187.712175 28.356389 
L 188.135069 27.138997 
L 188.557963 27.637004 
L 188.980856 27.697661 
L 189.40375 26.777751 
L 189.826644 28.537709 
L 191.095325 26.194171 
L 191.518219 27.23272 
L 191.941112 26.071623 
L 192.364006 26.465563 
L 192.7869 27.526753 
L 193.209793 27.385874 
L 193.632687 26.378978 
L 194.055581 28.016145 
L 194.478474 27.33836 
L 194.901368 27.851375 
L 195.324262 27.002813 
L 195.747156 25.778567 
L 196.592943 28.03659 
L 197.015837 25.983802 
L 197.015837 25.983802 
" clip-path="url(#p83870976b8)" style="fill: none; stroke: #008000; stroke-width: 0.5; stroke-linecap: square"/>
   </g>
   <g id="line2d_18">
    <path d="M 28.28125 73.495895 
L 28.704144 106.152047 
L 29.127037 106.302273 
L 29.549931 104.878581 
L 29.972825 106.48363 
L 30.395719 106.155179 
L 30.818612 105.357651 
L 31.241506 101.706888 
L 31.6644 106.898452 
L 32.087293 106.443471 
L 32.510187 107.520972 
L 32.933081 106.415548 
L 33.355974 106.790234 
L 33.778868 106.287658 
L 34.201762 106.059572 
L 34.624656 106.230234 
L 35.047549 107.546004 
L 35.470443 105.830574 
L 35.893337 106.119463 
L 36.31623 107.35766 
L 36.739124 105.207222 
L 37.162018 106.950801 
L 38.007805 106.685355 
L 38.430699 105.998118 
L 38.853593 106.106893 
L 39.276486 105.099727 
L 39.69938 106.505345 
L 40.545167 107.334164 
L 40.968061 107.523458 
L 41.390955 107.546004 
L 41.813848 106.092643 
L 42.236742 106.939342 
L 43.505423 107.415228 
L 43.928317 106.713585 
L 44.351211 107.467673 
L 44.774104 107.050892 
L 45.196998 107.330781 
L 46.042785 107.39693 
L 46.888573 107.291946 
L 47.311467 107.319669 
L 47.73436 106.8688 
L 48.580148 107.328281 
L 49.003041 106.84652 
L 50.271722 107.499506 
L 50.694616 107.326296 
L 51.11751 107.458461 
L 51.963297 107.342843 
L 52.809085 106.012898 
L 53.231978 107.326515 
L 54.077766 107.412972 
L 54.500659 107.381405 
L 54.923553 107.546004 
L 55.346447 107.406271 
L 55.769341 107.546004 
L 56.192234 106.228737 
L 56.615128 107.190907 
L 57.038022 107.470715 
L 57.460915 107.084058 
L 58.306703 107.523794 
L 58.729596 107.231752 
L 59.15249 107.387172 
L 59.575384 107.096451 
L 59.998278 107.429206 
L 60.844065 107.444033 
L 61.266959 107.330643 
L 61.689852 107.399938 
L 62.112746 107.174137 
L 62.53564 107.523619 
L 62.958533 107.280935 
L 63.381427 107.518915 
L 63.804321 107.318747 
L 64.227215 107.463043 
L 64.650108 107.397987 
L 65.073002 107.486939 
L 65.495896 107.236984 
L 65.918789 107.49063 
L 67.18747 107.450156 
L 68.033258 107.332284 
L 68.879045 107.518958 
L 69.724833 107.303291 
L 70.57062 107.464072 
L 70.993514 107.546004 
L 71.839301 107.481178 
L 72.685089 107.501217 
L 73.530876 107.350798 
L 76.491132 107.507167 
L 76.914026 107.511417 
L 77.759813 107.383237 
L 78.182707 107.425209 
L 78.6056 107.311 
L 79.028494 107.546004 
L 79.451388 107.546004 
L 79.874281 107.347098 
L 80.297175 106.20143 
L 80.720069 107.224061 
L 81.142963 107.546004 
L 81.98875 107.470115 
L 82.411644 106.650061 
L 82.834537 107.546004 
L 83.680325 107.390911 
L 84.103219 107.529803 
L 84.949006 107.472718 
L 86.640581 107.43589 
L 87.063474 106.825061 
L 87.486368 107.428223 
L 87.909262 107.546004 
L 88.755049 107.469892 
L 89.177943 107.476023 
L 89.600837 106.778248 
L 90.02373 107.492385 
L 90.869518 107.546004 
L 91.292411 107.230325 
L 91.715305 107.527752 
L 92.138199 107.393909 
L 92.983986 107.546004 
L 93.829774 107.382277 
L 94.252667 107.296641 
L 94.675561 107.546004 
L 95.521348 107.457993 
L 95.944242 107.546004 
L 96.367136 107.449555 
L 98.058711 107.546004 
L 98.481604 107.085035 
L 98.904498 107.126114 
L 99.327392 107.546004 
L 100.596073 107.489446 
L 101.018967 107.297714 
L 101.44186 107.486807 
L 102.710541 107.319899 
L 103.133435 107.546004 
L 104.402116 107.474898 
L 105.670797 107.353754 
L 106.093691 107.511465 
L 106.516585 107.315567 
L 107.362372 107.546004 
L 108.208159 107.267191 
L 108.631053 107.546004 
L 109.476841 107.359065 
L 109.899734 107.358066 
L 110.322628 107.502707 
L 112.85999 107.546004 
L 113.282884 107.253691 
L 113.705778 107.546004 
L 116.24314 107.459093 
L 116.666033 107.274031 
L 117.088927 107.546004 
L 118.780502 107.462006 
L 119.203396 107.239741 
L 120.049183 107.546004 
L 120.472077 107.246764 
L 120.89497 107.498371 
L 121.317864 107.296782 
L 121.740758 107.463581 
L 123.432333 107.546004 
L 123.855226 107.420948 
L 124.27812 107.546004 
L 124.701014 107.349784 
L 125.546801 107.519189 
L 126.392589 107.546004 
L 126.815482 107.446533 
L 127.66127 107.546004 
L 128.084163 107.546004 
L 128.507057 107.281542 
L 128.929951 107.500782 
L 129.352844 107.303572 
L 130.198632 107.528825 
L 130.621526 107.453812 
L 131.467313 107.546004 
L 132.3131 107.506063 
L 133.158888 107.546004 
L 134.004675 107.529792 
L 134.427569 107.546004 
L 134.850463 107.022799 
L 135.273356 107.546004 
L 135.69625 107.546004 
L 136.119144 107.328338 
L 136.964931 107.303968 
L 137.387825 107.49994 
L 137.810719 107.264213 
L 138.233612 107.546004 
L 140.348081 107.546004 
L 140.770974 107.299663 
L 141.193868 107.546004 
L 147.11438 107.546004 
L 147.537274 107.30584 
L 147.960167 107.451132 
L 151.766211 107.449785 
L 152.189104 107.240498 
L 152.611998 107.454155 
L 153.457785 107.331617 
L 153.880679 107.546004 
L 155.14936 107.546004 
L 155.572254 107.422116 
L 155.995148 107.546004 
L 157.686722 107.447643 
L 158.109616 107.413198 
L 158.53251 107.538035 
L 161.492766 107.546004 
L 161.915659 107.440783 
L 162.761447 107.546004 
L 163.184341 107.419989 
L 163.607234 107.546004 
L 164.030128 107.546004 
L 164.453022 107.371879 
L 165.298809 107.546004 
L 165.721703 107.159153 
L 166.144596 107.546004 
L 172.065108 107.507255 
L 172.488002 107.375717 
L 175.025364 107.546004 
L 175.448258 107.389609 
L 175.871152 107.546004 
L 177.139833 107.546004 
L 177.562726 107.424113 
L 177.98562 107.546004 
L 178.408514 107.351297 
L 179.254301 107.546004 
L 179.677195 107.546004 
L 180.100089 107.419058 
L 180.522982 107.546004 
L 180.945876 107.467793 
L 181.791663 107.546004 
L 183.483238 107.546004 
L 194.055581 107.546004 
L 194.478474 107.388665 
L 194.901368 107.546004 
L 197.015837 107.546004 
L 197.015837 107.546004 
" clip-path="url(#p83870976b8)" style="fill: none; stroke: #ff0000; stroke-width: 0.5; stroke-linecap: square"/>
   </g>
   <g id="patch_3">
    <path d="M 28.28125 107.546004 
L 28.28125 2.7775 
" style="fill: none; stroke: #000000; stroke-width: 0.8; stroke-linejoin: miter; stroke-linecap: square"/>
   </g>
   <g id="patch_4">
    <path d="M 197.43873 107.546004 
L 197.43873 2.7775 
" style="fill: none; stroke: #000000; stroke-width: 0.8; stroke-linejoin: miter; stroke-linecap: square"/>
   </g>
   <g id="patch_5">
    <path d="M 28.28125 107.546004 
L 197.43873 107.546004 
" style="fill: none; stroke: #000000; stroke-width: 0.8; stroke-linejoin: miter; stroke-linecap: square"/>
   </g>
   <g id="patch_6">
    <path d="M 28.28125 2.7775 
L 197.43873 2.7775 
" style="fill: none; stroke: #000000; stroke-width: 0.8; stroke-linejoin: miter; stroke-linecap: square"/>
   </g>
   <g id="legend_1">
    <g id="patch_7">
     <path d="M 121.78998 103.546004 
L 191.83873 103.546004 
Q 193.43873 103.546004 193.43873 101.946004 
L 193.43873 68.812254 
Q 193.43873 67.212254 191.83873 67.212254 
L 121.78998 67.212254 
Q 120.18998 67.212254 120.18998 68.812254 
L 120.18998 101.946004 
Q 120.18998 103.546004 121.78998 103.546004 
z
" style="fill: #ffffff; opacity: 0.8; stroke: #cccccc; stroke-linejoin: miter"/>
    </g>
    <g id="line2d_19">
     <path d="M 123.38998 73.212254 
L 131.38998 73.212254 
L 139.38998 73.212254 
" style="fill: none; stroke: #0000ff; stroke-width: 0.5; stroke-linecap: square"/>
    </g>
    <g id="text_18">
     <!-- REINVENT -->
     <g transform="translate(145.78998 76.012254)scale(0.08 -0.08)">
      <defs>
       <path id="TimesNewRomanPSMT-52" d="M 4325 0 
L 3194 0 
L 1759 1981 
Q 1600 1975 1500 1975 
Q 1459 1975 1412 1976 
Q 1366 1978 1316 1981 
L 1316 750 
Q 1316 350 1403 253 
Q 1522 116 1759 116 
L 1925 116 
L 1925 0 
L 109 0 
L 109 116 
L 269 116 
Q 538 116 653 291 
Q 719 388 719 750 
L 719 3488 
Q 719 3888 631 3984 
Q 509 4122 269 4122 
L 109 4122 
L 109 4238 
L 1653 4238 
Q 2328 4238 2648 4139 
Q 2969 4041 3192 3777 
Q 3416 3513 3416 3147 
Q 3416 2756 3161 2468 
Q 2906 2181 2372 2063 
L 3247 847 
Q 3547 428 3762 290 
Q 3978 153 4325 116 
L 4325 0 
z
M 1316 2178 
Q 1375 2178 1419 2176 
Q 1463 2175 1491 2175 
Q 2097 2175 2405 2437 
Q 2713 2700 2713 3106 
Q 2713 3503 2464 3751 
Q 2216 4000 1806 4000 
Q 1625 4000 1316 3941 
L 1316 2178 
z
" transform="scale(0.015625)"/>
       <path id="TimesNewRomanPSMT-49" d="M 1975 116 
L 1975 0 
L 159 0 
L 159 116 
L 309 116 
Q 572 116 691 269 
Q 766 369 766 750 
L 766 3488 
Q 766 3809 725 3913 
Q 694 3991 597 4047 
Q 459 4122 309 4122 
L 159 4122 
L 159 4238 
L 1975 4238 
L 1975 4122 
L 1822 4122 
Q 1563 4122 1444 3969 
Q 1366 3869 1366 3488 
L 1366 750 
Q 1366 428 1406 325 
Q 1438 247 1538 191 
Q 1672 116 1822 116 
L 1975 116 
z
" transform="scale(0.015625)"/>
       <path id="TimesNewRomanPSMT-4e" d="M -84 4238 
L 1066 4238 
L 3656 1059 
L 3656 3503 
Q 3656 3894 3569 3991 
Q 3453 4122 3203 4122 
L 3056 4122 
L 3056 4238 
L 4531 4238 
L 4531 4122 
L 4381 4122 
Q 4113 4122 4000 3959 
Q 3931 3859 3931 3503 
L 3931 -69 
L 3819 -69 
L 1025 3344 
L 1025 734 
Q 1025 344 1109 247 
Q 1228 116 1475 116 
L 1625 116 
L 1625 0 
L 150 0 
L 150 116 
L 297 116 
Q 569 116 681 278 
Q 750 378 750 734 
L 750 3681 
Q 566 3897 470 3965 
Q 375 4034 191 4094 
Q 100 4122 -84 4122 
L -84 4238 
z
" transform="scale(0.015625)"/>
       <path id="TimesNewRomanPSMT-56" d="M 4544 4238 
L 4544 4122 
Q 4319 4081 4203 3978 
Q 4038 3825 3909 3509 
L 2431 -97 
L 2316 -97 
L 728 3556 
Q 606 3838 556 3900 
Q 478 3997 364 4051 
Q 250 4106 56 4122 
L 56 4238 
L 1788 4238 
L 1788 4122 
Q 1494 4094 1406 4022 
Q 1319 3950 1319 3838 
Q 1319 3681 1463 3350 
L 2541 866 
L 3541 3319 
Q 3688 3681 3688 3822 
Q 3688 3913 3597 3995 
Q 3506 4078 3291 4113 
Q 3275 4116 3238 4122 
L 3238 4238 
L 4544 4238 
z
" transform="scale(0.015625)"/>
       <path id="TimesNewRomanPSMT-54" d="M 3703 4238 
L 3750 3244 
L 3631 3244 
Q 3597 3506 3538 3619 
Q 3441 3800 3280 3886 
Q 3119 3972 2856 3972 
L 2259 3972 
L 2259 734 
Q 2259 344 2344 247 
Q 2463 116 2709 116 
L 2856 116 
L 2856 0 
L 1059 0 
L 1059 116 
L 1209 116 
Q 1478 116 1591 278 
Q 1659 378 1659 734 
L 1659 3972 
L 1150 3972 
Q 853 3972 728 3928 
Q 566 3869 450 3700 
Q 334 3531 313 3244 
L 194 3244 
L 244 4238 
L 3703 4238 
z
" transform="scale(0.015625)"/>
      </defs>
      <use xlink:href="#TimesNewRomanPSMT-52"/>
      <use xlink:href="#TimesNewRomanPSMT-45" x="66.699219"/>
      <use xlink:href="#TimesNewRomanPSMT-49" x="127.783203"/>
      <use xlink:href="#TimesNewRomanPSMT-4e" x="161.083984"/>
      <use xlink:href="#TimesNewRomanPSMT-56" x="233.300781"/>
      <use xlink:href="#TimesNewRomanPSMT-45" x="305.517578"/>
      <use xlink:href="#TimesNewRomanPSMT-4e" x="366.601562"/>
      <use xlink:href="#TimesNewRomanPSMT-54" x="438.818359"/>
     </g>
    </g>
    <g id="line2d_20">
     <path d="M 123.38998 84.523504 
L 131.38998 84.523504 
L 139.38998 84.523504 
" style="fill: none; stroke: #008000; stroke-width: 0.5; stroke-linecap: square"/>
    </g>
    <g id="text_19">
     <!-- AHC -->
     <g transform="translate(145.78998 87.323504)scale(0.08 -0.08)">
      <defs>
       <path id="TimesNewRomanPSMT-48" d="M 1316 2272 
L 3284 2272 
L 3284 3484 
Q 3284 3809 3244 3913 
Q 3213 3991 3113 4047 
Q 2978 4122 2828 4122 
L 2678 4122 
L 2678 4238 
L 4491 4238 
L 4491 4122 
L 4341 4122 
Q 4191 4122 4056 4050 
Q 3956 4000 3920 3898 
Q 3884 3797 3884 3484 
L 3884 750 
Q 3884 428 3925 325 
Q 3956 247 4053 191 
Q 4191 116 4341 116 
L 4491 116 
L 4491 0 
L 2678 0 
L 2678 116 
L 2828 116 
Q 3088 116 3206 269 
Q 3284 369 3284 750 
L 3284 2041 
L 1316 2041 
L 1316 750 
Q 1316 428 1356 325 
Q 1388 247 1488 191 
Q 1622 116 1772 116 
L 1925 116 
L 1925 0 
L 109 0 
L 109 116 
L 259 116 
Q 522 116 641 269 
Q 716 369 716 750 
L 716 3484 
Q 716 3809 675 3913 
Q 644 3991 547 4047 
Q 409 4122 259 4122 
L 109 4122 
L 109 4238 
L 1925 4238 
L 1925 4122 
L 1772 4122 
Q 1622 4122 1488 4050 
Q 1391 4000 1353 3898 
Q 1316 3797 1316 3484 
L 1316 2272 
z
" transform="scale(0.015625)"/>
       <path id="TimesNewRomanPSMT-43" d="M 3853 4334 
L 3950 2894 
L 3853 2894 
Q 3659 3541 3300 3825 
Q 2941 4109 2438 4109 
Q 2016 4109 1675 3895 
Q 1334 3681 1139 3212 
Q 944 2744 944 2047 
Q 944 1472 1128 1050 
Q 1313 628 1683 403 
Q 2053 178 2528 178 
Q 2941 178 3256 354 
Q 3572 531 3950 1056 
L 4047 994 
Q 3728 428 3303 165 
Q 2878 -97 2294 -97 
Q 1241 -97 663 684 
Q 231 1266 231 2053 
Q 231 2688 515 3219 
Q 800 3750 1298 4042 
Q 1797 4334 2388 4334 
Q 2847 4334 3294 4109 
Q 3425 4041 3481 4041 
Q 3566 4041 3628 4100 
Q 3709 4184 3744 4334 
L 3853 4334 
z
" transform="scale(0.015625)"/>
      </defs>
      <use xlink:href="#TimesNewRomanPSMT-41"/>
      <use xlink:href="#TimesNewRomanPSMT-48" x="72.216797"/>
      <use xlink:href="#TimesNewRomanPSMT-43" x="144.433594"/>
     </g>
    </g>
    <g id="line2d_21">
     <path d="M 123.38998 95.834754 
L 131.38998 95.834754 
L 139.38998 95.834754 
" style="fill: none; stroke: #ff0000; stroke-width: 0.5; stroke-linecap: square"/>
    </g>
    <g id="text_20">
     <!-- REINFORCE -->
     <g transform="translate(145.78998 98.634754)scale(0.08 -0.08)">
      <defs>
       <path id="TimesNewRomanPSMT-46" d="M 1309 4006 
L 1309 2341 
L 2081 2341 
Q 2347 2341 2470 2458 
Q 2594 2575 2634 2922 
L 2750 2922 
L 2750 1488 
L 2634 1488 
Q 2631 1734 2570 1850 
Q 2509 1966 2401 2023 
Q 2294 2081 2081 2081 
L 1309 2081 
L 1309 750 
Q 1309 428 1350 325 
Q 1381 247 1481 191 
Q 1619 116 1769 116 
L 1922 116 
L 1922 0 
L 103 0 
L 103 116 
L 253 116 
Q 516 116 634 269 
Q 709 369 709 750 
L 709 3488 
Q 709 3809 669 3913 
Q 638 3991 541 4047 
Q 406 4122 253 4122 
L 103 4122 
L 103 4238 
L 3256 4238 
L 3297 3306 
L 3188 3306 
Q 3106 3603 2998 3742 
Q 2891 3881 2733 3943 
Q 2575 4006 2244 4006 
L 1309 4006 
z
" transform="scale(0.015625)"/>
       <path id="TimesNewRomanPSMT-4f" d="M 2341 4334 
Q 3166 4334 3770 3707 
Q 4375 3081 4375 2144 
Q 4375 1178 3765 540 
Q 3156 -97 2291 -97 
Q 1416 -97 820 525 
Q 225 1147 225 2134 
Q 225 3144 913 3781 
Q 1509 4334 2341 4334 
z
M 2281 4106 
Q 1713 4106 1369 3684 
Q 941 3159 941 2147 
Q 941 1109 1384 550 
Q 1725 125 2284 125 
Q 2881 125 3270 590 
Q 3659 1056 3659 2059 
Q 3659 3147 3231 3681 
Q 2888 4106 2281 4106 
z
" transform="scale(0.015625)"/>
      </defs>
      <use xlink:href="#TimesNewRomanPSMT-52"/>
      <use xlink:href="#TimesNewRomanPSMT-45" x="66.699219"/>
      <use xlink:href="#TimesNewRomanPSMT-49" x="127.783203"/>
      <use xlink:href="#TimesNewRomanPSMT-4e" x="161.083984"/>
      <use xlink:href="#TimesNewRomanPSMT-46" x="233.300781"/>
      <use xlink:href="#TimesNewRomanPSMT-4f" x="288.916016"/>
      <use xlink:href="#TimesNewRomanPSMT-52" x="361.132812"/>
      <use xlink:href="#TimesNewRomanPSMT-43" x="427.832031"/>
      <use xlink:href="#TimesNewRomanPSMT-45" x="494.53125"/>
     </g>
    </g>
   </g>
  </g>
 </g>
 <defs>
  <clipPath id="p83870976b8">
   <rect x="28.28125" y="2.7775" width="169.15748" height="104.768504"/>
  </clipPath>
 </defs>
</svg>
