<?xml version="1.0" encoding="utf-8" standalone="no"?>
<!DOCTYPE svg PUBLIC "-//W3C//DTD SVG 1.1//EN"
  "http://www.w3.org/Graphics/SVG/1.1/DTD/svg11.dtd">
<svg xmlns:xlink="http://www.w3.org/1999/xlink" width="398.644355pt" height="196.053098pt" viewBox="0 0 398.644355 196.053098" xmlns="http://www.w3.org/2000/svg" version="1.1">
 <metadata>
  <rdf:RDF xmlns:dc="http://purl.org/dc/elements/1.1/" xmlns:cc="http://creativecommons.org/ns#" xmlns:rdf="http://www.w3.org/1999/02/22-rdf-syntax-ns#">
   <cc:Work>
    <dc:type rdf:resource="http://purl.org/dc/dcmitype/StillImage"/>
    <dc:date>2025-07-21T22:50:21.455900</dc:date>
    <dc:format>image/svg+xml</dc:format>
    <dc:creator>
     <cc:Agent>
      <dc:title>Matplotlib v3.5.0, https://matplotlib.org/</dc:title>
     </cc:Agent>
    </dc:creator>
   </cc:Work>
  </rdf:RDF>
 </metadata>
 <defs>
  <style type="text/css">*{stroke-linejoin: round; stroke-linecap: butt}</style>
 </defs>
 <g id="figure_1">
  <g id="patch_1">
   <path d="M 0 196.053098 
L 398.644355 196.053098 
L 398.644355 0 
L 0 0 
z
" style="fill: #ffffff"/>
  </g>
  <g id="axes_1">
   <g id="patch_2">
    <path d="M 33.083961 128.315898 
L 80.87604 128.315898 
L 80.87604 18.27875 
L 33.083961 18.27875 
z
" style="fill: #ffffff"/>
   </g>
   <g id="matplotlib.axis_1">
    <g id="xtick_1">
     <g id="text_1">
      <!-- training set -->
      <g style="fill: #262626" transform="translate(11.498325 174.47143)rotate(-45)scale(0.08 -0.08)">
       <defs>
        <path id="DejaVuSans-74" d="M 1172 4494 
L 1172 3500 
L 2356 3500 
L 2356 3053 
L 1172 3053 
L 1172 1153 
Q 1172 725 1289 603 
Q 1406 481 1766 481 
L 2356 481 
L 2356 0 
L 1766 0 
Q 1100 0 847 248 
Q 594 497 594 1153 
L 594 3053 
L 172 3053 
L 172 3500 
L 594 3500 
L 594 4494 
L 1172 4494 
z
" transform="scale(0.015625)"/>
        <path id="DejaVuSans-72" d="M 2631 2963 
Q 2534 3019 2420 3045 
Q 2306 3072 2169 3072 
Q 1681 3072 1420 2755 
Q 1159 2438 1159 1844 
L 1159 0 
L 581 0 
L 581 3500 
L 1159 3500 
L 1159 2956 
Q 1341 3275 1631 3429 
Q 1922 3584 2338 3584 
Q 2397 3584 2469 3576 
Q 2541 3569 2628 3553 
L 2631 2963 
z
" transform="scale(0.015625)"/>
        <path id="DejaVuSans-61" d="M 2194 1759 
Q 1497 1759 1228 1600 
Q 959 1441 959 1056 
Q 959 750 1161 570 
Q 1363 391 1709 391 
Q 2188 391 2477 730 
Q 2766 1069 2766 1631 
L 2766 1759 
L 2194 1759 
z
M 3341 1997 
L 3341 0 
L 2766 0 
L 2766 531 
Q 2569 213 2275 61 
Q 1981 -91 1556 -91 
Q 1019 -91 701 211 
Q 384 513 384 1019 
Q 384 1609 779 1909 
Q 1175 2209 1959 2209 
L 2766 2209 
L 2766 2266 
Q 2766 2663 2505 2880 
Q 2244 3097 1772 3097 
Q 1472 3097 1187 3025 
Q 903 2953 641 2809 
L 641 3341 
Q 956 3463 1253 3523 
Q 1550 3584 1831 3584 
Q 2591 3584 2966 3190 
Q 3341 2797 3341 1997 
z
" transform="scale(0.015625)"/>
        <path id="DejaVuSans-69" d="M 603 3500 
L 1178 3500 
L 1178 0 
L 603 0 
L 603 3500 
z
M 603 4863 
L 1178 4863 
L 1178 4134 
L 603 4134 
L 603 4863 
z
" transform="scale(0.015625)"/>
        <path id="DejaVuSans-6e" d="M 3513 2113 
L 3513 0 
L 2938 0 
L 2938 2094 
Q 2938 2591 2744 2837 
Q 2550 3084 2163 3084 
Q 1697 3084 1428 2787 
Q 1159 2491 1159 1978 
L 1159 0 
L 581 0 
L 581 3500 
L 1159 3500 
L 1159 2956 
Q 1366 3272 1645 3428 
Q 1925 3584 2291 3584 
Q 2894 3584 3203 3211 
Q 3513 2838 3513 2113 
z
" transform="scale(0.015625)"/>
        <path id="DejaVuSans-67" d="M 2906 1791 
Q 2906 2416 2648 2759 
Q 2391 3103 1925 3103 
Q 1463 3103 1205 2759 
Q 947 2416 947 1791 
Q 947 1169 1205 825 
Q 1463 481 1925 481 
Q 2391 481 2648 825 
Q 2906 1169 2906 1791 
z
M 3481 434 
Q 3481 -459 3084 -895 
Q 2688 -1331 1869 -1331 
Q 1566 -1331 1297 -1286 
Q 1028 -1241 775 -1147 
L 775 -588 
Q 1028 -725 1275 -790 
Q 1522 -856 1778 -856 
Q 2344 -856 2625 -561 
Q 2906 -266 2906 331 
L 2906 616 
Q 2728 306 2450 153 
Q 2172 0 1784 0 
Q 1141 0 747 490 
Q 353 981 353 1791 
Q 353 2603 747 3093 
Q 1141 3584 1784 3584 
Q 2172 3584 2450 3431 
Q 2728 3278 2906 2969 
L 2906 3500 
L 3481 3500 
L 3481 434 
z
" transform="scale(0.015625)"/>
        <path id="DejaVuSans-20" transform="scale(0.015625)"/>
        <path id="DejaVuSans-73" d="M 2834 3397 
L 2834 2853 
Q 2591 2978 2328 3040 
Q 2066 3103 1784 3103 
Q 1356 3103 1142 2972 
Q 928 2841 928 2578 
Q 928 2378 1081 2264 
Q 1234 2150 1697 2047 
L 1894 2003 
Q 2506 1872 2764 1633 
Q 3022 1394 3022 966 
Q 3022 478 2636 193 
Q 2250 -91 1575 -91 
Q 1294 -91 989 -36 
Q 684 19 347 128 
L 347 722 
Q 666 556 975 473 
Q 1284 391 1588 391 
Q 1994 391 2212 530 
Q 2431 669 2431 922 
Q 2431 1156 2273 1281 
Q 2116 1406 1581 1522 
L 1381 1569 
Q 847 1681 609 1914 
Q 372 2147 372 2553 
Q 372 3047 722 3315 
Q 1072 3584 1716 3584 
Q 2034 3584 2315 3537 
Q 2597 3491 2834 3397 
z
" transform="scale(0.015625)"/>
        <path id="DejaVuSans-65" d="M 3597 1894 
L 3597 1613 
L 953 1613 
Q 991 1019 1311 708 
Q 1631 397 2203 397 
Q 2534 397 2845 478 
Q 3156 559 3463 722 
L 3463 178 
Q 3153 47 2828 -22 
Q 2503 -91 2169 -91 
Q 1331 -91 842 396 
Q 353 884 353 1716 
Q 353 2575 817 3079 
Q 1281 3584 2069 3584 
Q 2775 3584 3186 3129 
Q 3597 2675 3597 1894 
z
M 3022 2063 
Q 3016 2534 2758 2815 
Q 2500 3097 2075 3097 
Q 1594 3097 1305 2825 
Q 1016 2553 972 2059 
L 3022 2063 
z
" transform="scale(0.015625)"/>
       </defs>
       <use xlink:href="#DejaVuSans-74"/>
       <use xlink:href="#DejaVuSans-72" x="39.208984"/>
       <use xlink:href="#DejaVuSans-61" x="80.322266"/>
       <use xlink:href="#DejaVuSans-69" x="141.601562"/>
       <use xlink:href="#DejaVuSans-6e" x="169.384766"/>
       <use xlink:href="#DejaVuSans-69" x="232.763672"/>
       <use xlink:href="#DejaVuSans-6e" x="260.546875"/>
       <use xlink:href="#DejaVuSans-67" x="323.925781"/>
       <use xlink:href="#DejaVuSans-20" x="387.402344"/>
       <use xlink:href="#DejaVuSans-73" x="419.189453"/>
       <use xlink:href="#DejaVuSans-65" x="471.289062"/>
       <use xlink:href="#DejaVuSans-74" x="532.8125"/>
      </g>
     </g>
    </g>
    <g id="xtick_2">
     <g id="text_2">
      <!-- gpt1 generation -->
      <g style="fill: #262626" transform="translate(22.189146 187.676649)rotate(-45)scale(0.08 -0.08)">
       <defs>
        <path id="DejaVuSans-70" d="M 1159 525 
L 1159 -1331 
L 581 -1331 
L 581 3500 
L 1159 3500 
L 1159 2969 
Q 1341 3281 1617 3432 
Q 1894 3584 2278 3584 
Q 2916 3584 3314 3078 
Q 3713 2572 3713 1747 
Q 3713 922 3314 415 
Q 2916 -91 2278 -91 
Q 1894 -91 1617 61 
Q 1341 213 1159 525 
z
M 3116 1747 
Q 3116 2381 2855 2742 
Q 2594 3103 2138 3103 
Q 1681 3103 1420 2742 
Q 1159 2381 1159 1747 
Q 1159 1113 1420 752 
Q 1681 391 2138 391 
Q 2594 391 2855 752 
Q 3116 1113 3116 1747 
z
" transform="scale(0.015625)"/>
        <path id="DejaVuSans-31" d="M 794 531 
L 1825 531 
L 1825 4091 
L 703 3866 
L 703 4441 
L 1819 4666 
L 2450 4666 
L 2450 531 
L 3481 531 
L 3481 0 
L 794 0 
L 794 531 
z
" transform="scale(0.015625)"/>
        <path id="DejaVuSans-6f" d="M 1959 3097 
Q 1497 3097 1228 2736 
Q 959 2375 959 1747 
Q 959 1119 1226 758 
Q 1494 397 1959 397 
Q 2419 397 2687 759 
Q 2956 1122 2956 1747 
Q 2956 2369 2687 2733 
Q 2419 3097 1959 3097 
z
M 1959 3584 
Q 2709 3584 3137 3096 
Q 3566 2609 3566 1747 
Q 3566 888 3137 398 
Q 2709 -91 1959 -91 
Q 1206 -91 779 398 
Q 353 888 353 1747 
Q 353 2609 779 3096 
Q 1206 3584 1959 3584 
z
" transform="scale(0.015625)"/>
       </defs>
       <use xlink:href="#DejaVuSans-67"/>
       <use xlink:href="#DejaVuSans-70" x="63.476562"/>
       <use xlink:href="#DejaVuSans-74" x="126.953125"/>
       <use xlink:href="#DejaVuSans-31" x="166.162109"/>
       <use xlink:href="#DejaVuSans-20" x="229.785156"/>
       <use xlink:href="#DejaVuSans-67" x="261.572266"/>
       <use xlink:href="#DejaVuSans-65" x="325.048828"/>
       <use xlink:href="#DejaVuSans-6e" x="386.572266"/>
       <use xlink:href="#DejaVuSans-65" x="449.951172"/>
       <use xlink:href="#DejaVuSans-72" x="511.474609"/>
       <use xlink:href="#DejaVuSans-61" x="552.587891"/>
       <use xlink:href="#DejaVuSans-74" x="613.867188"/>
       <use xlink:href="#DejaVuSans-69" x="653.076172"/>
       <use xlink:href="#DejaVuSans-6f" x="680.859375"/>
       <use xlink:href="#DejaVuSans-6e" x="742.041016"/>
      </g>
     </g>
    </g>
   </g>
   <g id="matplotlib.axis_2">
    <g id="ytick_1">
     <g id="text_3">
      <!-- 200 -->
      <g style="fill: #262626" transform="translate(11.813961 112.638312)scale(0.08 -0.08)">
       <defs>
        <path id="DejaVuSans-32" d="M 1228 531 
L 3431 531 
L 3431 0 
L 469 0 
L 469 531 
Q 828 903 1448 1529 
Q 2069 2156 2228 2338 
Q 2531 2678 2651 2914 
Q 2772 3150 2772 3378 
Q 2772 3750 2511 3984 
Q 2250 4219 1831 4219 
Q 1534 4219 1204 4116 
Q 875 4013 500 3803 
L 500 4441 
Q 881 4594 1212 4672 
Q 1544 4750 1819 4750 
Q 2544 4750 2975 4387 
Q 3406 4025 3406 3419 
Q 3406 3131 3298 2873 
Q 3191 2616 2906 2266 
Q 2828 2175 2409 1742 
Q 1991 1309 1228 531 
z
" transform="scale(0.015625)"/>
        <path id="DejaVuSans-30" d="M 2034 4250 
Q 1547 4250 1301 3770 
Q 1056 3291 1056 2328 
Q 1056 1369 1301 889 
Q 1547 409 2034 409 
Q 2525 409 2770 889 
Q 3016 1369 3016 2328 
Q 3016 3291 2770 3770 
Q 2525 4250 2034 4250 
z
M 2034 4750 
Q 2819 4750 3233 4129 
Q 3647 3509 3647 2328 
Q 3647 1150 3233 529 
Q 2819 -91 2034 -91 
Q 1250 -91 836 529 
Q 422 1150 422 2328 
Q 422 3509 836 4129 
Q 1250 4750 2034 4750 
z
" transform="scale(0.015625)"/>
       </defs>
       <use xlink:href="#DejaVuSans-32"/>
       <use xlink:href="#DejaVuSans-30" x="63.623047"/>
       <use xlink:href="#DejaVuSans-30" x="127.246094"/>
      </g>
     </g>
    </g>
    <g id="ytick_2">
     <g id="text_4">
      <!-- 400 -->
      <g style="fill: #262626" transform="translate(11.813961 85.718966)scale(0.08 -0.08)">
       <defs>
        <path id="DejaVuSans-34" d="M 2419 4116 
L 825 1625 
L 2419 1625 
L 2419 4116 
z
M 2253 4666 
L 3047 4666 
L 3047 1625 
L 3713 1625 
L 3713 1100 
L 3047 1100 
L 3047 0 
L 2419 0 
L 2419 1100 
L 313 1100 
L 313 1709 
L 2253 4666 
z
" transform="scale(0.015625)"/>
       </defs>
       <use xlink:href="#DejaVuSans-34"/>
       <use xlink:href="#DejaVuSans-30" x="63.623047"/>
       <use xlink:href="#DejaVuSans-30" x="127.246094"/>
      </g>
     </g>
    </g>
    <g id="ytick_3">
     <g id="text_5">
      <!-- 600 -->
      <g style="fill: #262626" transform="translate(11.813961 58.79962)scale(0.08 -0.08)">
       <defs>
        <path id="DejaVuSans-36" d="M 2113 2584 
Q 1688 2584 1439 2293 
Q 1191 2003 1191 1497 
Q 1191 994 1439 701 
Q 1688 409 2113 409 
Q 2538 409 2786 701 
Q 3034 994 3034 1497 
Q 3034 2003 2786 2293 
Q 2538 2584 2113 2584 
z
M 3366 4563 
L 3366 3988 
Q 3128 4100 2886 4159 
Q 2644 4219 2406 4219 
Q 1781 4219 1451 3797 
Q 1122 3375 1075 2522 
Q 1259 2794 1537 2939 
Q 1816 3084 2150 3084 
Q 2853 3084 3261 2657 
Q 3669 2231 3669 1497 
Q 3669 778 3244 343 
Q 2819 -91 2113 -91 
Q 1303 -91 875 529 
Q 447 1150 447 2328 
Q 447 3434 972 4092 
Q 1497 4750 2381 4750 
Q 2619 4750 2861 4703 
Q 3103 4656 3366 4563 
z
" transform="scale(0.015625)"/>
       </defs>
       <use xlink:href="#DejaVuSans-36"/>
       <use xlink:href="#DejaVuSans-30" x="63.623047"/>
       <use xlink:href="#DejaVuSans-30" x="127.246094"/>
      </g>
     </g>
    </g>
    <g id="ytick_4">
     <g id="text_6">
      <!-- 800 -->
      <g style="fill: #262626" transform="translate(11.813961 31.880274)scale(0.08 -0.08)">
       <defs>
        <path id="DejaVuSans-38" d="M 2034 2216 
Q 1584 2216 1326 1975 
Q 1069 1734 1069 1313 
Q 1069 891 1326 650 
Q 1584 409 2034 409 
Q 2484 409 2743 651 
Q 3003 894 3003 1313 
Q 3003 1734 2745 1975 
Q 2488 2216 2034 2216 
z
M 1403 2484 
Q 997 2584 770 2862 
Q 544 3141 544 3541 
Q 544 4100 942 4425 
Q 1341 4750 2034 4750 
Q 2731 4750 3128 4425 
Q 3525 4100 3525 3541 
Q 3525 3141 3298 2862 
Q 3072 2584 2669 2484 
Q 3125 2378 3379 2068 
Q 3634 1759 3634 1313 
Q 3634 634 3220 271 
Q 2806 -91 2034 -91 
Q 1263 -91 848 271 
Q 434 634 434 1313 
Q 434 1759 690 2068 
Q 947 2378 1403 2484 
z
M 1172 3481 
Q 1172 3119 1398 2916 
Q 1625 2713 2034 2713 
Q 2441 2713 2670 2916 
Q 2900 3119 2900 3481 
Q 2900 3844 2670 4047 
Q 2441 4250 2034 4250 
Q 1625 4250 1398 4047 
Q 1172 3844 1172 3481 
z
" transform="scale(0.015625)"/>
       </defs>
       <use xlink:href="#DejaVuSans-38"/>
       <use xlink:href="#DejaVuSans-30" x="63.623047"/>
       <use xlink:href="#DejaVuSans-30" x="127.246094"/>
      </g>
     </g>
    </g>
   </g>
   <g id="patch_3">
    <path d="M 36.668367 97.165161 
L 53.395594 97.165161 
L 53.395594 67.6271 
L 36.668367 67.6271 
L 36.668367 97.165161 
z
" clip-path="url(#pf02736be99)" style="fill: #85abc7; stroke: #646464; stroke-linejoin: miter"/>
   </g>
   <g id="line2d_1">
    <path d="M 45.031981 97.165161 
L 45.031981 123.31421 
" clip-path="url(#pf02736be99)" style="fill: none; stroke: #646464"/>
   </g>
   <g id="line2d_2">
    <path d="M 45.031981 67.6271 
L 45.031981 23.33172 
" clip-path="url(#pf02736be99)" style="fill: none; stroke: #646464"/>
   </g>
   <g id="line2d_3">
    <path d="M 40.850174 123.31421 
L 49.213787 123.31421 
" clip-path="url(#pf02736be99)" style="fill: none; stroke: #646464; stroke-linecap: round"/>
   </g>
   <g id="line2d_4">
    <path d="M 40.850174 23.33172 
L 49.213787 23.33172 
" clip-path="url(#pf02736be99)" style="fill: none; stroke: #646464; stroke-linecap: round"/>
   </g>
   <g id="patch_4">
    <path d="M 60.564406 97.03016 
L 77.291634 97.03016 
L 77.291634 67.506367 
L 60.564406 67.506367 
L 60.564406 97.03016 
z
" clip-path="url(#pf02736be99)" style="fill: #ebb484; stroke: #646464; stroke-linejoin: miter"/>
   </g>
   <g id="line2d_5">
    <path d="M 68.92802 97.03016 
L 68.92802 117.649841 
" clip-path="url(#pf02736be99)" style="fill: none; stroke: #646464"/>
   </g>
   <g id="line2d_6">
    <path d="M 68.92802 67.506367 
L 68.92802 23.280439 
" clip-path="url(#pf02736be99)" style="fill: none; stroke: #646464"/>
   </g>
   <g id="line2d_7">
    <path d="M 64.746213 117.649841 
L 73.109827 117.649841 
" clip-path="url(#pf02736be99)" style="fill: none; stroke: #646464; stroke-linecap: round"/>
   </g>
   <g id="line2d_8">
    <path d="M 64.746213 23.280439 
L 73.109827 23.280439 
" clip-path="url(#pf02736be99)" style="fill: none; stroke: #646464; stroke-linecap: round"/>
   </g>
   <g id="line2d_9">
    <path d="M 36.668367 84.510309 
L 53.395594 84.510309 
" clip-path="url(#pf02736be99)" style="fill: none; stroke: #646464"/>
   </g>
   <g id="line2d_10">
    <path d="M 60.564406 84.486418 
L 77.291634 84.486418 
" clip-path="url(#pf02736be99)" style="fill: none; stroke: #646464"/>
   </g>
   <g id="patch_5">
    <path d="M 33.083961 128.315898 
L 33.083961 18.27875 
" style="fill: none; stroke: #cccccc; stroke-width: 1.25; stroke-linejoin: miter; stroke-linecap: square"/>
   </g>
   <g id="patch_6">
    <path d="M 33.083961 128.315898 
L 80.87604 128.315898 
" style="fill: none; stroke: #cccccc; stroke-width: 1.25; stroke-linejoin: miter; stroke-linecap: square"/>
   </g>
   <g id="text_7">
    <!-- Molecular Weight -->
    <g style="fill: #262626" transform="translate(22.36125 13.27875)scale(0.08 -0.08)">
     <defs>
      <path id="DejaVuSans-4d" d="M 628 4666 
L 1569 4666 
L 2759 1491 
L 3956 4666 
L 4897 4666 
L 4897 0 
L 4281 0 
L 4281 4097 
L 3078 897 
L 2444 897 
L 1241 4097 
L 1241 0 
L 628 0 
L 628 4666 
z
" transform="scale(0.015625)"/>
      <path id="DejaVuSans-6c" d="M 603 4863 
L 1178 4863 
L 1178 0 
L 603 0 
L 603 4863 
z
" transform="scale(0.015625)"/>
      <path id="DejaVuSans-63" d="M 3122 3366 
L 3122 2828 
Q 2878 2963 2633 3030 
Q 2388 3097 2138 3097 
Q 1578 3097 1268 2742 
Q 959 2388 959 1747 
Q 959 1106 1268 751 
Q 1578 397 2138 397 
Q 2388 397 2633 464 
Q 2878 531 3122 666 
L 3122 134 
Q 2881 22 2623 -34 
Q 2366 -91 2075 -91 
Q 1284 -91 818 406 
Q 353 903 353 1747 
Q 353 2603 823 3093 
Q 1294 3584 2113 3584 
Q 2378 3584 2631 3529 
Q 2884 3475 3122 3366 
z
" transform="scale(0.015625)"/>
      <path id="DejaVuSans-75" d="M 544 1381 
L 544 3500 
L 1119 3500 
L 1119 1403 
Q 1119 906 1312 657 
Q 1506 409 1894 409 
Q 2359 409 2629 706 
Q 2900 1003 2900 1516 
L 2900 3500 
L 3475 3500 
L 3475 0 
L 2900 0 
L 2900 538 
Q 2691 219 2414 64 
Q 2138 -91 1772 -91 
Q 1169 -91 856 284 
Q 544 659 544 1381 
z
M 1991 3584 
L 1991 3584 
z
" transform="scale(0.015625)"/>
      <path id="DejaVuSans-57" d="M 213 4666 
L 850 4666 
L 1831 722 
L 2809 4666 
L 3519 4666 
L 4500 722 
L 5478 4666 
L 6119 4666 
L 4947 0 
L 4153 0 
L 3169 4050 
L 2175 0 
L 1381 0 
L 213 4666 
z
" transform="scale(0.015625)"/>
      <path id="DejaVuSans-68" d="M 3513 2113 
L 3513 0 
L 2938 0 
L 2938 2094 
Q 2938 2591 2744 2837 
Q 2550 3084 2163 3084 
Q 1697 3084 1428 2787 
Q 1159 2491 1159 1978 
L 1159 0 
L 581 0 
L 581 4863 
L 1159 4863 
L 1159 2956 
Q 1366 3272 1645 3428 
Q 1925 3584 2291 3584 
Q 2894 3584 3203 3211 
Q 3513 2838 3513 2113 
z
" transform="scale(0.015625)"/>
     </defs>
     <use xlink:href="#DejaVuSans-4d"/>
     <use xlink:href="#DejaVuSans-6f" x="86.279297"/>
     <use xlink:href="#DejaVuSans-6c" x="147.460938"/>
     <use xlink:href="#DejaVuSans-65" x="175.244141"/>
     <use xlink:href="#DejaVuSans-63" x="236.767578"/>
     <use xlink:href="#DejaVuSans-75" x="291.748047"/>
     <use xlink:href="#DejaVuSans-6c" x="355.126953"/>
     <use xlink:href="#DejaVuSans-61" x="382.910156"/>
     <use xlink:href="#DejaVuSans-72" x="444.189453"/>
     <use xlink:href="#DejaVuSans-20" x="485.302734"/>
     <use xlink:href="#DejaVuSans-57" x="517.089844"/>
     <use xlink:href="#DejaVuSans-65" x="610.091797"/>
     <use xlink:href="#DejaVuSans-69" x="671.615234"/>
     <use xlink:href="#DejaVuSans-67" x="699.398438"/>
     <use xlink:href="#DejaVuSans-68" x="762.875"/>
     <use xlink:href="#DejaVuSans-74" x="826.253906"/>
    </g>
   </g>
   <g id="legend_1"/>
  </g>
  <g id="axes_2">
   <g id="patch_7">
    <path d="M 110.72604 128.315898 
L 158.518118 128.315898 
L 158.518118 18.27875 
L 110.72604 18.27875 
z
" style="fill: #ffffff"/>
   </g>
   <g id="matplotlib.axis_3">
    <g id="xtick_3">
     <g id="text_8">
      <!-- training set -->
      <g style="fill: #262626" transform="translate(89.140404 174.47143)rotate(-45)scale(0.08 -0.08)">
       <use xlink:href="#DejaVuSans-74"/>
       <use xlink:href="#DejaVuSans-72" x="39.208984"/>
       <use xlink:href="#DejaVuSans-61" x="80.322266"/>
       <use xlink:href="#DejaVuSans-69" x="141.601562"/>
       <use xlink:href="#DejaVuSans-6e" x="169.384766"/>
       <use xlink:href="#DejaVuSans-69" x="232.763672"/>
       <use xlink:href="#DejaVuSans-6e" x="260.546875"/>
       <use xlink:href="#DejaVuSans-67" x="323.925781"/>
       <use xlink:href="#DejaVuSans-20" x="387.402344"/>
       <use xlink:href="#DejaVuSans-73" x="419.189453"/>
       <use xlink:href="#DejaVuSans-65" x="471.289062"/>
       <use xlink:href="#DejaVuSans-74" x="532.8125"/>
      </g>
     </g>
    </g>
    <g id="xtick_4">
     <g id="text_9">
      <!-- gpt1 generation -->
      <g style="fill: #262626" transform="translate(99.831224 187.676649)rotate(-45)scale(0.08 -0.08)">
       <use xlink:href="#DejaVuSans-67"/>
       <use xlink:href="#DejaVuSans-70" x="63.476562"/>
       <use xlink:href="#DejaVuSans-74" x="126.953125"/>
       <use xlink:href="#DejaVuSans-31" x="166.162109"/>
       <use xlink:href="#DejaVuSans-20" x="229.785156"/>
       <use xlink:href="#DejaVuSans-67" x="261.572266"/>
       <use xlink:href="#DejaVuSans-65" x="325.048828"/>
       <use xlink:href="#DejaVuSans-6e" x="386.572266"/>
       <use xlink:href="#DejaVuSans-65" x="449.951172"/>
       <use xlink:href="#DejaVuSans-72" x="511.474609"/>
       <use xlink:href="#DejaVuSans-61" x="552.587891"/>
       <use xlink:href="#DejaVuSans-74" x="613.867188"/>
       <use xlink:href="#DejaVuSans-69" x="653.076172"/>
       <use xlink:href="#DejaVuSans-6f" x="680.859375"/>
       <use xlink:href="#DejaVuSans-6e" x="742.041016"/>
      </g>
     </g>
    </g>
   </g>
   <g id="matplotlib.axis_4">
    <g id="ytick_5">
     <g id="text_10">
      <!-- −2.5 -->
      <g style="fill: #262626" transform="translate(85.29979 120.935297)scale(0.08 -0.08)">
       <defs>
        <path id="DejaVuSans-2212" d="M 678 2272 
L 4684 2272 
L 4684 1741 
L 678 1741 
L 678 2272 
z
" transform="scale(0.015625)"/>
        <path id="DejaVuSans-2e" d="M 684 794 
L 1344 794 
L 1344 0 
L 684 0 
L 684 794 
z
" transform="scale(0.015625)"/>
        <path id="DejaVuSans-35" d="M 691 4666 
L 3169 4666 
L 3169 4134 
L 1269 4134 
L 1269 2991 
Q 1406 3038 1543 3061 
Q 1681 3084 1819 3084 
Q 2600 3084 3056 2656 
Q 3513 2228 3513 1497 
Q 3513 744 3044 326 
Q 2575 -91 1722 -91 
Q 1428 -91 1123 -41 
Q 819 9 494 109 
L 494 744 
Q 775 591 1075 516 
Q 1375 441 1709 441 
Q 2250 441 2565 725 
Q 2881 1009 2881 1497 
Q 2881 1984 2565 2268 
Q 2250 2553 1709 2553 
Q 1456 2553 1204 2497 
Q 953 2441 691 2322 
L 691 4666 
z
" transform="scale(0.015625)"/>
       </defs>
       <use xlink:href="#DejaVuSans-2212"/>
       <use xlink:href="#DejaVuSans-32" x="83.789062"/>
       <use xlink:href="#DejaVuSans-2e" x="147.412109"/>
       <use xlink:href="#DejaVuSans-35" x="179.199219"/>
      </g>
     </g>
    </g>
    <g id="ytick_6">
     <g id="text_11">
      <!-- 0.0 -->
      <g style="fill: #262626" transform="translate(92.00354 100.944568)scale(0.08 -0.08)">
       <use xlink:href="#DejaVuSans-30"/>
       <use xlink:href="#DejaVuSans-2e" x="63.623047"/>
       <use xlink:href="#DejaVuSans-30" x="95.410156"/>
      </g>
     </g>
    </g>
    <g id="ytick_7">
     <g id="text_12">
      <!-- 2.5 -->
      <g style="fill: #262626" transform="translate(92.00354 80.953838)scale(0.08 -0.08)">
       <use xlink:href="#DejaVuSans-32"/>
       <use xlink:href="#DejaVuSans-2e" x="63.623047"/>
       <use xlink:href="#DejaVuSans-35" x="95.410156"/>
      </g>
     </g>
    </g>
    <g id="ytick_8">
     <g id="text_13">
      <!-- 5.0 -->
      <g style="fill: #262626" transform="translate(92.00354 60.963108)scale(0.08 -0.08)">
       <use xlink:href="#DejaVuSans-35"/>
       <use xlink:href="#DejaVuSans-2e" x="63.623047"/>
       <use xlink:href="#DejaVuSans-30" x="95.410156"/>
      </g>
     </g>
    </g>
    <g id="ytick_9">
     <g id="text_14">
      <!-- 7.5 -->
      <g style="fill: #262626" transform="translate(92.00354 40.972379)scale(0.08 -0.08)">
       <defs>
        <path id="DejaVuSans-37" d="M 525 4666 
L 3525 4666 
L 3525 4397 
L 1831 0 
L 1172 0 
L 2766 4134 
L 525 4134 
L 525 4666 
z
" transform="scale(0.015625)"/>
       </defs>
       <use xlink:href="#DejaVuSans-37"/>
       <use xlink:href="#DejaVuSans-2e" x="63.623047"/>
       <use xlink:href="#DejaVuSans-35" x="95.410156"/>
      </g>
     </g>
    </g>
   </g>
   <g id="patch_8">
    <path d="M 114.310446 83.643606 
L 131.037673 83.643606 
L 131.037673 59.551578 
L 114.310446 59.551578 
L 114.310446 83.643606 
z
" clip-path="url(#pccd145d800)" style="fill: #85abc7; stroke: #646464; stroke-linejoin: miter"/>
   </g>
   <g id="line2d_11">
    <path d="M 122.674059 83.643606 
L 122.674059 119.75506 
" clip-path="url(#pccd145d800)" style="fill: none; stroke: #646464"/>
   </g>
   <g id="line2d_12">
    <path d="M 122.674059 59.551578 
L 122.674059 23.528484 
" clip-path="url(#pccd145d800)" style="fill: none; stroke: #646464"/>
   </g>
   <g id="line2d_13">
    <path d="M 118.492252 119.75506 
L 126.855866 119.75506 
" clip-path="url(#pccd145d800)" style="fill: none; stroke: #646464; stroke-linecap: round"/>
   </g>
   <g id="line2d_14">
    <path d="M 118.492252 23.528484 
L 126.855866 23.528484 
" clip-path="url(#pccd145d800)" style="fill: none; stroke: #646464; stroke-linecap: round"/>
   </g>
   <g id="patch_9">
    <path d="M 138.206485 85.784413 
L 154.933712 85.784413 
L 154.933712 60.760018 
L 138.206485 60.760018 
L 138.206485 85.784413 
z
" clip-path="url(#pccd145d800)" style="fill: #ebb484; stroke: #646464; stroke-linejoin: miter"/>
   </g>
   <g id="line2d_15">
    <path d="M 146.570099 85.784413 
L 146.570099 123.31421 
" clip-path="url(#pccd145d800)" style="fill: none; stroke: #646464"/>
   </g>
   <g id="line2d_16">
    <path d="M 146.570099 60.760018 
L 146.570099 23.280439 
" clip-path="url(#pccd145d800)" style="fill: none; stroke: #646464"/>
   </g>
   <g id="line2d_17">
    <path d="M 142.388292 123.31421 
L 150.751906 123.31421 
" clip-path="url(#pccd145d800)" style="fill: none; stroke: #646464; stroke-linecap: round"/>
   </g>
   <g id="line2d_18">
    <path d="M 142.388292 23.280439 
L 150.751906 23.280439 
" clip-path="url(#pccd145d800)" style="fill: none; stroke: #646464; stroke-linecap: round"/>
   </g>
   <g id="line2d_19">
    <path d="M 114.310446 72.043186 
L 131.037673 72.043186 
" clip-path="url(#pccd145d800)" style="fill: none; stroke: #646464"/>
   </g>
   <g id="line2d_20">
    <path d="M 138.206485 73.65148 
L 154.933712 73.65148 
" clip-path="url(#pccd145d800)" style="fill: none; stroke: #646464"/>
   </g>
   <g id="patch_10">
    <path d="M 110.72604 128.315898 
L 110.72604 18.27875 
" style="fill: none; stroke: #cccccc; stroke-width: 1.25; stroke-linejoin: miter; stroke-linecap: square"/>
   </g>
   <g id="patch_11">
    <path d="M 110.72604 128.315898 
L 158.518118 128.315898 
" style="fill: none; stroke: #cccccc; stroke-width: 1.25; stroke-linejoin: miter; stroke-linecap: square"/>
   </g>
   <g id="text_15">
    <!-- LogP -->
    <g style="fill: #262626" transform="translate(125.064579 13.27875)scale(0.08 -0.08)">
     <defs>
      <path id="DejaVuSans-4c" d="M 628 4666 
L 1259 4666 
L 1259 531 
L 3531 531 
L 3531 0 
L 628 0 
L 628 4666 
z
" transform="scale(0.015625)"/>
      <path id="DejaVuSans-50" d="M 1259 4147 
L 1259 2394 
L 2053 2394 
Q 2494 2394 2734 2622 
Q 2975 2850 2975 3272 
Q 2975 3691 2734 3919 
Q 2494 4147 2053 4147 
L 1259 4147 
z
M 628 4666 
L 2053 4666 
Q 2838 4666 3239 4311 
Q 3641 3956 3641 3272 
Q 3641 2581 3239 2228 
Q 2838 1875 2053 1875 
L 1259 1875 
L 1259 0 
L 628 0 
L 628 4666 
z
" transform="scale(0.015625)"/>
     </defs>
     <use xlink:href="#DejaVuSans-4c"/>
     <use xlink:href="#DejaVuSans-6f" x="53.962891"/>
     <use xlink:href="#DejaVuSans-67" x="115.144531"/>
     <use xlink:href="#DejaVuSans-50" x="178.621094"/>
    </g>
   </g>
   <g id="legend_2"/>
  </g>
  <g id="axes_3">
   <g id="patch_12">
    <path d="M 188.368118 128.315898 
L 236.160197 128.315898 
L 236.160197 18.27875 
L 188.368118 18.27875 
z
" style="fill: #ffffff"/>
   </g>
   <g id="matplotlib.axis_5">
    <g id="xtick_5">
     <g id="text_16">
      <!-- training set -->
      <g style="fill: #262626" transform="translate(166.782483 174.47143)rotate(-45)scale(0.08 -0.08)">
       <use xlink:href="#DejaVuSans-74"/>
       <use xlink:href="#DejaVuSans-72" x="39.208984"/>
       <use xlink:href="#DejaVuSans-61" x="80.322266"/>
       <use xlink:href="#DejaVuSans-69" x="141.601562"/>
       <use xlink:href="#DejaVuSans-6e" x="169.384766"/>
       <use xlink:href="#DejaVuSans-69" x="232.763672"/>
       <use xlink:href="#DejaVuSans-6e" x="260.546875"/>
       <use xlink:href="#DejaVuSans-67" x="323.925781"/>
       <use xlink:href="#DejaVuSans-20" x="387.402344"/>
       <use xlink:href="#DejaVuSans-73" x="419.189453"/>
       <use xlink:href="#DejaVuSans-65" x="471.289062"/>
       <use xlink:href="#DejaVuSans-74" x="532.8125"/>
      </g>
     </g>
    </g>
    <g id="xtick_6">
     <g id="text_17">
      <!-- gpt1 generation -->
      <g style="fill: #262626" transform="translate(177.473303 187.676649)rotate(-45)scale(0.08 -0.08)">
       <use xlink:href="#DejaVuSans-67"/>
       <use xlink:href="#DejaVuSans-70" x="63.476562"/>
       <use xlink:href="#DejaVuSans-74" x="126.953125"/>
       <use xlink:href="#DejaVuSans-31" x="166.162109"/>
       <use xlink:href="#DejaVuSans-20" x="229.785156"/>
       <use xlink:href="#DejaVuSans-67" x="261.572266"/>
       <use xlink:href="#DejaVuSans-65" x="325.048828"/>
       <use xlink:href="#DejaVuSans-6e" x="386.572266"/>
       <use xlink:href="#DejaVuSans-65" x="449.951172"/>
       <use xlink:href="#DejaVuSans-72" x="511.474609"/>
       <use xlink:href="#DejaVuSans-61" x="552.587891"/>
       <use xlink:href="#DejaVuSans-74" x="613.867188"/>
       <use xlink:href="#DejaVuSans-69" x="653.076172"/>
       <use xlink:href="#DejaVuSans-6f" x="680.859375"/>
       <use xlink:href="#DejaVuSans-6e" x="742.041016"/>
      </g>
     </g>
    </g>
   </g>
   <g id="matplotlib.axis_6">
    <g id="ytick_10">
     <g id="text_18">
      <!-- 0 -->
      <g style="fill: #262626" transform="translate(177.278118 126.353585)scale(0.08 -0.08)">
       <use xlink:href="#DejaVuSans-30"/>
      </g>
     </g>
    </g>
    <g id="ytick_11">
     <g id="text_19">
      <!-- 50 -->
      <g style="fill: #262626" transform="translate(172.188118 106.639389)scale(0.08 -0.08)">
       <use xlink:href="#DejaVuSans-35"/>
       <use xlink:href="#DejaVuSans-30" x="63.623047"/>
      </g>
     </g>
    </g>
    <g id="ytick_12">
     <g id="text_20">
      <!-- 100 -->
      <g style="fill: #262626" transform="translate(167.098118 86.925194)scale(0.08 -0.08)">
       <use xlink:href="#DejaVuSans-31"/>
       <use xlink:href="#DejaVuSans-30" x="63.623047"/>
       <use xlink:href="#DejaVuSans-30" x="127.246094"/>
      </g>
     </g>
    </g>
    <g id="ytick_13">
     <g id="text_21">
      <!-- 150 -->
      <g style="fill: #262626" transform="translate(167.098118 67.210998)scale(0.08 -0.08)">
       <use xlink:href="#DejaVuSans-31"/>
       <use xlink:href="#DejaVuSans-35" x="63.623047"/>
       <use xlink:href="#DejaVuSans-30" x="127.246094"/>
      </g>
     </g>
    </g>
    <g id="ytick_14">
     <g id="text_22">
      <!-- 200 -->
      <g style="fill: #262626" transform="translate(167.098118 47.496802)scale(0.08 -0.08)">
       <use xlink:href="#DejaVuSans-32"/>
       <use xlink:href="#DejaVuSans-30" x="63.623047"/>
       <use xlink:href="#DejaVuSans-30" x="127.246094"/>
      </g>
     </g>
    </g>
    <g id="ytick_15">
     <g id="text_23">
      <!-- 250 -->
      <g style="fill: #262626" transform="translate(167.098118 27.782607)scale(0.08 -0.08)">
       <use xlink:href="#DejaVuSans-32"/>
       <use xlink:href="#DejaVuSans-35" x="63.623047"/>
       <use xlink:href="#DejaVuSans-30" x="127.246094"/>
      </g>
     </g>
    </g>
   </g>
   <g id="patch_13">
    <path d="M 191.952524 104.124412 
L 208.679752 104.124412 
L 208.679752 73.20171 
L 191.952524 73.20171 
L 191.952524 104.124412 
z
" clip-path="url(#p5912f5039a)" style="fill: #85abc7; stroke: #646464; stroke-linejoin: miter"/>
   </g>
   <g id="line2d_21">
    <path d="M 200.316138 104.124412 
L 200.316138 123.31421 
" clip-path="url(#p5912f5039a)" style="fill: none; stroke: #646464"/>
   </g>
   <g id="line2d_22">
    <path d="M 200.316138 73.20171 
L 200.316138 26.848708 
" clip-path="url(#p5912f5039a)" style="fill: none; stroke: #646464"/>
   </g>
   <g id="line2d_23">
    <path d="M 196.134331 123.31421 
L 204.497945 123.31421 
" clip-path="url(#p5912f5039a)" style="fill: none; stroke: #646464; stroke-linecap: round"/>
   </g>
   <g id="line2d_24">
    <path d="M 196.134331 26.848708 
L 204.497945 26.848708 
" clip-path="url(#p5912f5039a)" style="fill: none; stroke: #646464; stroke-linecap: round"/>
   </g>
   <g id="patch_14">
    <path d="M 215.848564 102.279163 
L 232.575791 102.279163 
L 232.575791 70.669422 
L 215.848564 70.669422 
L 215.848564 102.279163 
z
" clip-path="url(#p5912f5039a)" style="fill: #ebb484; stroke: #646464; stroke-linejoin: miter"/>
   </g>
   <g id="line2d_25">
    <path d="M 224.212177 102.279163 
L 224.212177 123.31421 
" clip-path="url(#p5912f5039a)" style="fill: none; stroke: #646464"/>
   </g>
   <g id="line2d_26">
    <path d="M 224.212177 70.669422 
L 224.212177 23.280439 
" clip-path="url(#p5912f5039a)" style="fill: none; stroke: #646464"/>
   </g>
   <g id="line2d_27">
    <path d="M 220.030371 123.31421 
L 228.393984 123.31421 
" clip-path="url(#p5912f5039a)" style="fill: none; stroke: #646464; stroke-linecap: round"/>
   </g>
   <g id="line2d_28">
    <path d="M 220.030371 23.280439 
L 228.393984 23.280439 
" clip-path="url(#p5912f5039a)" style="fill: none; stroke: #646464; stroke-linecap: round"/>
   </g>
   <g id="line2d_29">
    <path d="M 191.952524 92.205209 
L 208.679752 92.205209 
" clip-path="url(#p5912f5039a)" style="fill: none; stroke: #646464"/>
   </g>
   <g id="line2d_30">
    <path d="M 215.848564 90.261389 
L 232.575791 90.261389 
" clip-path="url(#p5912f5039a)" style="fill: none; stroke: #646464"/>
   </g>
   <g id="patch_15">
    <path d="M 188.368118 128.315898 
L 188.368118 18.27875 
" style="fill: none; stroke: #cccccc; stroke-width: 1.25; stroke-linejoin: miter; stroke-linecap: square"/>
   </g>
   <g id="patch_16">
    <path d="M 188.368118 128.315898 
L 236.160197 128.315898 
" style="fill: none; stroke: #cccccc; stroke-width: 1.25; stroke-linejoin: miter; stroke-linecap: square"/>
   </g>
   <g id="text_24">
    <!-- TPSA -->
    <g style="fill: #262626" transform="translate(202.058533 13.27875)scale(0.08 -0.08)">
     <defs>
      <path id="DejaVuSans-54" d="M -19 4666 
L 3928 4666 
L 3928 4134 
L 2272 4134 
L 2272 0 
L 1638 0 
L 1638 4134 
L -19 4134 
L -19 4666 
z
" transform="scale(0.015625)"/>
      <path id="DejaVuSans-53" d="M 3425 4513 
L 3425 3897 
Q 3066 4069 2747 4153 
Q 2428 4238 2131 4238 
Q 1616 4238 1336 4038 
Q 1056 3838 1056 3469 
Q 1056 3159 1242 3001 
Q 1428 2844 1947 2747 
L 2328 2669 
Q 3034 2534 3370 2195 
Q 3706 1856 3706 1288 
Q 3706 609 3251 259 
Q 2797 -91 1919 -91 
Q 1588 -91 1214 -16 
Q 841 59 441 206 
L 441 856 
Q 825 641 1194 531 
Q 1563 422 1919 422 
Q 2459 422 2753 634 
Q 3047 847 3047 1241 
Q 3047 1584 2836 1778 
Q 2625 1972 2144 2069 
L 1759 2144 
Q 1053 2284 737 2584 
Q 422 2884 422 3419 
Q 422 4038 858 4394 
Q 1294 4750 2059 4750 
Q 2388 4750 2728 4690 
Q 3069 4631 3425 4513 
z
" transform="scale(0.015625)"/>
      <path id="DejaVuSans-41" d="M 2188 4044 
L 1331 1722 
L 3047 1722 
L 2188 4044 
z
M 1831 4666 
L 2547 4666 
L 4325 0 
L 3669 0 
L 3244 1197 
L 1141 1197 
L 716 0 
L 50 0 
L 1831 4666 
z
" transform="scale(0.015625)"/>
     </defs>
     <use xlink:href="#DejaVuSans-54"/>
     <use xlink:href="#DejaVuSans-50" x="61.083984"/>
     <use xlink:href="#DejaVuSans-53" x="121.386719"/>
     <use xlink:href="#DejaVuSans-41" x="186.738281"/>
    </g>
   </g>
   <g id="legend_3"/>
  </g>
  <g id="axes_4">
   <g id="patch_17">
    <path d="M 266.010197 128.315898 
L 313.802276 128.315898 
L 313.802276 18.27875 
L 266.010197 18.27875 
z
" style="fill: #ffffff"/>
   </g>
   <g id="matplotlib.axis_7">
    <g id="xtick_7">
     <g id="text_25">
      <!-- training set -->
      <g style="fill: #262626" transform="translate(244.424562 174.47143)rotate(-45)scale(0.08 -0.08)">
       <use xlink:href="#DejaVuSans-74"/>
       <use xlink:href="#DejaVuSans-72" x="39.208984"/>
       <use xlink:href="#DejaVuSans-61" x="80.322266"/>
       <use xlink:href="#DejaVuSans-69" x="141.601562"/>
       <use xlink:href="#DejaVuSans-6e" x="169.384766"/>
       <use xlink:href="#DejaVuSans-69" x="232.763672"/>
       <use xlink:href="#DejaVuSans-6e" x="260.546875"/>
       <use xlink:href="#DejaVuSans-67" x="323.925781"/>
       <use xlink:href="#DejaVuSans-20" x="387.402344"/>
       <use xlink:href="#DejaVuSans-73" x="419.189453"/>
       <use xlink:href="#DejaVuSans-65" x="471.289062"/>
       <use xlink:href="#DejaVuSans-74" x="532.8125"/>
      </g>
     </g>
    </g>
    <g id="xtick_8">
     <g id="text_26">
      <!-- gpt1 generation -->
      <g style="fill: #262626" transform="translate(255.115382 187.676649)rotate(-45)scale(0.08 -0.08)">
       <use xlink:href="#DejaVuSans-67"/>
       <use xlink:href="#DejaVuSans-70" x="63.476562"/>
       <use xlink:href="#DejaVuSans-74" x="126.953125"/>
       <use xlink:href="#DejaVuSans-31" x="166.162109"/>
       <use xlink:href="#DejaVuSans-20" x="229.785156"/>
       <use xlink:href="#DejaVuSans-67" x="261.572266"/>
       <use xlink:href="#DejaVuSans-65" x="325.048828"/>
       <use xlink:href="#DejaVuSans-6e" x="386.572266"/>
       <use xlink:href="#DejaVuSans-65" x="449.951172"/>
       <use xlink:href="#DejaVuSans-72" x="511.474609"/>
       <use xlink:href="#DejaVuSans-61" x="552.587891"/>
       <use xlink:href="#DejaVuSans-74" x="613.867188"/>
       <use xlink:href="#DejaVuSans-69" x="653.076172"/>
       <use xlink:href="#DejaVuSans-6f" x="680.859375"/>
       <use xlink:href="#DejaVuSans-6e" x="742.041016"/>
      </g>
     </g>
    </g>
   </g>
   <g id="matplotlib.axis_8">
    <g id="ytick_16">
     <g id="text_27">
      <!-- 0.0 -->
      <g style="fill: #262626" transform="translate(247.287697 127.46034)scale(0.08 -0.08)">
       <use xlink:href="#DejaVuSans-30"/>
       <use xlink:href="#DejaVuSans-2e" x="63.623047"/>
       <use xlink:href="#DejaVuSans-30" x="95.410156"/>
      </g>
     </g>
    </g>
    <g id="ytick_17">
     <g id="text_28">
      <!-- 0.2 -->
      <g style="fill: #262626" transform="translate(247.287697 106.076648)scale(0.08 -0.08)">
       <use xlink:href="#DejaVuSans-30"/>
       <use xlink:href="#DejaVuSans-2e" x="63.623047"/>
       <use xlink:href="#DejaVuSans-32" x="95.410156"/>
      </g>
     </g>
    </g>
    <g id="ytick_18">
     <g id="text_29">
      <!-- 0.4 -->
      <g style="fill: #262626" transform="translate(247.287697 84.692956)scale(0.08 -0.08)">
       <use xlink:href="#DejaVuSans-30"/>
       <use xlink:href="#DejaVuSans-2e" x="63.623047"/>
       <use xlink:href="#DejaVuSans-34" x="95.410156"/>
      </g>
     </g>
    </g>
    <g id="ytick_19">
     <g id="text_30">
      <!-- 0.6 -->
      <g style="fill: #262626" transform="translate(247.287697 63.309264)scale(0.08 -0.08)">
       <use xlink:href="#DejaVuSans-30"/>
       <use xlink:href="#DejaVuSans-2e" x="63.623047"/>
       <use xlink:href="#DejaVuSans-36" x="95.410156"/>
      </g>
     </g>
    </g>
    <g id="ytick_20">
     <g id="text_31">
      <!-- 0.8 -->
      <g style="fill: #262626" transform="translate(247.287697 41.925572)scale(0.08 -0.08)">
       <use xlink:href="#DejaVuSans-30"/>
       <use xlink:href="#DejaVuSans-2e" x="63.623047"/>
       <use xlink:href="#DejaVuSans-38" x="95.410156"/>
      </g>
     </g>
    </g>
   </g>
   <g id="patch_18">
    <path d="M 269.594603 96.425699 
L 286.321831 96.425699 
L 286.321831 57.210122 
L 269.594603 57.210122 
L 269.594603 96.425699 
z
" clip-path="url(#p239a6a2576)" style="fill: #85abc7; stroke: #646464; stroke-linejoin: miter"/>
   </g>
   <g id="line2d_31">
    <path d="M 277.958217 96.425699 
L 277.958217 123.148258 
" clip-path="url(#p239a6a2576)" style="fill: none; stroke: #646464"/>
   </g>
   <g id="line2d_32">
    <path d="M 277.958217 57.210122 
L 277.958217 23.565668 
" clip-path="url(#p239a6a2576)" style="fill: none; stroke: #646464"/>
   </g>
   <g id="line2d_33">
    <path d="M 273.77641 123.148258 
L 282.140024 123.148258 
" clip-path="url(#p239a6a2576)" style="fill: none; stroke: #646464; stroke-linecap: round"/>
   </g>
   <g id="line2d_34">
    <path d="M 273.77641 23.565668 
L 282.140024 23.565668 
" clip-path="url(#p239a6a2576)" style="fill: none; stroke: #646464; stroke-linecap: round"/>
   </g>
   <g id="patch_19">
    <path d="M 293.490642 97.230196 
L 310.21787 97.230196 
L 310.21787 57.407271 
L 293.490642 57.407271 
L 293.490642 97.230196 
z
" clip-path="url(#p239a6a2576)" style="fill: #ebb484; stroke: #646464; stroke-linejoin: miter"/>
   </g>
   <g id="line2d_35">
    <path d="M 301.854256 97.230196 
L 301.854256 123.31421 
" clip-path="url(#p239a6a2576)" style="fill: none; stroke: #646464"/>
   </g>
   <g id="line2d_36">
    <path d="M 301.854256 57.407271 
L 301.854256 23.280439 
" clip-path="url(#p239a6a2576)" style="fill: none; stroke: #646464"/>
   </g>
   <g id="line2d_37">
    <path d="M 297.672449 123.31421 
L 306.036063 123.31421 
" clip-path="url(#p239a6a2576)" style="fill: none; stroke: #646464; stroke-linecap: round"/>
   </g>
   <g id="line2d_38">
    <path d="M 297.672449 23.280439 
L 306.036063 23.280439 
" clip-path="url(#p239a6a2576)" style="fill: none; stroke: #646464; stroke-linecap: round"/>
   </g>
   <g id="line2d_39">
    <path d="M 269.594603 75.853637 
L 286.321831 75.853637 
" clip-path="url(#p239a6a2576)" style="fill: none; stroke: #646464"/>
   </g>
   <g id="line2d_40">
    <path d="M 293.490642 77.059764 
L 310.21787 77.059764 
" clip-path="url(#p239a6a2576)" style="fill: none; stroke: #646464"/>
   </g>
   <g id="patch_20">
    <path d="M 266.010197 128.315898 
L 266.010197 18.27875 
" style="fill: none; stroke: #cccccc; stroke-width: 1.25; stroke-linejoin: miter; stroke-linecap: square"/>
   </g>
   <g id="patch_21">
    <path d="M 266.010197 128.315898 
L 313.802276 128.315898 
" style="fill: none; stroke: #cccccc; stroke-width: 1.25; stroke-linejoin: miter; stroke-linecap: square"/>
   </g>
   <g id="text_32">
    <!-- QED -->
    <g style="fill: #262626" transform="translate(281.149986 13.27875)scale(0.08 -0.08)">
     <defs>
      <path id="DejaVuSans-51" d="M 2522 4238 
Q 1834 4238 1429 3725 
Q 1025 3213 1025 2328 
Q 1025 1447 1429 934 
Q 1834 422 2522 422 
Q 3209 422 3611 934 
Q 4013 1447 4013 2328 
Q 4013 3213 3611 3725 
Q 3209 4238 2522 4238 
z
M 3406 84 
L 4238 -825 
L 3475 -825 
L 2784 -78 
Q 2681 -84 2626 -87 
Q 2572 -91 2522 -91 
Q 1538 -91 948 567 
Q 359 1225 359 2328 
Q 359 3434 948 4092 
Q 1538 4750 2522 4750 
Q 3503 4750 4090 4092 
Q 4678 3434 4678 2328 
Q 4678 1516 4351 937 
Q 4025 359 3406 84 
z
" transform="scale(0.015625)"/>
      <path id="DejaVuSans-45" d="M 628 4666 
L 3578 4666 
L 3578 4134 
L 1259 4134 
L 1259 2753 
L 3481 2753 
L 3481 2222 
L 1259 2222 
L 1259 531 
L 3634 531 
L 3634 0 
L 628 0 
L 628 4666 
z
" transform="scale(0.015625)"/>
      <path id="DejaVuSans-44" d="M 1259 4147 
L 1259 519 
L 2022 519 
Q 2988 519 3436 956 
Q 3884 1394 3884 2338 
Q 3884 3275 3436 3711 
Q 2988 4147 2022 4147 
L 1259 4147 
z
M 628 4666 
L 1925 4666 
Q 3281 4666 3915 4102 
Q 4550 3538 4550 2338 
Q 4550 1131 3912 565 
Q 3275 0 1925 0 
L 628 0 
L 628 4666 
z
" transform="scale(0.015625)"/>
     </defs>
     <use xlink:href="#DejaVuSans-51"/>
     <use xlink:href="#DejaVuSans-45" x="78.710938"/>
     <use xlink:href="#DejaVuSans-44" x="141.894531"/>
    </g>
   </g>
   <g id="legend_4"/>
  </g>
  <g id="axes_5">
   <g id="patch_22">
    <path d="M 343.652276 128.315898 
L 391.444355 128.315898 
L 391.444355 18.27875 
L 343.652276 18.27875 
z
" style="fill: #ffffff"/>
   </g>
   <g id="matplotlib.axis_9">
    <g id="xtick_9">
     <g id="text_33">
      <!-- training set -->
      <g style="fill: #262626" transform="translate(322.06664 174.47143)rotate(-45)scale(0.08 -0.08)">
       <use xlink:href="#DejaVuSans-74"/>
       <use xlink:href="#DejaVuSans-72" x="39.208984"/>
       <use xlink:href="#DejaVuSans-61" x="80.322266"/>
       <use xlink:href="#DejaVuSans-69" x="141.601562"/>
       <use xlink:href="#DejaVuSans-6e" x="169.384766"/>
       <use xlink:href="#DejaVuSans-69" x="232.763672"/>
       <use xlink:href="#DejaVuSans-6e" x="260.546875"/>
       <use xlink:href="#DejaVuSans-67" x="323.925781"/>
       <use xlink:href="#DejaVuSans-20" x="387.402344"/>
       <use xlink:href="#DejaVuSans-73" x="419.189453"/>
       <use xlink:href="#DejaVuSans-65" x="471.289062"/>
       <use xlink:href="#DejaVuSans-74" x="532.8125"/>
      </g>
     </g>
    </g>
    <g id="xtick_10">
     <g id="text_34">
      <!-- gpt1 generation -->
      <g style="fill: #262626" transform="translate(332.757461 187.676649)rotate(-45)scale(0.08 -0.08)">
       <use xlink:href="#DejaVuSans-67"/>
       <use xlink:href="#DejaVuSans-70" x="63.476562"/>
       <use xlink:href="#DejaVuSans-74" x="126.953125"/>
       <use xlink:href="#DejaVuSans-31" x="166.162109"/>
       <use xlink:href="#DejaVuSans-20" x="229.785156"/>
       <use xlink:href="#DejaVuSans-67" x="261.572266"/>
       <use xlink:href="#DejaVuSans-65" x="325.048828"/>
       <use xlink:href="#DejaVuSans-6e" x="386.572266"/>
       <use xlink:href="#DejaVuSans-65" x="449.951172"/>
       <use xlink:href="#DejaVuSans-72" x="511.474609"/>
       <use xlink:href="#DejaVuSans-61" x="552.587891"/>
       <use xlink:href="#DejaVuSans-74" x="613.867188"/>
       <use xlink:href="#DejaVuSans-69" x="653.076172"/>
       <use xlink:href="#DejaVuSans-6f" x="680.859375"/>
       <use xlink:href="#DejaVuSans-6e" x="742.041016"/>
      </g>
     </g>
    </g>
   </g>
   <g id="matplotlib.axis_10">
    <g id="ytick_21">
     <g id="text_35">
      <!-- 2 -->
      <g style="fill: #262626" transform="translate(332.562276 112.151517)scale(0.08 -0.08)">
       <use xlink:href="#DejaVuSans-32"/>
      </g>
     </g>
    </g>
    <g id="ytick_22">
     <g id="text_36">
      <!-- 4 -->
      <g style="fill: #262626" transform="translate(332.562276 83.747381)scale(0.08 -0.08)">
       <use xlink:href="#DejaVuSans-34"/>
      </g>
     </g>
    </g>
    <g id="ytick_23">
     <g id="text_37">
      <!-- 6 -->
      <g style="fill: #262626" transform="translate(332.562276 55.343245)scale(0.08 -0.08)">
       <use xlink:href="#DejaVuSans-36"/>
      </g>
     </g>
    </g>
    <g id="ytick_24">
     <g id="text_38">
      <!-- 8 -->
      <g style="fill: #262626" transform="translate(332.562276 26.939109)scale(0.08 -0.08)">
       <use xlink:href="#DejaVuSans-38"/>
      </g>
     </g>
    </g>
   </g>
   <g id="patch_23">
    <path d="M 347.236682 88.28039 
L 363.963909 88.28039 
L 363.963909 61.745287 
L 347.236682 61.745287 
L 347.236682 88.28039 
z
" clip-path="url(#p236d50c17d)" style="fill: #85abc7; stroke: #646464; stroke-linejoin: miter"/>
   </g>
   <g id="line2d_41">
    <path d="M 355.600296 88.28039 
L 355.600296 123.31421 
" clip-path="url(#p236d50c17d)" style="fill: none; stroke: #646464"/>
   </g>
   <g id="line2d_42">
    <path d="M 355.600296 61.745287 
L 355.600296 23.992659 
" clip-path="url(#p236d50c17d)" style="fill: none; stroke: #646464"/>
   </g>
   <g id="line2d_43">
    <path d="M 351.418489 123.31421 
L 359.782102 123.31421 
" clip-path="url(#p236d50c17d)" style="fill: none; stroke: #646464; stroke-linecap: round"/>
   </g>
   <g id="line2d_44">
    <path d="M 351.418489 23.992659 
L 359.782102 23.992659 
" clip-path="url(#p236d50c17d)" style="fill: none; stroke: #646464; stroke-linecap: round"/>
   </g>
   <g id="patch_24">
    <path d="M 371.132721 89.646052 
L 387.859949 89.646052 
L 387.859949 62.810589 
L 371.132721 62.810589 
L 371.132721 89.646052 
z
" clip-path="url(#p236d50c17d)" style="fill: #ebb484; stroke: #646464; stroke-linejoin: miter"/>
   </g>
   <g id="line2d_45">
    <path d="M 379.496335 89.646052 
L 379.496335 123.31421 
" clip-path="url(#p236d50c17d)" style="fill: none; stroke: #646464"/>
   </g>
   <g id="line2d_46">
    <path d="M 379.496335 62.810589 
L 379.496335 23.280439 
" clip-path="url(#p236d50c17d)" style="fill: none; stroke: #646464"/>
   </g>
   <g id="line2d_47">
    <path d="M 375.314528 123.31421 
L 383.678142 123.31421 
" clip-path="url(#p236d50c17d)" style="fill: none; stroke: #646464; stroke-linecap: round"/>
   </g>
   <g id="line2d_48">
    <path d="M 375.314528 23.280439 
L 383.678142 23.280439 
" clip-path="url(#p236d50c17d)" style="fill: none; stroke: #646464; stroke-linecap: round"/>
   </g>
   <g id="line2d_49">
    <path d="M 347.236682 73.232127 
L 363.963909 73.232127 
" clip-path="url(#p236d50c17d)" style="fill: none; stroke: #646464"/>
   </g>
   <g id="line2d_50">
    <path d="M 371.132721 75.073613 
L 387.859949 75.073613 
" clip-path="url(#p236d50c17d)" style="fill: none; stroke: #646464"/>
   </g>
   <g id="patch_25">
    <path d="M 343.652276 128.315898 
L 343.652276 18.27875 
" style="fill: none; stroke: #cccccc; stroke-width: 1.25; stroke-linejoin: miter; stroke-linecap: square"/>
   </g>
   <g id="patch_26">
    <path d="M 343.652276 128.315898 
L 391.444355 128.315898 
" style="fill: none; stroke: #cccccc; stroke-width: 1.25; stroke-linejoin: miter; stroke-linecap: square"/>
   </g>
   <g id="text_39">
    <!-- SAS -->
    <g style="fill: #262626" transform="translate(359.658315 13.27875)scale(0.08 -0.08)">
     <use xlink:href="#DejaVuSans-53"/>
     <use xlink:href="#DejaVuSans-41" x="65.351562"/>
     <use xlink:href="#DejaVuSans-53" x="133.759766"/>
    </g>
   </g>
   <g id="legend_5"/>
  </g>
 </g>
 <defs>
  <clipPath id="pf02736be99">
   <rect x="33.083961" y="18.27875" width="47.792079" height="110.037148"/>
  </clipPath>
  <clipPath id="pccd145d800">
   <rect x="110.72604" y="18.27875" width="47.792079" height="110.037148"/>
  </clipPath>
  <clipPath id="p5912f5039a">
   <rect x="188.368118" y="18.27875" width="47.792079" height="110.037148"/>
  </clipPath>
  <clipPath id="p239a6a2576">
   <rect x="266.010197" y="18.27875" width="47.792079" height="110.037148"/>
  </clipPath>
  <clipPath id="p236d50c17d">
   <rect x="343.652276" y="18.27875" width="47.792079" height="110.037148"/>
  </clipPath>
 </defs>
</svg>
