<?xml version="1.0" encoding="utf-8" standalone="no"?>
<!DOCTYPE svg PUBLIC "-//W3C//DTD SVG 1.1//EN"
  "http://www.w3.org/Graphics/SVG/1.1/DTD/svg11.dtd">
<svg xmlns:xlink="http://www.w3.org/1999/xlink" width="317.550293pt" height="175.339884pt" viewBox="0 0 317.550293 175.339884" xmlns="http://www.w3.org/2000/svg" version="1.1">
 <metadata>
  <rdf:RDF xmlns:dc="http://purl.org/dc/elements/1.1/" xmlns:cc="http://creativecommons.org/ns#" xmlns:rdf="http://www.w3.org/1999/02/22-rdf-syntax-ns#">
   <cc:Work>
    <dc:type rdf:resource="http://purl.org/dc/dcmitype/StillImage"/>
    <dc:date>2025-07-28T01:59:59.550472</dc:date>
    <dc:format>image/svg+xml</dc:format>
    <dc:creator>
     <cc:Agent>
      <dc:title>Matplotlib v3.5.0, https://matplotlib.org/</dc:title>
     </cc:Agent>
    </dc:creator>
   </cc:Work>
  </rdf:RDF>
 </metadata>
 <defs>
  <style type="text/css">*{stroke-linejoin: round; stroke-linecap: butt}</style>
 </defs>
 <g id="figure_1">
  <g id="patch_1">
   <path d="M 0 175.339884 
L 317.550293 175.339884 
L 317.550293 0 
L 0 0 
z
" style="fill: #ffffff"/>
  </g>
  <g id="axes_1">
   <g id="patch_2">
    <path d="M 32.582813 159.257072 
L 317.550293 159.257072 
L 317.550293 3.471875 
L 32.582813 3.471875 
z
" style="fill: #eaeaf2"/>
   </g>
   <g id="matplotlib.axis_1">
    <g id="xtick_1">
     <g id="line2d_1">
      <path d="M 64.040262 159.257072 
L 64.040262 3.471875 
" clip-path="url(#p7e19212852)" style="fill: none; stroke: #ffffff; stroke-linecap: round"/>
     </g>
     <g id="line2d_2"/>
     <g id="text_1">
      <!-- CharRNN+AHC -->
      <g style="fill: #262626" transform="translate(30.387137 173.200822)scale(0.1 -0.1)">
       <defs>
        <path id="TimesNewRomanPSMT-43" d="M 3853 4334 
L 3950 2894 
L 3853 2894 
Q 3659 3541 3300 3825 
Q 2941 4109 2438 4109 
Q 2016 4109 1675 3895 
Q 1334 3681 1139 3212 
Q 944 2744 944 2047 
Q 944 1472 1128 1050 
Q 1313 628 1683 403 
Q 2053 178 2528 178 
Q 2941 178 3256 354 
Q 3572 531 3950 1056 
L 4047 994 
Q 3728 428 3303 165 
Q 2878 -97 2294 -97 
Q 1241 -97 663 684 
Q 231 1266 231 2053 
Q 231 2688 515 3219 
Q 800 3750 1298 4042 
Q 1797 4334 2388 4334 
Q 2847 4334 3294 4109 
Q 3425 4041 3481 4041 
Q 3566 4041 3628 4100 
Q 3709 4184 3744 4334 
L 3853 4334 
z
" transform="scale(0.015625)"/>
        <path id="TimesNewRomanPSMT-68" d="M 1041 4444 
L 1041 2350 
Q 1388 2731 1591 2839 
Q 1794 2947 1997 2947 
Q 2241 2947 2416 2812 
Q 2591 2678 2675 2391 
Q 2734 2191 2734 1659 
L 2734 647 
Q 2734 375 2778 275 
Q 2809 200 2884 156 
Q 2959 113 3159 113 
L 3159 0 
L 1753 0 
L 1753 113 
L 1819 113 
Q 2019 113 2097 173 
Q 2175 234 2206 353 
Q 2216 403 2216 647 
L 2216 1659 
Q 2216 2128 2167 2275 
Q 2119 2422 2012 2495 
Q 1906 2569 1756 2569 
Q 1603 2569 1437 2487 
Q 1272 2406 1041 2159 
L 1041 647 
Q 1041 353 1073 281 
Q 1106 209 1195 161 
Q 1284 113 1503 113 
L 1503 0 
L 84 0 
L 84 113 
Q 275 113 384 172 
Q 447 203 484 290 
Q 522 378 522 647 
L 522 3238 
Q 522 3728 498 3840 
Q 475 3953 426 3993 
Q 378 4034 297 4034 
Q 231 4034 84 3984 
L 41 4094 
L 897 4444 
L 1041 4444 
z
" transform="scale(0.015625)"/>
        <path id="TimesNewRomanPSMT-61" d="M 1822 413 
Q 1381 72 1269 19 
Q 1100 -59 909 -59 
Q 613 -59 420 144 
Q 228 347 228 678 
Q 228 888 322 1041 
Q 450 1253 767 1440 
Q 1084 1628 1822 1897 
L 1822 2009 
Q 1822 2438 1686 2597 
Q 1550 2756 1291 2756 
Q 1094 2756 978 2650 
Q 859 2544 859 2406 
L 866 2225 
Q 866 2081 792 2003 
Q 719 1925 600 1925 
Q 484 1925 411 2006 
Q 338 2088 338 2228 
Q 338 2497 613 2722 
Q 888 2947 1384 2947 
Q 1766 2947 2009 2819 
Q 2194 2722 2281 2516 
Q 2338 2381 2338 1966 
L 2338 994 
Q 2338 584 2353 492 
Q 2369 400 2405 369 
Q 2441 338 2488 338 
Q 2538 338 2575 359 
Q 2641 400 2828 588 
L 2828 413 
Q 2478 -56 2159 -56 
Q 2006 -56 1915 50 
Q 1825 156 1822 413 
z
M 1822 616 
L 1822 1706 
Q 1350 1519 1213 1441 
Q 966 1303 859 1153 
Q 753 1003 753 825 
Q 753 600 887 451 
Q 1022 303 1197 303 
Q 1434 303 1822 616 
z
" transform="scale(0.015625)"/>
        <path id="TimesNewRomanPSMT-72" d="M 1038 2947 
L 1038 2303 
Q 1397 2947 1775 2947 
Q 1947 2947 2059 2842 
Q 2172 2738 2172 2600 
Q 2172 2478 2090 2393 
Q 2009 2309 1897 2309 
Q 1788 2309 1652 2417 
Q 1516 2525 1450 2525 
Q 1394 2525 1328 2463 
Q 1188 2334 1038 2041 
L 1038 669 
Q 1038 431 1097 309 
Q 1138 225 1241 169 
Q 1344 113 1538 113 
L 1538 0 
L 72 0 
L 72 113 
Q 291 113 397 181 
Q 475 231 506 341 
Q 522 394 522 644 
L 522 1753 
Q 522 2253 501 2348 
Q 481 2444 426 2487 
Q 372 2531 291 2531 
Q 194 2531 72 2484 
L 41 2597 
L 906 2947 
L 1038 2947 
z
" transform="scale(0.015625)"/>
        <path id="TimesNewRomanPSMT-52" d="M 4325 0 
L 3194 0 
L 1759 1981 
Q 1600 1975 1500 1975 
Q 1459 1975 1412 1976 
Q 1366 1978 1316 1981 
L 1316 750 
Q 1316 350 1403 253 
Q 1522 116 1759 116 
L 1925 116 
L 1925 0 
L 109 0 
L 109 116 
L 269 116 
Q 538 116 653 291 
Q 719 388 719 750 
L 719 3488 
Q 719 3888 631 3984 
Q 509 4122 269 4122 
L 109 4122 
L 109 4238 
L 1653 4238 
Q 2328 4238 2648 4139 
Q 2969 4041 3192 3777 
Q 3416 3513 3416 3147 
Q 3416 2756 3161 2468 
Q 2906 2181 2372 2063 
L 3247 847 
Q 3547 428 3762 290 
Q 3978 153 4325 116 
L 4325 0 
z
M 1316 2178 
Q 1375 2178 1419 2176 
Q 1463 2175 1491 2175 
Q 2097 2175 2405 2437 
Q 2713 2700 2713 3106 
Q 2713 3503 2464 3751 
Q 2216 4000 1806 4000 
Q 1625 4000 1316 3941 
L 1316 2178 
z
" transform="scale(0.015625)"/>
        <path id="TimesNewRomanPSMT-4e" d="M -84 4238 
L 1066 4238 
L 3656 1059 
L 3656 3503 
Q 3656 3894 3569 3991 
Q 3453 4122 3203 4122 
L 3056 4122 
L 3056 4238 
L 4531 4238 
L 4531 4122 
L 4381 4122 
Q 4113 4122 4000 3959 
Q 3931 3859 3931 3503 
L 3931 -69 
L 3819 -69 
L 1025 3344 
L 1025 734 
Q 1025 344 1109 247 
Q 1228 116 1475 116 
L 1625 116 
L 1625 0 
L 150 0 
L 150 116 
L 297 116 
Q 569 116 681 278 
Q 750 378 750 734 
L 750 3681 
Q 566 3897 470 3965 
Q 375 4034 191 4094 
Q 100 4122 -84 4122 
L -84 4238 
z
" transform="scale(0.015625)"/>
        <path id="TimesNewRomanPSMT-2b" d="M 1672 441 
L 1672 2000 
L 116 2000 
L 116 2256 
L 1672 2256 
L 1672 3809 
L 1922 3809 
L 1922 2256 
L 3484 2256 
L 3484 2000 
L 1922 2000 
L 1922 441 
L 1672 441 
z
" transform="scale(0.015625)"/>
        <path id="TimesNewRomanPSMT-41" d="M 2928 1419 
L 1288 1419 
L 1000 750 
Q 894 503 894 381 
Q 894 284 986 211 
Q 1078 138 1384 116 
L 1384 0 
L 50 0 
L 50 116 
Q 316 163 394 238 
Q 553 388 747 847 
L 2238 4334 
L 2347 4334 
L 3822 809 
Q 4000 384 4145 257 
Q 4291 131 4550 116 
L 4550 0 
L 2878 0 
L 2878 116 
Q 3131 128 3220 200 
Q 3309 272 3309 375 
Q 3309 513 3184 809 
L 2928 1419 
z
M 2841 1650 
L 2122 3363 
L 1384 1650 
L 2841 1650 
z
" transform="scale(0.015625)"/>
        <path id="TimesNewRomanPSMT-48" d="M 1316 2272 
L 3284 2272 
L 3284 3484 
Q 3284 3809 3244 3913 
Q 3213 3991 3113 4047 
Q 2978 4122 2828 4122 
L 2678 4122 
L 2678 4238 
L 4491 4238 
L 4491 4122 
L 4341 4122 
Q 4191 4122 4056 4050 
Q 3956 4000 3920 3898 
Q 3884 3797 3884 3484 
L 3884 750 
Q 3884 428 3925 325 
Q 3956 247 4053 191 
Q 4191 116 4341 116 
L 4491 116 
L 4491 0 
L 2678 0 
L 2678 116 
L 2828 116 
Q 3088 116 3206 269 
Q 3284 369 3284 750 
L 3284 2041 
L 1316 2041 
L 1316 750 
Q 1316 428 1356 325 
Q 1388 247 1488 191 
Q 1622 116 1772 116 
L 1925 116 
L 1925 0 
L 109 0 
L 109 116 
L 259 116 
Q 522 116 641 269 
Q 716 369 716 750 
L 716 3484 
Q 716 3809 675 3913 
Q 644 3991 547 4047 
Q 409 4122 259 4122 
L 109 4122 
L 109 4238 
L 1925 4238 
L 1925 4122 
L 1772 4122 
Q 1622 4122 1488 4050 
Q 1391 4000 1353 3898 
Q 1316 3797 1316 3484 
L 1316 2272 
z
" transform="scale(0.015625)"/>
       </defs>
       <use xlink:href="#TimesNewRomanPSMT-43"/>
       <use xlink:href="#TimesNewRomanPSMT-68" x="66.699219"/>
       <use xlink:href="#TimesNewRomanPSMT-61" x="116.699219"/>
       <use xlink:href="#TimesNewRomanPSMT-72" x="161.083984"/>
       <use xlink:href="#TimesNewRomanPSMT-52" x="194.384766"/>
       <use xlink:href="#TimesNewRomanPSMT-4e" x="261.083984"/>
       <use xlink:href="#TimesNewRomanPSMT-4e" x="333.300781"/>
       <use xlink:href="#TimesNewRomanPSMT-2b" x="405.517578"/>
       <use xlink:href="#TimesNewRomanPSMT-41" x="461.914062"/>
       <use xlink:href="#TimesNewRomanPSMT-48" x="534.130859"/>
       <use xlink:href="#TimesNewRomanPSMT-43" x="606.347656"/>
      </g>
     </g>
    </g>
    <g id="xtick_2">
     <g id="line2d_3">
      <path d="M 138.057789 159.257072 
L 138.057789 3.471875 
" clip-path="url(#p7e19212852)" style="fill: none; stroke: #ffffff; stroke-linecap: round"/>
     </g>
     <g id="line2d_4"/>
     <g id="text_2">
      <!-- MolGPT+AHC -->
      <g style="fill: #262626" transform="translate(106.900758 173.200822)scale(0.1 -0.1)">
       <defs>
        <path id="TimesNewRomanPSMT-4d" d="M 2619 0 
L 981 3566 
L 981 734 
Q 981 344 1066 247 
Q 1181 116 1431 116 
L 1581 116 
L 1581 0 
L 106 0 
L 106 116 
L 256 116 
Q 525 116 638 278 
Q 706 378 706 734 
L 706 3503 
Q 706 3784 644 3909 
Q 600 4000 483 4061 
Q 366 4122 106 4122 
L 106 4238 
L 1306 4238 
L 2844 922 
L 4356 4238 
L 5556 4238 
L 5556 4122 
L 5409 4122 
Q 5138 4122 5025 3959 
Q 4956 3859 4956 3503 
L 4956 734 
Q 4956 344 5044 247 
Q 5159 116 5409 116 
L 5556 116 
L 5556 0 
L 3756 0 
L 3756 116 
L 3906 116 
Q 4178 116 4288 278 
Q 4356 378 4356 734 
L 4356 3566 
L 2722 0 
L 2619 0 
z
" transform="scale(0.015625)"/>
        <path id="TimesNewRomanPSMT-6f" d="M 1600 2947 
Q 2250 2947 2644 2453 
Q 2978 2031 2978 1484 
Q 2978 1100 2793 706 
Q 2609 313 2286 112 
Q 1963 -88 1566 -88 
Q 919 -88 538 428 
Q 216 863 216 1403 
Q 216 1797 411 2186 
Q 606 2575 925 2761 
Q 1244 2947 1600 2947 
z
M 1503 2744 
Q 1338 2744 1170 2645 
Q 1003 2547 900 2300 
Q 797 2053 797 1666 
Q 797 1041 1045 587 
Q 1294 134 1700 134 
Q 2003 134 2200 384 
Q 2397 634 2397 1244 
Q 2397 2006 2069 2444 
Q 1847 2744 1503 2744 
z
" transform="scale(0.015625)"/>
        <path id="TimesNewRomanPSMT-6c" d="M 1184 4444 
L 1184 647 
Q 1184 378 1223 290 
Q 1263 203 1344 158 
Q 1425 113 1647 113 
L 1647 0 
L 244 0 
L 244 113 
Q 441 113 512 153 
Q 584 194 625 287 
Q 666 381 666 647 
L 666 3247 
Q 666 3731 644 3842 
Q 622 3953 573 3993 
Q 525 4034 450 4034 
Q 369 4034 244 3984 
L 191 4094 
L 1044 4444 
L 1184 4444 
z
" transform="scale(0.015625)"/>
        <path id="TimesNewRomanPSMT-47" d="M 3928 4334 
L 4038 2997 
L 3928 2997 
Q 3763 3497 3500 3750 
Q 3122 4116 2528 4116 
Q 1719 4116 1297 3475 
Q 944 2934 944 2188 
Q 944 1581 1178 1081 
Q 1413 581 1792 348 
Q 2172 116 2572 116 
Q 2806 116 3025 175 
Q 3244 234 3447 350 
L 3447 1575 
Q 3447 1894 3398 1992 
Q 3350 2091 3248 2142 
Q 3147 2194 2891 2194 
L 2891 2313 
L 4531 2313 
L 4531 2194 
L 4453 2194 
Q 4209 2194 4119 2031 
Q 4056 1916 4056 1575 
L 4056 278 
Q 3697 84 3347 -6 
Q 2997 -97 2569 -97 
Q 1341 -97 703 691 
Q 225 1281 225 2053 
Q 225 2613 494 3125 
Q 813 3734 1369 4063 
Q 1834 4334 2469 4334 
Q 2700 4334 2889 4296 
Q 3078 4259 3425 4131 
Q 3600 4066 3659 4066 
Q 3719 4066 3761 4120 
Q 3803 4175 3813 4334 
L 3928 4334 
z
" transform="scale(0.015625)"/>
        <path id="TimesNewRomanPSMT-50" d="M 1313 1984 
L 1313 750 
Q 1313 350 1400 253 
Q 1519 116 1759 116 
L 1922 116 
L 1922 0 
L 106 0 
L 106 116 
L 266 116 
Q 534 116 650 291 
Q 713 388 713 750 
L 713 3488 
Q 713 3888 628 3984 
Q 506 4122 266 4122 
L 106 4122 
L 106 4238 
L 1659 4238 
Q 2228 4238 2556 4120 
Q 2884 4003 3109 3725 
Q 3334 3447 3334 3066 
Q 3334 2547 2992 2222 
Q 2650 1897 2025 1897 
Q 1872 1897 1694 1919 
Q 1516 1941 1313 1984 
z
M 1313 2163 
Q 1478 2131 1606 2115 
Q 1734 2100 1825 2100 
Q 2150 2100 2386 2351 
Q 2622 2603 2622 3003 
Q 2622 3278 2509 3514 
Q 2397 3750 2190 3867 
Q 1984 3984 1722 3984 
Q 1563 3984 1313 3925 
L 1313 2163 
z
" transform="scale(0.015625)"/>
        <path id="TimesNewRomanPSMT-54" d="M 3703 4238 
L 3750 3244 
L 3631 3244 
Q 3597 3506 3538 3619 
Q 3441 3800 3280 3886 
Q 3119 3972 2856 3972 
L 2259 3972 
L 2259 734 
Q 2259 344 2344 247 
Q 2463 116 2709 116 
L 2856 116 
L 2856 0 
L 1059 0 
L 1059 116 
L 1209 116 
Q 1478 116 1591 278 
Q 1659 378 1659 734 
L 1659 3972 
L 1150 3972 
Q 853 3972 728 3928 
Q 566 3869 450 3700 
Q 334 3531 313 3244 
L 194 3244 
L 244 4238 
L 3703 4238 
z
" transform="scale(0.015625)"/>
       </defs>
       <use xlink:href="#TimesNewRomanPSMT-4d"/>
       <use xlink:href="#TimesNewRomanPSMT-6f" x="88.916016"/>
       <use xlink:href="#TimesNewRomanPSMT-6c" x="138.916016"/>
       <use xlink:href="#TimesNewRomanPSMT-47" x="166.699219"/>
       <use xlink:href="#TimesNewRomanPSMT-50" x="238.916016"/>
       <use xlink:href="#TimesNewRomanPSMT-54" x="294.53125"/>
       <use xlink:href="#TimesNewRomanPSMT-2b" x="355.615234"/>
       <use xlink:href="#TimesNewRomanPSMT-41" x="412.011719"/>
       <use xlink:href="#TimesNewRomanPSMT-48" x="484.228516"/>
       <use xlink:href="#TimesNewRomanPSMT-43" x="556.445312"/>
      </g>
     </g>
    </g>
    <g id="xtick_3">
     <g id="line2d_5">
      <path d="M 212.075316 159.257072 
L 212.075316 3.471875 
" clip-path="url(#p7e19212852)" style="fill: none; stroke: #ffffff; stroke-linecap: round"/>
     </g>
     <g id="line2d_6"/>
     <g id="text_3">
      <!-- VAE+AHC -->
      <g style="fill: #262626" transform="translate(189.066723 173.200822)scale(0.1 -0.1)">
       <defs>
        <path id="TimesNewRomanPSMT-56" d="M 4544 4238 
L 4544 4122 
Q 4319 4081 4203 3978 
Q 4038 3825 3909 3509 
L 2431 -97 
L 2316 -97 
L 728 3556 
Q 606 3838 556 3900 
Q 478 3997 364 4051 
Q 250 4106 56 4122 
L 56 4238 
L 1788 4238 
L 1788 4122 
Q 1494 4094 1406 4022 
Q 1319 3950 1319 3838 
Q 1319 3681 1463 3350 
L 2541 866 
L 3541 3319 
Q 3688 3681 3688 3822 
Q 3688 3913 3597 3995 
Q 3506 4078 3291 4113 
Q 3275 4116 3238 4122 
L 3238 4238 
L 4544 4238 
z
" transform="scale(0.015625)"/>
        <path id="TimesNewRomanPSMT-45" d="M 1338 4006 
L 1338 2331 
L 2269 2331 
Q 2631 2331 2753 2441 
Q 2916 2584 2934 2947 
L 3050 2947 
L 3050 1472 
L 2934 1472 
Q 2891 1781 2847 1869 
Q 2791 1978 2662 2040 
Q 2534 2103 2269 2103 
L 1338 2103 
L 1338 706 
Q 1338 425 1363 364 
Q 1388 303 1450 267 
Q 1513 231 1688 231 
L 2406 231 
Q 2766 231 2928 281 
Q 3091 331 3241 478 
Q 3434 672 3638 1063 
L 3763 1063 
L 3397 0 
L 131 0 
L 131 116 
L 281 116 
Q 431 116 566 188 
Q 666 238 702 338 
Q 738 438 738 747 
L 738 3500 
Q 738 3903 656 3997 
Q 544 4122 281 4122 
L 131 4122 
L 131 4238 
L 3397 4238 
L 3444 3309 
L 3322 3309 
Q 3256 3644 3176 3769 
Q 3097 3894 2941 3959 
Q 2816 4006 2500 4006 
L 1338 4006 
z
" transform="scale(0.015625)"/>
       </defs>
       <use xlink:href="#TimesNewRomanPSMT-56"/>
       <use xlink:href="#TimesNewRomanPSMT-41" x="59.341797"/>
       <use xlink:href="#TimesNewRomanPSMT-45" x="131.558594"/>
       <use xlink:href="#TimesNewRomanPSMT-2b" x="192.642578"/>
       <use xlink:href="#TimesNewRomanPSMT-41" x="249.039062"/>
       <use xlink:href="#TimesNewRomanPSMT-48" x="321.255859"/>
       <use xlink:href="#TimesNewRomanPSMT-43" x="393.472656"/>
      </g>
     </g>
    </g>
    <g id="xtick_4">
     <g id="line2d_7">
      <path d="M 286.092844 159.257072 
L 286.092844 3.471875 
" clip-path="url(#p7e19212852)" style="fill: none; stroke: #ffffff; stroke-linecap: round"/>
     </g>
     <g id="line2d_8"/>
     <g id="text_4">
      <!-- NPDL-GEN -->
      <g style="fill: #262626" transform="translate(261.095969 173.200822)scale(0.1 -0.1)">
       <defs>
        <path id="TimesNewRomanPSMT-44" d="M 109 0 
L 109 116 
L 269 116 
Q 538 116 650 288 
Q 719 391 719 750 
L 719 3488 
Q 719 3884 631 3984 
Q 509 4122 269 4122 
L 109 4122 
L 109 4238 
L 1834 4238 
Q 2784 4238 3279 4022 
Q 3775 3806 4076 3303 
Q 4378 2800 4378 2141 
Q 4378 1256 3841 663 
Q 3238 0 2003 0 
L 109 0 
z
M 1319 306 
Q 1716 219 1984 219 
Q 2709 219 3187 728 
Q 3666 1238 3666 2109 
Q 3666 2988 3187 3494 
Q 2709 4000 1959 4000 
Q 1678 4000 1319 3909 
L 1319 306 
z
" transform="scale(0.015625)"/>
        <path id="TimesNewRomanPSMT-4c" d="M 3669 1172 
L 3772 1150 
L 3409 0 
L 128 0 
L 128 116 
L 288 116 
Q 556 116 672 291 
Q 738 391 738 753 
L 738 3488 
Q 738 3884 650 3984 
Q 528 4122 288 4122 
L 128 4122 
L 128 4238 
L 2047 4238 
L 2047 4122 
Q 1709 4125 1573 4059 
Q 1438 3994 1388 3894 
Q 1338 3794 1338 3416 
L 1338 753 
Q 1338 494 1388 397 
Q 1425 331 1503 300 
Q 1581 269 1991 269 
L 2300 269 
Q 2788 269 2984 341 
Q 3181 413 3343 595 
Q 3506 778 3669 1172 
z
" transform="scale(0.015625)"/>
        <path id="TimesNewRomanPSMT-2d" d="M 259 1672 
L 1875 1672 
L 1875 1200 
L 259 1200 
L 259 1672 
z
" transform="scale(0.015625)"/>
       </defs>
       <use xlink:href="#TimesNewRomanPSMT-4e"/>
       <use xlink:href="#TimesNewRomanPSMT-50" x="72.216797"/>
       <use xlink:href="#TimesNewRomanPSMT-44" x="127.832031"/>
       <use xlink:href="#TimesNewRomanPSMT-4c" x="200.048828"/>
       <use xlink:href="#TimesNewRomanPSMT-2d" x="261.132812"/>
       <use xlink:href="#TimesNewRomanPSMT-47" x="294.433594"/>
       <use xlink:href="#TimesNewRomanPSMT-45" x="366.650391"/>
       <use xlink:href="#TimesNewRomanPSMT-4e" x="427.734375"/>
      </g>
     </g>
    </g>
   </g>
   <g id="matplotlib.axis_2">
    <g id="ytick_1">
     <g id="line2d_9">
      <path d="M 32.582813 159.257072 
L 317.550293 159.257072 
" clip-path="url(#p7e19212852)" style="fill: none; stroke: #ffffff; stroke-linecap: round"/>
     </g>
     <g id="line2d_10"/>
     <g id="text_5">
      <!-- 0.0 -->
      <g style="fill: #262626" transform="translate(13.082813 162.728947)scale(0.1 -0.1)">
       <defs>
        <path id="TimesNewRomanPSMT-30" d="M 231 2094 
Q 231 2819 450 3342 
Q 669 3866 1031 4122 
Q 1313 4325 1613 4325 
Q 2100 4325 2488 3828 
Q 2972 3213 2972 2159 
Q 2972 1422 2759 906 
Q 2547 391 2217 158 
Q 1888 -75 1581 -75 
Q 975 -75 572 641 
Q 231 1244 231 2094 
z
M 844 2016 
Q 844 1141 1059 588 
Q 1238 122 1591 122 
Q 1759 122 1940 273 
Q 2122 425 2216 781 
Q 2359 1319 2359 2297 
Q 2359 3022 2209 3506 
Q 2097 3866 1919 4016 
Q 1791 4119 1609 4119 
Q 1397 4119 1231 3928 
Q 1006 3669 925 3112 
Q 844 2556 844 2016 
z
" transform="scale(0.015625)"/>
        <path id="TimesNewRomanPSMT-2e" d="M 800 606 
Q 947 606 1047 504 
Q 1147 403 1147 259 
Q 1147 116 1045 14 
Q 944 -88 800 -88 
Q 656 -88 554 14 
Q 453 116 453 259 
Q 453 406 554 506 
Q 656 606 800 606 
z
" transform="scale(0.015625)"/>
       </defs>
       <use xlink:href="#TimesNewRomanPSMT-30"/>
       <use xlink:href="#TimesNewRomanPSMT-2e" x="50"/>
       <use xlink:href="#TimesNewRomanPSMT-30" x="75"/>
      </g>
     </g>
    </g>
    <g id="ytick_2">
     <g id="line2d_11">
      <path d="M 32.582813 128.100032 
L 317.550293 128.100032 
" clip-path="url(#p7e19212852)" style="fill: none; stroke: #ffffff; stroke-linecap: round"/>
     </g>
     <g id="line2d_12"/>
     <g id="text_6">
      <!-- 0.2 -->
      <g style="fill: #262626" transform="translate(13.082813 131.571907)scale(0.1 -0.1)">
       <defs>
        <path id="TimesNewRomanPSMT-32" d="M 2934 816 
L 2638 0 
L 138 0 
L 138 116 
Q 1241 1122 1691 1759 
Q 2141 2397 2141 2925 
Q 2141 3328 1894 3587 
Q 1647 3847 1303 3847 
Q 991 3847 742 3664 
Q 494 3481 375 3128 
L 259 3128 
Q 338 3706 661 4015 
Q 984 4325 1469 4325 
Q 1984 4325 2329 3994 
Q 2675 3663 2675 3213 
Q 2675 2891 2525 2569 
Q 2294 2063 1775 1497 
Q 997 647 803 472 
L 1909 472 
Q 2247 472 2383 497 
Q 2519 522 2628 598 
Q 2738 675 2819 816 
L 2934 816 
z
" transform="scale(0.015625)"/>
       </defs>
       <use xlink:href="#TimesNewRomanPSMT-30"/>
       <use xlink:href="#TimesNewRomanPSMT-2e" x="50"/>
       <use xlink:href="#TimesNewRomanPSMT-32" x="75"/>
      </g>
     </g>
    </g>
    <g id="ytick_3">
     <g id="line2d_13">
      <path d="M 32.582813 96.942993 
L 317.550293 96.942993 
" clip-path="url(#p7e19212852)" style="fill: none; stroke: #ffffff; stroke-linecap: round"/>
     </g>
     <g id="line2d_14"/>
     <g id="text_7">
      <!-- 0.4 -->
      <g style="fill: #262626" transform="translate(13.082813 100.414868)scale(0.1 -0.1)">
       <defs>
        <path id="TimesNewRomanPSMT-34" d="M 2978 1563 
L 2978 1119 
L 2409 1119 
L 2409 0 
L 1894 0 
L 1894 1119 
L 100 1119 
L 100 1519 
L 2066 4325 
L 2409 4325 
L 2409 1563 
L 2978 1563 
z
M 1894 1563 
L 1894 3666 
L 406 1563 
L 1894 1563 
z
" transform="scale(0.015625)"/>
       </defs>
       <use xlink:href="#TimesNewRomanPSMT-30"/>
       <use xlink:href="#TimesNewRomanPSMT-2e" x="50"/>
       <use xlink:href="#TimesNewRomanPSMT-34" x="75"/>
      </g>
     </g>
    </g>
    <g id="ytick_4">
     <g id="line2d_15">
      <path d="M 32.582813 65.785954 
L 317.550293 65.785954 
" clip-path="url(#p7e19212852)" style="fill: none; stroke: #ffffff; stroke-linecap: round"/>
     </g>
     <g id="line2d_16"/>
     <g id="text_8">
      <!-- 0.6 -->
      <g style="fill: #262626" transform="translate(13.082813 69.257829)scale(0.1 -0.1)">
       <defs>
        <path id="TimesNewRomanPSMT-36" d="M 2869 4325 
L 2869 4209 
Q 2456 4169 2195 4045 
Q 1934 3922 1679 3669 
Q 1425 3416 1258 3105 
Q 1091 2794 978 2366 
Q 1428 2675 1881 2675 
Q 2316 2675 2634 2325 
Q 2953 1975 2953 1425 
Q 2953 894 2631 456 
Q 2244 -75 1606 -75 
Q 1172 -75 869 213 
Q 275 772 275 1663 
Q 275 2231 503 2743 
Q 731 3256 1154 3653 
Q 1578 4050 1965 4187 
Q 2353 4325 2688 4325 
L 2869 4325 
z
M 925 2138 
Q 869 1716 869 1456 
Q 869 1156 980 804 
Q 1091 453 1309 247 
Q 1469 100 1697 100 
Q 1969 100 2183 356 
Q 2397 613 2397 1088 
Q 2397 1622 2184 2012 
Q 1972 2403 1581 2403 
Q 1463 2403 1327 2353 
Q 1191 2303 925 2138 
z
" transform="scale(0.015625)"/>
       </defs>
       <use xlink:href="#TimesNewRomanPSMT-30"/>
       <use xlink:href="#TimesNewRomanPSMT-2e" x="50"/>
       <use xlink:href="#TimesNewRomanPSMT-36" x="75"/>
      </g>
     </g>
    </g>
    <g id="ytick_5">
     <g id="line2d_17">
      <path d="M 32.582813 34.628914 
L 317.550293 34.628914 
" clip-path="url(#p7e19212852)" style="fill: none; stroke: #ffffff; stroke-linecap: round"/>
     </g>
     <g id="line2d_18"/>
     <g id="text_9">
      <!-- 0.8 -->
      <g style="fill: #262626" transform="translate(13.082813 38.100789)scale(0.1 -0.1)">
       <defs>
        <path id="TimesNewRomanPSMT-38" d="M 1228 2134 
Q 725 2547 579 2797 
Q 434 3047 434 3316 
Q 434 3728 753 4026 
Q 1072 4325 1600 4325 
Q 2113 4325 2425 4047 
Q 2738 3769 2738 3413 
Q 2738 3175 2569 2928 
Q 2400 2681 1866 2347 
Q 2416 1922 2594 1678 
Q 2831 1359 2831 1006 
Q 2831 559 2490 242 
Q 2150 -75 1597 -75 
Q 994 -75 656 303 
Q 388 606 388 966 
Q 388 1247 577 1523 
Q 766 1800 1228 2134 
z
M 1719 2469 
Q 2094 2806 2194 3001 
Q 2294 3197 2294 3444 
Q 2294 3772 2109 3958 
Q 1925 4144 1606 4144 
Q 1288 4144 1088 3959 
Q 888 3775 888 3528 
Q 888 3366 970 3203 
Q 1053 3041 1206 2894 
L 1719 2469 
z
M 1375 2016 
Q 1116 1797 991 1539 
Q 866 1281 866 981 
Q 866 578 1086 336 
Q 1306 94 1647 94 
Q 1984 94 2187 284 
Q 2391 475 2391 747 
Q 2391 972 2272 1150 
Q 2050 1481 1375 2016 
z
" transform="scale(0.015625)"/>
       </defs>
       <use xlink:href="#TimesNewRomanPSMT-30"/>
       <use xlink:href="#TimesNewRomanPSMT-2e" x="50"/>
       <use xlink:href="#TimesNewRomanPSMT-38" x="75"/>
      </g>
     </g>
    </g>
    <g id="ytick_6">
     <g id="line2d_19">
      <path d="M 32.582813 3.471875 
L 317.550293 3.471875 
" clip-path="url(#p7e19212852)" style="fill: none; stroke: #ffffff; stroke-linecap: round"/>
     </g>
     <g id="line2d_20"/>
     <g id="text_10">
      <!-- 1.0 -->
      <g style="fill: #262626" transform="translate(13.082813 6.94375)scale(0.1 -0.1)">
       <defs>
        <path id="TimesNewRomanPSMT-31" d="M 750 3822 
L 1781 4325 
L 1884 4325 
L 1884 747 
Q 1884 391 1914 303 
Q 1944 216 2037 169 
Q 2131 122 2419 116 
L 2419 0 
L 825 0 
L 825 116 
Q 1125 122 1212 167 
Q 1300 213 1334 289 
Q 1369 366 1369 747 
L 1369 3034 
Q 1369 3497 1338 3628 
Q 1316 3728 1258 3775 
Q 1200 3822 1119 3822 
Q 1003 3822 797 3725 
L 750 3822 
z
" transform="scale(0.015625)"/>
       </defs>
       <use xlink:href="#TimesNewRomanPSMT-31"/>
       <use xlink:href="#TimesNewRomanPSMT-2e" x="50"/>
       <use xlink:href="#TimesNewRomanPSMT-30" x="75"/>
      </g>
     </g>
    </g>
    <g id="text_11">
     <!-- QED -->
     <g style="fill: #262626" transform="translate(6.94375 91.640255)rotate(-90)scale(0.1 -0.1)">
      <defs>
       <path id="TimesNewRomanPSMT-51" d="M 2819 -47 
Q 3138 -597 3508 -856 
Q 3878 -1116 4350 -1153 
L 4350 -1253 
Q 3919 -1238 3428 -1080 
Q 2938 -922 2498 -642 
Q 2059 -363 1741 -47 
Q 1291 134 1028 338 
Q 647 641 436 1083 
Q 225 1525 225 2128 
Q 225 3078 840 3706 
Q 1456 4334 2331 4334 
Q 3163 4334 3770 3704 
Q 4378 3075 4378 2116 
Q 4378 1338 3945 750 
Q 3513 163 2819 -47 
z
M 2294 4094 
Q 1725 4094 1378 3688 
Q 941 3178 941 2128 
Q 941 1100 1384 544 
Q 1728 116 2294 116 
Q 2881 116 3241 544 
Q 3663 1050 3663 2038 
Q 3663 2797 3431 3316 
Q 3253 3716 2958 3905 
Q 2663 4094 2294 4094 
z
" transform="scale(0.015625)"/>
      </defs>
      <use xlink:href="#TimesNewRomanPSMT-51"/>
      <use xlink:href="#TimesNewRomanPSMT-45" x="72.216797"/>
      <use xlink:href="#TimesNewRomanPSMT-44" x="133.300781"/>
     </g>
    </g>
   </g>
   <g id="PolyCollection_1">
    <defs>
     <path id="mfaa9316880" d="M 64.108104 -35.094162 
L 63.972419 -35.094162 
L 63.962471 -36.391516 
L 63.951212 -37.68887 
L 63.937499 -38.986223 
L 63.920476 -40.283577 
L 63.899831 -41.580931 
L 63.875781 -42.878284 
L 63.8488 -44.175638 
L 63.819309 -45.472992 
L 63.787526 -46.770345 
L 63.753553 -48.067699 
L 63.717622 -49.365053 
L 63.680317 -50.662406 
L 63.642592 -51.95976 
L 63.605506 -53.257113 
L 63.569704 -54.554467 
L 63.534809 -55.851821 
L 63.498971 -57.149174 
L 63.458775 -58.446528 
L 63.409625 -59.743882 
L 63.346549 -61.041235 
L 63.265269 -62.338589 
L 63.163353 -63.635943 
L 63.041243 -64.933296 
L 62.902847 -66.23065 
L 62.75533 -67.528004 
L 62.607845 -68.825357 
L 62.469283 -70.122711 
L 62.345712 -71.420064 
L 62.238441 -72.717418 
L 62.143497 -74.014772 
L 62.052665 -75.312125 
L 61.955494 -76.609479 
L 61.841328 -77.906833 
L 61.700618 -79.204186 
L 61.525379 -80.50154 
L 61.309282 -81.798894 
L 61.04803 -83.096247 
L 60.740406 -84.393601 
L 60.389727 -85.690955 
L 60.00481 -86.988308 
L 59.599304 -88.285662 
L 59.188665 -89.583015 
L 58.785037 -90.880369 
L 58.391653 -92.177723 
L 57.999165 -93.475076 
L 57.586085 -94.77243 
L 57.123921 -96.069784 
L 56.585528 -97.367137 
L 55.953615 -98.664491 
L 55.226322 -99.961845 
L 54.41822 -101.259198 
L 53.557056 -102.556552 
L 52.677947 -103.853906 
L 51.816929 -105.151259 
L 51.005129 -106.448613 
L 50.264213 -107.745966 
L 49.603644 -109.04332 
L 49.020502 -110.340674 
L 48.502411 -111.638027 
L 48.033157 -112.935381 
L 47.599181 -114.232735 
L 47.194398 -115.530088 
L 46.821378 -116.827442 
L 46.488663 -118.124796 
L 46.205861 -119.422149 
L 45.97903 -120.719503 
L 45.808305 -122.016856 
L 45.688279 -123.31421 
L 45.610218 -124.611564 
L 45.564537 -125.908917 
L 45.542339 -127.206271 
L 45.53588 -128.503625 
L 45.538914 -129.800978 
L 45.548152 -131.098332 
L 45.566317 -132.395686 
L 45.605632 -133.693039 
L 45.689206 -134.990393 
L 45.847832 -136.287747 
L 46.111655 -137.5851 
L 46.499029 -138.882454 
L 47.007046 -140.179807 
L 47.608095 -141.477161 
L 48.254626 -142.774515 
L 48.891059 -144.071868 
L 49.469235 -145.369222 
L 49.96271 -146.666576 
L 50.375598 -147.963929 
L 50.743269 -149.261283 
L 51.124365 -150.558637 
L 51.586085 -151.85599 
L 52.186767 -153.153344 
L 52.960844 -154.450698 
L 53.910579 -155.748051 
L 55.006671 -157.045405 
L 56.196703 -158.342758 
L 57.417767 -159.640112 
L 58.608773 -160.937466 
L 59.719017 -162.234819 
L 60.71199 -163.532173 
L 67.368533 -163.532173 
L 67.368533 -163.532173 
L 68.361506 -162.234819 
L 69.471751 -160.937466 
L 70.662756 -159.640112 
L 71.883821 -158.342758 
L 73.073852 -157.045405 
L 74.169944 -155.748051 
L 75.119679 -154.450698 
L 75.893757 -153.153344 
L 76.494438 -151.85599 
L 76.956158 -150.558637 
L 77.337254 -149.261283 
L 77.704926 -147.963929 
L 78.117814 -146.666576 
L 78.611288 -145.369222 
L 79.189464 -144.071868 
L 79.825897 -142.774515 
L 80.472428 -141.477161 
L 81.073477 -140.179807 
L 81.581494 -138.882454 
L 81.968868 -137.5851 
L 82.232691 -136.287747 
L 82.391318 -134.990393 
L 82.474891 -133.693039 
L 82.514206 -132.395686 
L 82.532372 -131.098332 
L 82.54161 -129.800978 
L 82.544643 -128.503625 
L 82.538185 -127.206271 
L 82.515986 -125.908917 
L 82.470306 -124.611564 
L 82.392245 -123.31421 
L 82.272218 -122.016856 
L 82.101493 -120.719503 
L 81.874663 -119.422149 
L 81.591861 -118.124796 
L 81.259145 -116.827442 
L 80.886125 -115.530088 
L 80.481343 -114.232735 
L 80.047366 -112.935381 
L 79.578112 -111.638027 
L 79.060021 -110.340674 
L 78.476879 -109.04332 
L 77.81631 -107.745966 
L 77.075394 -106.448613 
L 76.263594 -105.151259 
L 75.402576 -103.853906 
L 74.523467 -102.556552 
L 73.662303 -101.259198 
L 72.854201 -99.961845 
L 72.126908 -98.664491 
L 71.494995 -97.367137 
L 70.956603 -96.069784 
L 70.494438 -94.77243 
L 70.081358 -93.475076 
L 69.688871 -92.177723 
L 69.295486 -90.880369 
L 68.891858 -89.583015 
L 68.481219 -88.285662 
L 68.075713 -86.988308 
L 67.690796 -85.690955 
L 67.340118 -84.393601 
L 67.032494 -83.096247 
L 66.771241 -81.798894 
L 66.555144 -80.50154 
L 66.379906 -79.204186 
L 66.239195 -77.906833 
L 66.125029 -76.609479 
L 66.027858 -75.312125 
L 65.937026 -74.014772 
L 65.842082 -72.717418 
L 65.734811 -71.420064 
L 65.61124 -70.122711 
L 65.472678 -68.825357 
L 65.325193 -67.528004 
L 65.177677 -66.23065 
L 65.03928 -64.933296 
L 64.91717 -63.635943 
L 64.815255 -62.338589 
L 64.733974 -61.041235 
L 64.670898 -59.743882 
L 64.621748 -58.446528 
L 64.581552 -57.149174 
L 64.545714 -55.851821 
L 64.510819 -54.554467 
L 64.475017 -53.257113 
L 64.437931 -51.95976 
L 64.400206 -50.662406 
L 64.362901 -49.365053 
L 64.32697 -48.067699 
L 64.292997 -46.770345 
L 64.261215 -45.472992 
L 64.231724 -44.175638 
L 64.204742 -42.878284 
L 64.180692 -41.580931 
L 64.160048 -40.283577 
L 64.143024 -38.986223 
L 64.129312 -37.68887 
L 64.118052 -36.391516 
L 64.108104 -35.094162 
z
" style="stroke: #000000; stroke-width: 0.3"/>
    </defs>
    <g clip-path="url(#p7e19212852)">
     <use xlink:href="#mfaa9316880" x="0" y="175.339884" style="fill: #0000ff; stroke: #000000; stroke-width: 0.3"/>
    </g>
   </g>
   <g id="PolyCollection_2">
    <defs>
     <path id="mdbe0b6024f" d="M 138.634338 -19.14347 
L 137.48124 -19.14347 
L 137.388777 -20.601131 
L 137.298453 -22.058792 
L 137.213148 -23.516453 
L 137.13513 -24.974114 
L 137.065788 -26.431775 
L 137.00546 -27.889436 
L 136.953376 -29.347097 
L 136.907723 -30.804757 
L 136.865852 -32.262418 
L 136.824613 -33.720079 
L 136.780778 -35.17774 
L 136.731488 -36.635401 
L 136.674645 -38.093062 
L 136.609175 -39.550723 
L 136.5351 -41.008384 
L 136.453418 -42.466045 
L 136.365826 -43.923705 
L 136.274362 -45.381366 
L 136.181058 -46.839027 
L 136.087663 -48.296688 
L 135.995498 -49.754349 
L 135.905406 -51.21201 
L 135.817783 -52.669671 
L 135.732626 -54.127332 
L 135.649582 -55.584993 
L 135.567987 -57.042653 
L 135.486918 -58.500314 
L 135.405269 -59.957975 
L 135.321871 -61.415636 
L 135.235619 -62.873297 
L 135.14558 -64.330958 
L 135.05104 -65.788619 
L 134.951473 -67.24628 
L 134.846451 -68.70394 
L 134.735533 -70.161601 
L 134.618199 -71.619262 
L 134.493853 -73.076923 
L 134.361899 -74.534584 
L 134.22184 -75.992245 
L 134.073345 -77.449906 
L 133.916205 -78.907567 
L 133.750172 -80.365228 
L 133.574714 -81.822888 
L 133.388784 -83.280549 
L 133.190709 -84.73821 
L 132.978269 -86.195871 
L 132.749002 -87.653532 
L 132.500659 -89.111193 
L 132.231729 -90.568854 
L 131.941905 -92.026515 
L 131.63241 -93.484176 
L 131.306129 -94.941836 
L 130.967517 -96.399497 
L 130.622294 -97.857158 
L 130.276918 -99.314819 
L 129.937872 -100.77248 
L 129.610822 -102.230141 
L 129.299771 -103.687802 
L 129.006367 -105.145463 
L 128.729573 -106.603123 
L 128.465824 -108.060784 
L 128.209731 -109.518445 
L 127.955207 -110.976106 
L 127.696799 -112.433767 
L 127.43087 -113.891428 
L 127.156311 -115.349089 
L 126.874557 -116.80675 
L 126.588864 -118.264411 
L 126.30305 -119.722071 
L 126.020085 -121.179732 
L 125.740999 -122.637393 
L 125.464527 -124.095054 
L 125.187661 -125.552715 
L 124.906979 -127.010376 
L 124.620295 -128.468037 
L 124.328018 -129.925698 
L 124.033597 -131.383359 
L 123.742742 -132.841019 
L 123.461498 -134.29868 
L 123.193681 -135.756341 
L 122.93852 -137.214002 
L 122.689371 -138.671663 
L 122.434163 -140.129324 
L 122.157782 -141.586985 
L 121.846092 -143.044646 
L 121.490806 -144.502306 
L 121.094179 -145.959967 
L 120.672459 -147.417628 
L 120.257245 -148.875289 
L 119.89427 -150.33295 
L 119.639569 -151.790611 
L 119.553407 -153.248272 
L 119.692698 -154.705933 
L 120.102936 -156.163594 
L 120.810819 -157.621254 
L 121.818792 -159.078915 
L 123.102566 -160.536576 
L 124.612307 -161.994237 
L 126.277553 -163.451898 
L 149.838025 -163.451898 
L 149.838025 -163.451898 
L 151.503271 -161.994237 
L 153.013012 -160.536576 
L 154.296786 -159.078915 
L 155.304759 -157.621254 
L 156.012642 -156.163594 
L 156.42288 -154.705933 
L 156.562171 -153.248272 
L 156.476009 -151.790611 
L 156.221308 -150.33295 
L 155.858333 -148.875289 
L 155.443119 -147.417628 
L 155.021399 -145.959967 
L 154.624772 -144.502306 
L 154.269486 -143.044646 
L 153.957796 -141.586985 
L 153.681415 -140.129324 
L 153.426207 -138.671663 
L 153.177058 -137.214002 
L 152.921897 -135.756341 
L 152.65408 -134.29868 
L 152.372836 -132.841019 
L 152.081981 -131.383359 
L 151.78756 -129.925698 
L 151.495283 -128.468037 
L 151.208599 -127.010376 
L 150.927917 -125.552715 
L 150.651051 -124.095054 
L 150.374579 -122.637393 
L 150.095493 -121.179732 
L 149.812528 -119.722071 
L 149.526714 -118.264411 
L 149.241021 -116.80675 
L 148.959267 -115.349089 
L 148.684708 -113.891428 
L 148.418779 -112.433767 
L 148.160371 -110.976106 
L 147.905847 -109.518445 
L 147.649753 -108.060784 
L 147.386005 -106.603123 
L 147.109211 -105.145463 
L 146.815807 -103.687802 
L 146.504756 -102.230141 
L 146.177706 -100.77248 
L 145.83866 -99.314819 
L 145.493284 -97.857158 
L 145.148061 -96.399497 
L 144.809449 -94.941836 
L 144.483168 -93.484176 
L 144.173673 -92.026515 
L 143.883849 -90.568854 
L 143.614919 -89.111193 
L 143.366576 -87.653532 
L 143.137309 -86.195871 
L 142.924869 -84.73821 
L 142.726794 -83.280549 
L 142.540864 -81.822888 
L 142.365406 -80.365228 
L 142.199373 -78.907567 
L 142.042233 -77.449906 
L 141.893738 -75.992245 
L 141.753679 -74.534584 
L 141.621725 -73.076923 
L 141.497379 -71.619262 
L 141.380045 -70.161601 
L 141.269127 -68.70394 
L 141.164105 -67.24628 
L 141.064538 -65.788619 
L 140.969998 -64.330958 
L 140.879959 -62.873297 
L 140.793707 -61.415636 
L 140.710309 -59.957975 
L 140.62866 -58.500314 
L 140.547591 -57.042653 
L 140.465996 -55.584993 
L 140.382952 -54.127332 
L 140.297795 -52.669671 
L 140.210172 -51.21201 
L 140.12008 -49.754349 
L 140.027915 -48.296688 
L 139.93452 -46.839027 
L 139.841216 -45.381366 
L 139.749752 -43.923705 
L 139.66216 -42.466045 
L 139.580478 -41.008384 
L 139.506403 -39.550723 
L 139.440933 -38.093062 
L 139.38409 -36.635401 
L 139.3348 -35.17774 
L 139.290965 -33.720079 
L 139.249726 -32.262418 
L 139.207855 -30.804757 
L 139.162202 -29.347097 
L 139.110118 -27.889436 
L 139.04979 -26.431775 
L 138.980448 -24.974114 
L 138.90243 -23.516453 
L 138.817125 -22.058792 
L 138.726801 -20.601131 
L 138.634338 -19.14347 
z
" style="stroke: #000000; stroke-width: 0.3"/>
    </defs>
    <g clip-path="url(#p7e19212852)">
     <use xlink:href="#mdbe0b6024f" x="0" y="175.339884" style="fill: #ffa500; stroke: #000000; stroke-width: 0.3"/>
    </g>
   </g>
   <g id="PolyCollection_3">
    <defs>
     <path id="mdbdbe8c145" d="M 215.066893 -18.976808 
L 209.083739 -18.976808 
L 208.628357 -20.42685 
L 208.208923 -21.876892 
L 207.844138 -23.326934 
L 207.54583 -24.776975 
L 207.317342 -26.227017 
L 207.153462 -27.677059 
L 207.041866 -29.127101 
L 206.965672 -30.577143 
L 206.906483 -32.027184 
L 206.847242 -33.477226 
L 206.774353 -34.927268 
L 206.67879 -36.37731 
L 206.556194 -37.827352 
L 206.406205 -39.277393 
L 206.23135 -40.727435 
L 206.035851 -42.177477 
L 205.824612 -43.627519 
L 205.602504 -45.07756 
L 205.37396 -46.527602 
L 205.142806 -47.977644 
L 204.912199 -49.427686 
L 204.684569 -50.877728 
L 204.461474 -52.327769 
L 204.243396 -53.777811 
L 204.029507 -55.227853 
L 203.817544 -56.677895 
L 203.603914 -58.127936 
L 203.384102 -59.577978 
L 203.153404 -61.02802 
L 202.907855 -62.478062 
L 202.645141 -63.928104 
L 202.365226 -65.378145 
L 202.070477 -66.828187 
L 201.76515 -68.278229 
L 201.454319 -69.728271 
L 201.142475 -71.178313 
L 200.832177 -72.628354 
L 200.523127 -74.078396 
L 200.211969 -75.528438 
L 199.892913 -76.97848 
L 199.559062 -78.428521 
L 199.20412 -79.878563 
L 198.824033 -81.328605 
L 198.418151 -82.778647 
L 197.989602 -84.228689 
L 197.544819 -85.67873 
L 197.092397 -87.128772 
L 196.641643 -88.578814 
L 196.201257 -90.028856 
L 195.778525 -91.478898 
L 195.379174 -92.928939 
L 195.007824 -94.378981 
L 194.668726 -95.829023 
L 194.366405 -97.279065 
L 194.105889 -98.729106 
L 193.892373 -100.179148 
L 193.730437 -101.62919 
L 193.62308 -103.079232 
L 193.570934 -104.529274 
L 193.571899 -105.979315 
L 193.621311 -107.429357 
L 193.712567 -108.879399 
L 193.837992 -110.329441 
L 193.989754 -111.779483 
L 194.160657 -113.229524 
L 194.344772 -114.679566 
L 194.537886 -116.129608 
L 194.737804 -117.57965 
L 194.944485 -119.029691 
L 195.15997 -120.479733 
L 195.388073 -121.929775 
L 195.633834 -123.379817 
L 195.902844 -124.829859 
L 196.200604 -126.2799 
L 196.532103 -127.729942 
L 196.901729 -129.179984 
L 197.313509 -130.630026 
L 197.771521 -132.080068 
L 198.280208 -133.530109 
L 198.844335 -134.980151 
L 199.468406 -136.430193 
L 200.15555 -137.880235 
L 200.906077 -139.330276 
L 201.716069 -140.780318 
L 202.576425 -142.23036 
L 203.472694 -143.680402 
L 204.385887 -145.130444 
L 205.294173 -146.580485 
L 206.17517 -148.030527 
L 207.008384 -149.480569 
L 207.77731 -150.930611 
L 208.470795 -152.380653 
L 209.083481 -153.830694 
L 209.615337 -155.280736 
L 210.070512 -156.730778 
L 210.455856 -158.18082 
L 210.77945 -159.630861 
L 211.049433 -161.080903 
L 211.273254 -162.530945 
L 212.877379 -162.530945 
L 212.877379 -162.530945 
L 213.101199 -161.080903 
L 213.371182 -159.630861 
L 213.694776 -158.18082 
L 214.08012 -156.730778 
L 214.535296 -155.280736 
L 215.067152 -153.830694 
L 215.679838 -152.380653 
L 216.373323 -150.930611 
L 217.142248 -149.480569 
L 217.975463 -148.030527 
L 218.85646 -146.580485 
L 219.764745 -145.130444 
L 220.677939 -143.680402 
L 221.574208 -142.23036 
L 222.434563 -140.780318 
L 223.244556 -139.330276 
L 223.995083 -137.880235 
L 224.682227 -136.430193 
L 225.306298 -134.980151 
L 225.870424 -133.530109 
L 226.379111 -132.080068 
L 226.837123 -130.630026 
L 227.248904 -129.179984 
L 227.618529 -127.729942 
L 227.950028 -126.2799 
L 228.247789 -124.829859 
L 228.516799 -123.379817 
L 228.76256 -121.929775 
L 228.990663 -120.479733 
L 229.206148 -119.029691 
L 229.412828 -117.57965 
L 229.612746 -116.129608 
L 229.805861 -114.679566 
L 229.989976 -113.229524 
L 230.160879 -111.779483 
L 230.31264 -110.329441 
L 230.438066 -108.879399 
L 230.529322 -107.429357 
L 230.578734 -105.979315 
L 230.579698 -104.529274 
L 230.527552 -103.079232 
L 230.420196 -101.62919 
L 230.258259 -100.179148 
L 230.044744 -98.729106 
L 229.784227 -97.279065 
L 229.481907 -95.829023 
L 229.142809 -94.378981 
L 228.771459 -92.928939 
L 228.372108 -91.478898 
L 227.949376 -90.028856 
L 227.50899 -88.578814 
L 227.058236 -87.128772 
L 226.605814 -85.67873 
L 226.161031 -84.228689 
L 225.732481 -82.778647 
L 225.326599 -81.328605 
L 224.946513 -79.878563 
L 224.591571 -78.428521 
L 224.25772 -76.97848 
L 223.938663 -75.528438 
L 223.627505 -74.078396 
L 223.318456 -72.628354 
L 223.008158 -71.178313 
L 222.696314 -69.728271 
L 222.385482 -68.278229 
L 222.080156 -66.828187 
L 221.785407 -65.378145 
L 221.505492 -63.928104 
L 221.242777 -62.478062 
L 220.997229 -61.02802 
L 220.766531 -59.577978 
L 220.546719 -58.127936 
L 220.333088 -56.677895 
L 220.121126 -55.227853 
L 219.907236 -53.777811 
L 219.689158 -52.327769 
L 219.466064 -50.877728 
L 219.238433 -49.427686 
L 219.007827 -47.977644 
L 218.776673 -46.527602 
L 218.548128 -45.07756 
L 218.32602 -43.627519 
L 218.114782 -42.177477 
L 217.919283 -40.727435 
L 217.744427 -39.277393 
L 217.594439 -37.827352 
L 217.471843 -36.37731 
L 217.376279 -34.927268 
L 217.303391 -33.477226 
L 217.24415 -32.027184 
L 217.184961 -30.577143 
L 217.108766 -29.127101 
L 216.997171 -27.677059 
L 216.833291 -26.227017 
L 216.604803 -24.776975 
L 216.306494 -23.326934 
L 215.941709 -21.876892 
L 215.522275 -20.42685 
L 215.066893 -18.976808 
z
" style="stroke: #000000; stroke-width: 0.3"/>
    </defs>
    <g clip-path="url(#p7e19212852)">
     <use xlink:href="#mdbdbe8c145" x="0" y="175.339884" style="fill: #008000; stroke: #000000; stroke-width: 0.3"/>
    </g>
   </g>
   <g id="PolyCollection_4">
    <defs>
     <path id="m7307566092" d="M 286.283744 -19.826703 
L 285.901944 -19.826703 
L 285.879647 -21.273031 
L 285.858238 -22.719359 
L 285.836058 -24.165687 
L 285.811378 -25.612015 
L 285.783082 -27.058343 
L 285.751138 -28.50467 
L 285.716692 -29.950998 
L 285.681758 -31.397326 
L 285.648653 -32.843654 
L 285.619375 -34.289982 
L 285.595105 -35.73631 
L 285.57596 -37.182638 
L 285.561049 -38.628966 
L 285.548816 -40.075294 
L 285.537585 -41.521622 
L 285.526158 -42.967949 
L 285.514234 -44.414277 
L 285.502468 -45.860605 
L 285.492086 -47.306933 
L 285.484169 -48.753261 
L 285.478912 -50.199589 
L 285.475201 -51.645917 
L 285.470763 -53.092245 
L 285.462899 -54.538573 
L 285.449535 -55.9849 
L 285.430143 -57.431228 
L 285.406118 -58.877556 
L 285.380369 -60.323884 
L 285.356251 -61.770212 
L 285.336189 -63.21654 
L 285.320531 -64.662868 
L 285.307051 -66.109196 
L 285.291323 -67.555524 
L 285.267841 -69.001852 
L 285.231554 -70.448179 
L 285.17933 -71.894507 
L 285.110922 -73.340835 
L 285.029124 -74.787163 
L 284.93906 -76.233491 
L 284.846767 -77.679819 
L 284.75745 -79.126147 
L 284.673924 -80.572475 
L 284.595785 -82.018803 
L 284.519634 -83.465131 
L 284.440362 -84.911458 
L 284.353071 -86.357786 
L 284.254915 -87.804114 
L 284.146115 -89.250442 
L 284.029753 -90.69677 
L 283.91045 -92.143098 
L 283.79256 -93.589426 
L 283.678643 -95.035754 
L 283.56884 -96.482082 
L 283.461222 -97.92841 
L 283.35279 -99.374737 
L 283.240491 -100.821065 
L 283.121735 -102.267393 
L 282.994244 -103.713721 
L 282.855422 -105.160049 
L 282.701761 -106.606377 
L 282.528819 -108.052705 
L 282.332077 -109.499033 
L 282.108556 -110.945361 
L 281.858651 -112.391688 
L 281.587311 -113.838016 
L 281.303819 -115.284344 
L 281.019866 -116.730672 
L 280.746329 -118.177 
L 280.489768 -119.623328 
L 280.249925 -121.069656 
L 280.019173 -122.515984 
L 279.784158 -123.962312 
L 279.528978 -125.40864 
L 279.238685 -126.854967 
L 278.901799 -128.301295 
L 278.511004 -129.747623 
L 278.061916 -131.193951 
L 277.550598 -132.640279 
L 276.970983 -134.086607 
L 276.313449 -135.532935 
L 275.565621 -136.979263 
L 274.715881 -138.425591 
L 273.75936 -139.871919 
L 272.705311 -141.318246 
L 271.583988 -142.764574 
L 270.450775 -144.210902 
L 269.385498 -145.65723 
L 268.485873 -147.103558 
L 267.855504 -148.549886 
L 267.588462 -149.996214 
L 267.753563 -151.442542 
L 268.381686 -152.88887 
L 269.458817 -154.335198 
L 270.926267 -155.781525 
L 272.688023 -157.227853 
L 274.623838 -158.674181 
L 276.605625 -160.120509 
L 278.51408 -161.566837 
L 280.252515 -163.013165 
L 291.933172 -163.013165 
L 291.933172 -163.013165 
L 293.671607 -161.566837 
L 295.580063 -160.120509 
L 297.561849 -158.674181 
L 299.497665 -157.227853 
L 301.259421 -155.781525 
L 302.726871 -154.335198 
L 303.804002 -152.88887 
L 304.432124 -151.442542 
L 304.597226 -149.996214 
L 304.330183 -148.549886 
L 303.699814 -147.103558 
L 302.80019 -145.65723 
L 301.734913 -144.210902 
L 300.601699 -142.764574 
L 299.480376 -141.318246 
L 298.426327 -139.871919 
L 297.469807 -138.425591 
L 296.620067 -136.979263 
L 295.872239 -135.532935 
L 295.214704 -134.086607 
L 294.635089 -132.640279 
L 294.123772 -131.193951 
L 293.674683 -129.747623 
L 293.283888 -128.301295 
L 292.947003 -126.854967 
L 292.656709 -125.40864 
L 292.401529 -123.962312 
L 292.166514 -122.515984 
L 291.935762 -121.069656 
L 291.695919 -119.623328 
L 291.439359 -118.177 
L 291.165822 -116.730672 
L 290.881869 -115.284344 
L 290.598376 -113.838016 
L 290.327036 -112.391688 
L 290.077132 -110.945361 
L 289.853611 -109.499033 
L 289.656868 -108.052705 
L 289.483927 -106.606377 
L 289.330266 -105.160049 
L 289.191443 -103.713721 
L 289.063952 -102.267393 
L 288.945197 -100.821065 
L 288.832897 -99.374737 
L 288.724466 -97.92841 
L 288.616848 -96.482082 
L 288.507044 -95.035754 
L 288.393128 -93.589426 
L 288.275237 -92.143098 
L 288.155935 -90.69677 
L 288.039573 -89.250442 
L 287.930773 -87.804114 
L 287.832616 -86.357786 
L 287.745325 -84.911458 
L 287.666053 -83.465131 
L 287.589902 -82.018803 
L 287.511764 -80.572475 
L 287.428238 -79.126147 
L 287.33892 -77.679819 
L 287.246627 -76.233491 
L 287.156564 -74.787163 
L 287.074765 -73.340835 
L 287.006357 -71.894507 
L 286.954134 -70.448179 
L 286.917846 -69.001852 
L 286.894364 -67.555524 
L 286.878636 -66.109196 
L 286.865157 -64.662868 
L 286.849498 -63.21654 
L 286.829436 -61.770212 
L 286.805318 -60.323884 
L 286.779569 -58.877556 
L 286.755544 -57.431228 
L 286.736153 -55.9849 
L 286.722789 -54.538573 
L 286.714924 -53.092245 
L 286.710486 -51.645917 
L 286.706775 -50.199589 
L 286.701519 -48.753261 
L 286.693602 -47.306933 
L 286.683219 -45.860605 
L 286.671453 -44.414277 
L 286.659529 -42.967949 
L 286.648102 -41.521622 
L 286.636872 -40.075294 
L 286.624638 -38.628966 
L 286.609728 -37.182638 
L 286.590583 -35.73631 
L 286.566312 -34.289982 
L 286.537034 -32.843654 
L 286.503929 -31.397326 
L 286.468995 -29.950998 
L 286.434549 -28.50467 
L 286.402606 -27.058343 
L 286.374309 -25.612015 
L 286.34963 -24.165687 
L 286.32745 -22.719359 
L 286.30604 -21.273031 
L 286.283744 -19.826703 
z
" style="stroke: #000000; stroke-width: 0.3"/>
    </defs>
    <g clip-path="url(#p7e19212852)">
     <use xlink:href="#m7307566092" x="0" y="175.339884" style="fill: #ff0000; stroke: #000000; stroke-width: 0.3"/>
    </g>
   </g>
   <g id="LineCollection_1">
    <path d="M 64.040262 64.747105 
L 64.040262 35.096525 
" clip-path="url(#p7e19212852)" style="fill: none; stroke: #000000; stroke-width: 2"/>
   </g>
   <g id="LineCollection_2">
    <path d="M 64.040262 49.257345 
L 64.040262 49.257345 
" clip-path="url(#p7e19212852)" style="fill: none; stroke: #ffffff; stroke-width: 2"/>
   </g>
   <g id="LineCollection_3">
    <path d="M 138.057789 69.660174 
L 138.057789 24.272844 
" clip-path="url(#p7e19212852)" style="fill: none; stroke: #000000; stroke-width: 2"/>
   </g>
   <g id="LineCollection_4">
    <path d="M 138.057789 43.488862 
L 138.057789 43.488862 
" clip-path="url(#p7e19212852)" style="fill: none; stroke: #ffffff; stroke-width: 2"/>
   </g>
   <g id="LineCollection_5">
    <path d="M 212.075316 102.183565 
L 212.075316 54.569355 
" clip-path="url(#p7e19212852)" style="fill: none; stroke: #000000; stroke-width: 2"/>
   </g>
   <g id="LineCollection_6">
    <path d="M 212.075316 75.516928 
L 212.075316 75.516928 
" clip-path="url(#p7e19212852)" style="fill: none; stroke: #ffffff; stroke-width: 2"/>
   </g>
   <g id="LineCollection_7">
    <path d="M 286.092844 53.614908 
L 286.092844 24.37536 
" clip-path="url(#p7e19212852)" style="fill: none; stroke: #000000; stroke-width: 2"/>
   </g>
   <g id="LineCollection_8">
    <path d="M 286.092844 32.854572 
L 286.092844 32.854572 
" clip-path="url(#p7e19212852)" style="fill: none; stroke: #ffffff; stroke-width: 2"/>
   </g>
   <g id="patch_3">
    <path d="M 32.582813 159.257072 
L 32.582813 3.471875 
" style="fill: none"/>
   </g>
   <g id="patch_4">
    <path d="M 32.582813 159.257072 
L 317.550293 159.257072 
" style="fill: none"/>
   </g>
  </g>
 </g>
 <defs>
  <clipPath id="p7e19212852">
   <rect x="32.582813" y="3.471875" width="284.96748" height="155.785197"/>
  </clipPath>
 </defs>
</svg>
